<svg width="60" height="60" viewBox="0 0 60 60" fill="none" xmlns="http://www.w3.org/2000/svg">
<circle cx="30" cy="30" r="29.5" fill="white" stroke="#191919"/>
<rect x="14" y="14" width="32" height="32" fill="white"/>
<path d="M31.5351 37.5703C31.5351 37.5702 31.5351 37.5705 31.5351 37.5703C31.5351 37.7811 31.3578 37.9519 31.1391 37.9519H26.5035C26.5008 37.9519 26.4981 37.9514 26.4953 37.9514H25.6895V40.2366H26.5943C26.813 40.2366 26.9902 40.4075 26.9902 40.6183C26.9902 40.829 26.813 40.9999 26.5943 40.9999H25.2935C25.0748 40.9999 24.8975 40.829 24.8975 40.6183V37.5698C24.8975 37.359 25.0748 37.1882 25.2935 37.1882H25.8073L23.2929 33.1105C23.2187 32.9903 23.2188 32.8406 23.2931 32.7204L25.7767 28.7001C25.8886 28.5191 26.1315 28.4596 26.3195 28.5675C26.5074 28.6753 26.569 28.9095 26.4572 29.0906L24.094 32.9158L26.7285 37.1882H31.1391C31.3578 37.1882 31.5351 37.3595 31.5351 37.5703Z" fill="#191919"/>
<path d="M31.5351 37.5703C31.5351 37.5702 31.5351 37.5705 31.5351 37.5703ZM31.5351 37.5703C31.5351 37.7811 31.3578 37.9519 31.1391 37.9519H26.5035C26.5008 37.9519 26.4981 37.9514 26.4953 37.9514H25.6895V40.2366H26.5943C26.813 40.2366 26.9902 40.4075 26.9902 40.6183C26.9902 40.829 26.813 40.9999 26.5943 40.9999H25.2935C25.0748 40.9999 24.8975 40.829 24.8975 40.6183V37.5698C24.8975 37.359 25.0748 37.1882 25.2935 37.1882H25.8073L23.2929 33.1105C23.2187 32.9903 23.2188 32.8406 23.2931 32.7204L25.7767 28.7001C25.8886 28.5191 26.1315 28.4596 26.3195 28.5675C26.5074 28.6753 26.569 28.9095 26.4572 29.0906L24.094 32.9158L26.7285 37.1882H31.1391C31.3578 37.1882 31.5351 37.3595 31.5351 37.5703Z" stroke="#191919" stroke-width="0.5"/>
<path d="M44 32.046V34.4514C44 34.6621 43.8227 34.833 43.604 34.833H41.108C40.8893 34.833 40.712 34.6621 40.712 34.4514V32.046C40.712 31.8353 40.8893 31.6644 41.108 31.6644H41.93C41.8404 29.051 40.7983 26.5616 38.9714 24.6189C37.1716 22.7051 34.7531 21.4671 32.1221 21.1026V21.787C32.1221 21.9977 31.9448 22.1686 31.7261 22.1686H31.1439L37.6628 32.7204C37.737 32.8406 37.7371 32.9903 37.6629 33.1106L35.1485 37.1882H35.6623C35.881 37.1882 36.0583 37.3591 36.0583 37.5698V40.6183C36.0583 40.829 35.881 40.9999 35.6623 40.9999H28.1785C27.9598 40.9999 27.7825 40.829 27.7825 40.6183C27.7825 40.4075 27.9598 40.2367 28.1785 40.2367H35.2663V37.9514H34.4604C34.4577 37.9515 34.455 37.9519 34.4522 37.9519H32.7232C32.5045 37.9519 32.3273 37.7811 32.3273 37.5703C32.3273 37.5571 32.328 37.544 32.3293 37.5311C32.3495 37.3385 32.5182 37.1882 32.7233 37.1882H34.2272L36.8617 32.9158L30.874 23.2236V30.2885C31.5564 30.4584 32.0618 31.0565 32.0618 31.7663C32.0618 32.6079 31.3513 33.2925 30.4781 33.2925C29.6049 33.2925 28.8944 32.6079 28.8944 31.7663C28.8944 31.0565 29.3999 30.4584 30.0822 30.2885V23.2236L27.2738 27.7695C27.162 27.9505 26.919 28.01 26.731 27.9021C26.5431 27.7943 26.4815 27.5601 26.5934 27.379L29.8123 22.1686H29.2301C29.0114 22.1686 28.8341 21.9977 28.8341 21.787V21.1026C26.2031 21.4671 23.7846 22.7051 21.9848 24.6189C20.1579 26.5616 19.1158 29.0511 19.0263 31.6644H19.8919C20.1106 31.6644 20.2879 31.8353 20.2879 32.046V34.4514C20.2879 34.6621 20.1106 34.833 19.892 34.833H17.396C17.1773 34.833 17 34.6621 17 34.4514V32.046C17 31.8353 17.1773 31.6644 17.396 31.6644H18.2339C18.3238 28.8612 19.4389 26.1898 21.3981 24.1064C22.6732 22.7504 24.239 21.7118 25.9692 21.0518H20.2285C20.038 21.7232 19.3997 22.2183 18.6434 22.2183C17.7372 22.2183 17 21.5078 17 20.6346C17 19.7613 17.7372 19.0509 18.6434 19.0509C19.4263 19.0509 20.0826 19.5813 20.2468 20.2886H28.8341V19.3816C28.8341 19.1708 29.0114 19 29.2301 19H31.7261C31.9447 19 32.122 19.1709 32.122 19.3816V20.2886H40.7093C40.8736 19.5812 41.5299 19.0508 42.3128 19.0508C43.219 19.0508 43.9562 19.7613 43.9562 20.6346C43.9562 21.5078 43.2189 22.2183 42.3128 22.2183C41.5565 22.2183 40.9182 21.7233 40.7277 21.0518H34.987C36.7171 21.7118 38.2829 22.7504 39.5581 24.1064C41.5173 26.1897 42.6324 28.8612 42.7222 31.6644H43.604C43.8226 31.6644 43.9999 31.8352 44 32.046ZM41.4613 20.6346C41.4613 21.0871 41.8433 21.4551 42.3128 21.4551C42.7823 21.4551 43.1642 21.087 43.1642 20.6346C43.1642 20.1822 42.7823 19.8141 42.3128 19.8141C41.8433 19.8141 41.4614 20.1822 41.4613 20.6346ZM19.4949 20.6346C19.4949 20.1822 19.1129 19.8141 18.6434 19.8141C18.1739 19.8141 17.792 20.1822 17.792 20.6346C17.792 21.0871 18.1739 21.4551 18.6434 21.4551C19.1129 21.4551 19.4949 21.087 19.4949 20.6346ZM17.7919 32.4276V34.0698H19.496V32.4276L17.7919 32.4276ZM30.4781 31.0033C30.0416 31.0033 29.6863 31.3456 29.6863 31.7663C29.6863 32.187 30.0415 32.5293 30.4781 32.5293C30.9147 32.5293 31.2699 32.1871 31.2699 31.7663C31.2699 31.3455 30.9147 31.0033 30.4781 31.0033ZM31.3301 19.7632H29.6261V20.6683C29.6261 20.6691 29.6261 20.6699 29.6261 20.6706V21.4053H31.3301V20.6701C31.3301 20.6697 31.3301 20.6692 31.3301 20.6688V19.7632ZM43.208 32.4276H41.5039V34.0698H43.208V32.4276Z" fill="#191919" stroke="#191919" stroke-width="0.5"/>
</svg>
