<svg width="40" height="40" viewBox="0 0 40 40" fill="none" xmlns="http://www.w3.org/2000/svg">
<path d="M31.9517 18.215C31.9517 20.2259 31.405 22.1988 30.3707 23.9205C29.3681 25.5894 27.9346 26.9852 26.2252 27.957C25.2664 28.5021 24.6941 29.4383 24.6941 30.4614V34.8736C24.6941 35.8366 23.8976 36.6201 22.9186 36.6201H22.8797V37.2534C22.8797 38.2163 22.0833 38.9999 21.1043 38.9999H19.8947C18.9158 38.9999 18.1193 38.2164 18.1193 37.2534V36.6201H18.0804C17.1015 36.6201 16.305 35.8367 16.305 34.8736V30.3668C16.305 29.3932 15.7594 28.5069 14.8454 27.9959C12.973 26.9489 11.4424 25.4133 10.4191 23.5553C9.35712 21.627 8.8978 19.4373 9.09087 17.2229C9.31374 14.666 10.4543 12.229 12.3025 10.3605C14.152 8.49069 16.5975 7.30475 19.1886 7.02123C22.4974 6.65919 25.6743 7.65224 28.134 9.81756C30.5603 11.9535 31.9517 15.0143 31.9517 18.215ZM21.7482 36.6201H19.2511V37.2533C19.2511 37.6024 19.5398 37.8865 19.8948 37.8865H21.1044C21.4593 37.8865 21.7481 37.6025 21.7482 37.2533L21.7482 36.6201ZM23.5624 31.8606H17.4367V33.127H21.1044C21.4169 33.127 21.6702 33.3763 21.6702 33.6837C21.6702 33.9911 21.4169 34.2403 21.1044 34.2403H17.4367V34.8735C17.4367 35.2227 17.7254 35.5068 18.0804 35.5068H22.9187C23.2737 35.5068 23.5625 35.2227 23.5624 34.8735V34.2403H23.5235C23.211 34.2403 22.9576 33.9911 22.9576 33.6837C22.9576 33.3763 23.211 33.127 23.5235 33.127H23.5624V31.8606ZM27.057 26.0387C26.9458 25.9563 26.825 25.8865 26.6954 25.8298L25.1268 25.144C23.7515 26.0349 22.1565 26.5059 20.4996 26.5059C18.8404 26.5059 17.2469 26.0357 15.8715 25.1444L14.3038 25.8299C14.1759 25.8858 14.0549 25.9566 13.9431 26.0393C14.3985 26.4072 14.8869 26.7385 15.4046 27.028C16.6581 27.7288 17.4367 29.0081 17.4367 30.3667V30.7472H23.5624V30.4613C23.5624 29.036 24.3463 27.7394 25.659 26.9931C26.1522 26.7127 26.6195 26.3928 27.057 26.0387ZM17.8596 17.3084C17.5297 17.6079 17.1851 17.827 16.832 17.9647V18.215C16.832 20.2045 18.4773 21.823 20.4997 21.823C22.522 21.823 24.1674 20.2045 24.1674 18.215V17.2091C22.6064 17.3937 20.0424 17.3625 18.2852 15.6339C18.0642 15.4166 18.0642 15.0641 18.2852 14.8468C18.5061 14.6294 18.8644 14.6294 19.0854 14.8468C19.6587 15.4107 21.3582 16.6517 24.7467 15.9931C24.7612 15.9903 24.7722 15.9747 24.7722 15.9566V15.8353C24.7722 13.8458 23.1269 12.2273 21.1045 12.2273H19.8949C17.8725 12.2273 16.2272 13.8458 16.2272 15.8353V16.9363C16.2272 16.9625 16.2327 16.9789 16.2368 16.9866C16.2403 16.9863 16.2452 16.9856 16.2518 16.9839C16.5263 16.9134 16.8091 16.7473 17.0921 16.4903C17.3218 16.2818 17.6798 16.2959 17.8916 16.5218C18.1036 16.7477 18.0892 17.0999 17.8596 17.3084ZM17.592 24.3922L17.1427 24.5887C18.174 25.1163 19.3174 25.3927 20.4996 25.3927C21.6805 25.3927 22.8248 25.1161 23.8566 24.5887L23.4073 24.3922C22.7668 24.1121 22.3529 23.4857 22.3529 22.7962V22.5698C21.7824 22.8057 21.1564 22.9363 20.4997 22.9363C19.8431 22.9363 19.2169 22.8056 18.6464 22.5697V22.7962C18.6464 23.4857 18.2325 24.1122 17.592 24.3922ZM30.82 18.215C30.82 15.3305 29.5659 12.5722 27.3793 10.6472C25.4619 8.95916 23.0596 8.06179 20.5141 8.06179C20.1169 8.06179 19.7165 8.08361 19.3137 8.1277C16.9827 8.38278 14.7807 9.45146 13.1135 11.1369C11.4472 12.8215 10.419 15.0166 10.2184 17.3179C10.0443 19.315 10.4578 21.2884 11.4141 23.0249C11.8702 23.8532 12.4387 24.6101 13.1006 25.2781C13.3234 25.0882 13.5746 24.9304 13.8443 24.8126L17.1324 23.3749C17.3646 23.2734 17.5147 23.0462 17.5147 22.7963V21.9079C16.4102 21.0423 15.7004 19.7091 15.7004 18.215V17.9692C15.647 17.941 15.5958 17.9085 15.5471 17.8716C15.2602 17.6534 15.0956 17.3125 15.0956 16.9363V15.8352C15.0956 13.2319 17.2486 11.114 19.895 11.114H21.1045C23.7509 11.114 25.9039 13.2319 25.9039 15.8352V15.9566C25.9039 16.3847 25.663 16.7669 25.2991 16.9647V18.2151C25.2991 19.7091 24.5892 21.0423 23.4847 21.908V22.7962C23.4847 23.0462 23.6346 23.2733 23.8669 23.3749L27.1551 24.8125C27.4238 24.93 27.6746 25.0884 27.8973 25.2781C28.4714 24.6987 28.9764 24.0534 29.3966 23.354C30.3278 21.8038 30.82 20.0268 30.82 18.215Z" fill="#191919" stroke="#191919"/>
<path d="M21.0663 1.55664V5.12633C21.0663 5.43374 20.8129 5.68297 20.5004 5.68297C20.1879 5.68297 19.9346 5.43374 19.9346 5.12633V1.55664C19.9346 1.24923 20.1879 1 20.5004 1C20.8129 1 21.0663 1.24923 21.0663 1.55664Z" fill="#191919" stroke="#191919"/>
<path d="M37.9997 18.2153C37.9997 18.5227 37.7464 18.772 37.4339 18.772H33.8051C33.4926 18.772 33.2393 18.5227 33.2393 18.2153C33.2393 17.9079 33.4926 17.6587 33.8051 17.6587H37.4339C37.7464 17.6587 37.9997 17.9079 37.9997 18.2153Z" fill="#191919" stroke="#191919"/>
<path d="M7.76046 18.2153C7.76046 18.5227 7.50711 18.772 7.19461 18.772H3.56585C3.25335 18.772 3 18.5227 3 18.2153C3 17.9079 3.25335 17.6587 3.56585 17.6587H7.19461C7.50711 17.6587 7.76046 17.9079 7.76046 18.2153Z" fill="#191919" stroke="#191919"/>
<path d="M32.8746 6.82911L30.3087 9.35329C30.1982 9.46202 30.0534 9.51635 29.9086 9.51635C29.7638 9.51635 29.619 9.46195 29.5085 9.35329C29.2875 9.13598 29.2875 8.78351 29.5085 8.56613L32.0744 6.04195C32.2954 5.82456 32.6537 5.82456 32.8746 6.04195C33.0956 6.25926 33.0956 6.61173 32.8746 6.82911Z" fill="#191919" stroke="#191919"/>
<path d="M11.4918 27.8638L8.92588 30.3879C8.81543 30.4967 8.67057 30.551 8.52579 30.551C8.38101 30.551 8.23615 30.4966 8.1257 30.3879C7.90472 30.1706 7.90472 29.8182 8.1257 29.6008L10.6916 27.0766C10.9126 26.8592 11.2709 26.8592 11.4918 27.0766C11.7128 27.2939 11.7128 27.6464 11.4918 27.8638Z" fill="#191919" stroke="#191919"/>
<path d="M32.8746 30.388C32.7642 30.4967 32.6193 30.551 32.4745 30.551C32.3298 30.551 32.1849 30.4966 32.0744 30.388L29.5085 27.8638C29.2875 27.6465 29.2875 27.294 29.5085 27.0766C29.7294 26.8592 30.0877 26.8592 30.3087 27.0766L32.8746 29.6008C33.0956 29.8181 33.0956 30.1706 32.8746 30.388Z" fill="#191919" stroke="#191919"/>
<path d="M11.4918 9.35329C11.3814 9.46202 11.2365 9.51635 11.0917 9.51635C10.9469 9.51635 10.8021 9.46195 10.6916 9.35329L8.1257 6.82911C7.90472 6.6118 7.90472 6.25933 8.1257 6.04195C8.34661 5.82456 8.7049 5.82456 8.92589 6.04195L11.4918 8.56613C11.7128 8.78344 11.7128 9.13591 11.4918 9.35329Z" fill="#191919" stroke="#191919"/>
</svg>
