<svg width="40" height="40" viewBox="0 0 40 40" fill="none" xmlns="http://www.w3.org/2000/svg">
<path d="M37.8451 9.21348C37.8451 12.1258 35.5416 14.4629 32.7493 14.4629C29.9571 14.4629 27.6885 12.1618 27.6885 9.24944C27.6885 6.33708 29.9222 4 32.7493 4C35.5764 4 37.8451 6.30112 37.8451 9.21348ZM36.7282 9.24944C36.7282 6.98427 34.9482 5.15056 32.7493 5.15056C30.5854 5.15056 28.7705 6.94831 28.7705 9.21348C28.7705 11.4787 30.5505 13.3124 32.7493 13.3124C34.9482 13.3124 36.7282 11.5146 36.7282 9.24944Z" fill="#191919" stroke="#191919"/>
<path d="M34.3892 10.3279C34.3892 10.4717 34.3892 10.5796 34.3543 10.6875C34.3194 10.7953 34.2845 10.9032 34.2496 11.0111C34.1798 11.1189 34.1449 11.2268 34.0751 11.2987C34.0053 11.4066 33.9355 11.4785 33.8657 11.5504C33.761 11.6223 33.6912 11.6942 33.5865 11.7302C33.4818 11.8021 33.377 11.838 33.2723 11.874H33.2374V12.629H32.3998V11.9099H32.33C32.2253 11.9099 32.1555 11.9099 32.0508 11.874C31.9461 11.838 31.8414 11.838 31.7715 11.8021C31.7017 11.8021 31.597 11.7661 31.5272 11.7302C31.4225 11.6942 31.3527 11.6583 31.2131 11.6942L31.1084 11.6583V11.5504L31.1782 10.9032L31.2131 10.6515L31.4225 10.7594C31.4574 10.7594 31.4923 10.7953 31.5272 10.7953C31.5621 10.7953 31.597 10.8313 31.6319 10.8313C31.7017 10.8673 31.7715 10.8673 31.8414 10.9032C31.9112 10.9392 31.981 10.9751 32.0508 10.9751C32.0857 10.9751 32.1555 11.0111 32.2253 11.0111C32.2602 11.0111 32.33 11.0111 32.3998 11.0111C32.4347 11.0111 32.5045 11.0111 32.5394 11.0111C32.6092 11.0111 32.6441 11.0111 32.679 11.0111C32.7488 11.0111 32.8186 10.9751 32.8535 10.9751C32.8884 10.9392 32.9582 10.9392 32.9931 10.9032C33.0629 10.8672 33.0978 10.8313 33.1327 10.7953C33.1676 10.7594 33.2025 10.7234 33.2374 10.6875C33.2723 10.6515 33.3072 10.5796 33.3072 10.5436C33.3072 10.4717 33.3072 10.4358 33.3072 10.3639C33.3072 10.292 33.2723 10.22 33.2723 10.1841C33.2374 10.1122 33.2374 10.0762 33.2025 10.0403C33.1676 10.0043 33.1327 9.96836 33.0978 9.9324C33.0629 9.9324 33.028 9.89645 32.9931 9.86049C32.9582 9.82453 32.8884 9.82453 32.8535 9.78858C32.8186 9.75262 32.7488 9.71667 32.7139 9.71667C32.6441 9.68071 32.5394 9.64476 32.4347 9.6088C32.3649 9.57284 32.2602 9.50093 32.1555 9.46498C32.0856 9.42902 31.9809 9.39307 31.9111 9.32116C31.8064 9.2852 31.7366 9.21329 31.6668 9.14138C31.597 9.06947 31.5621 8.99756 31.4923 8.92565C31.4574 8.85374 31.3876 8.74587 31.3527 8.67396C31.2829 8.56609 31.2829 8.49418 31.248 8.38632C31.2131 8.27845 31.2131 8.20655 31.2131 8.09868C31.2131 7.99081 31.2131 7.84699 31.248 7.73913C31.2829 7.63126 31.3178 7.5234 31.3527 7.41553C31.3876 7.30766 31.4225 7.1998 31.4923 7.12789C31.5621 7.02002 31.6319 6.94811 31.7017 6.8762C31.7715 6.80429 31.8413 6.73238 31.946 6.69642C32.0508 6.62451 32.1555 6.58855 32.2602 6.5526H32.2951V5.8335H33.1327V6.51665H33.1676C33.2375 6.51665 33.2724 6.5526 33.3422 6.5526C33.412 6.5526 33.4818 6.58856 33.5167 6.58856C33.5865 6.58856 33.6214 6.62452 33.6563 6.62452C33.6912 6.62452 33.761 6.66047 33.7959 6.66047L33.9355 6.69642V6.84024L33.8657 7.41552L33.8308 7.63125L33.6563 7.55934C33.6214 7.55934 33.5865 7.52338 33.5167 7.52338C33.4818 7.52338 33.412 7.48742 33.3771 7.48742C33.3422 7.48742 33.2724 7.45146 33.2026 7.45146C33.1327 7.4155 33.0978 7.4155 33.028 7.4155C32.9931 7.4155 32.9582 7.4155 32.9233 7.4155C32.8884 7.4155 32.8535 7.4155 32.8186 7.4155C32.7488 7.4155 32.7139 7.4155 32.6441 7.45146C32.5743 7.45146 32.5045 7.48742 32.4696 7.52337C32.4347 7.55933 32.3998 7.59528 32.3649 7.63124C32.33 7.6672 32.33 7.73911 32.2951 7.77506C32.2951 7.81102 32.2602 7.88293 32.2602 7.91888C32.2602 7.99079 32.2602 8.02675 32.2602 8.09866C32.2602 8.13462 32.2602 8.20652 32.2951 8.24248C32.2951 8.31439 32.33 8.35035 32.3649 8.3863C32.3998 8.42226 32.4347 8.45821 32.4696 8.49417C32.5045 8.53013 32.5743 8.53013 32.6092 8.56608C32.6441 8.60204 32.7139 8.60204 32.7488 8.63799C32.7837 8.67395 32.8535 8.7099 32.8884 8.7099C32.9582 8.74586 33.063 8.78181 33.1677 8.81777C33.2724 8.85373 33.3422 8.92564 33.4469 8.96159C33.5167 8.99755 33.6214 9.0335 33.6912 9.10541C33.7959 9.14137 33.8657 9.21328 33.9355 9.28519C34.0053 9.3571 34.0402 9.42901 34.11 9.50092C34.1798 9.57283 34.2147 9.6807 34.2496 9.75261C34.3194 9.86048 34.3194 9.93239 34.3543 10.0402C34.3892 10.1481 34.3892 10.2201 34.3892 10.3279Z" fill="#191919" stroke="#191919"/>
<path d="M30.2017 15.973L24.3032 20.7909C24.1636 20.8988 23.9192 20.9348 23.7447 20.8629L16.4152 17.7348L8.84135 23.3078C8.73664 23.3797 8.63193 23.4157 8.52723 23.4157C8.35272 23.4157 8.1782 23.3438 8.0735 23.164C7.89899 22.9123 7.96879 22.5527 8.21311 22.373L16.0313 16.6202C16.1709 16.5123 16.3803 16.4763 16.5548 16.5483L23.8495 19.6763L29.5037 15.0381C29.748 14.8584 30.1319 14.8943 30.3064 15.146C30.4809 15.3977 30.446 15.7932 30.2017 15.973Z" fill="#191919" stroke="#191919"/>
<path d="M38.9967 35.4247C38.9967 35.7483 38.7524 36 38.4382 36H2.55844C2.24432 36 2 35.7483 2 35.4247C2 35.1011 2.24432 34.8494 2.55844 34.8494H5.17613V26.4719C5.17613 26.1483 5.42045 25.8966 5.73457 25.8966H10.9001C11.2143 25.8966 11.4586 26.1483 11.4586 26.4719V34.8494H13.3433V23.0921C13.3433 22.7685 13.5876 22.5168 13.9018 22.5168H19.0324C19.3465 22.5168 19.5909 22.7685 19.5909 23.0921V34.8494H21.4756V23.955C21.4756 23.6314 21.7199 23.3798 22.034 23.3798H27.1996C27.5137 23.3798 27.7581 23.6315 27.7581 23.955V34.8494H29.6428V18.2022C29.6428 17.8786 29.8871 17.627 30.2012 17.627H35.3319C35.646 17.627 35.8904 17.8786 35.8904 18.2022V34.8494H38.4731C38.7873 34.8494 39.0316 35.1011 38.9967 35.4247ZM10.3068 27.0472H6.293V34.8494H10.3068V27.0472ZM18.474 23.6674H14.4602V34.8494H18.474V23.6674ZM26.6063 24.5303H22.5925V34.8494H26.6063V24.5303ZM34.7735 18.7775H30.7597V34.8494H34.7735V18.7775Z" fill="#191919" stroke="#191919"/>
</svg>
