<svg width="295" height="25" viewBox="0 0 295 25" fill="none" xmlns="http://www.w3.org/2000/svg">
<path d="M32.6632 9.81818C32.6028 9.21094 32.3347 8.72798 31.8588 8.36932C31.383 8.01065 30.7846 7.83132 30.0637 7.83132C29.5559 7.83132 29.1085 7.91832 28.7214 8.09233C28.3379 8.26634 28.036 8.50781 27.8159 8.81676C27.5993 9.12216 27.4909 9.47017 27.4909 9.8608C27.4909 10.1484 27.5531 10.4006 27.6774 10.6172C27.8017 10.8338 27.9686 11.0202 28.1781 11.1765C28.3912 11.3292 28.6255 11.4606 28.8812 11.5707C29.1404 11.6808 29.4015 11.7731 29.6642 11.8477L30.8148 12.1779C31.1628 12.2738 31.5108 12.3963 31.8588 12.5455C32.2069 12.6946 32.5247 12.8828 32.8123 13.1101C33.1035 13.3338 33.3361 13.609 33.5101 13.9357C33.6877 14.2589 33.7765 14.6477 33.7765 15.1023C33.7765 15.6847 33.6255 16.2085 33.3237 16.6737C33.0218 17.1388 32.5886 17.5082 32.024 17.7816C31.4593 18.0515 30.7828 18.1864 29.9945 18.1864C29.2523 18.1864 28.6078 18.0639 28.0609 17.8189C27.514 17.5703 27.0843 17.2276 26.7718 16.7908C26.4593 16.354 26.2836 15.848 26.2445 15.2727H27.2672C27.3027 15.7024 27.4448 16.0664 27.6934 16.3647C27.9419 16.663 28.2651 16.8903 28.6628 17.0465C29.0605 17.1992 29.5044 17.2756 29.9945 17.2756C30.5378 17.2756 31.0208 17.185 31.4434 17.0039C31.8695 16.8192 32.2033 16.5636 32.4448 16.2369C32.6898 15.9066 32.8123 15.5231 32.8123 15.0863C32.8123 14.717 32.7164 14.408 32.5247 14.1594C32.3329 13.9073 32.0648 13.696 31.7203 13.5256C31.3794 13.3551 30.9835 13.2042 30.5325 13.0728L29.2275 12.6893C28.3716 12.4336 27.7076 12.0803 27.2353 11.6293C26.763 11.1783 26.5268 10.603 26.5268 9.90341C26.5268 9.31747 26.6831 8.80256 26.9956 8.35866C27.3116 7.91122 27.7377 7.56321 28.274 7.31463C28.8137 7.0625 29.4192 6.93643 30.0904 6.93643C30.7686 6.93643 31.3688 7.06072 31.8908 7.3093C32.4128 7.55788 32.8265 7.90057 33.1319 8.33736C33.4409 8.7706 33.606 9.2642 33.6273 9.81818H32.6632ZM42.3098 9.81818L39.3216 18H38.3095L35.3212 9.81818H36.3493L38.7782 16.7482H38.8528L41.2818 9.81818H42.3098ZM47.1798 18.1705C46.4163 18.1705 45.7558 17.9929 45.1982 17.6378C44.6407 17.2791 44.2093 16.7837 43.9039 16.1516C43.602 15.516 43.4511 14.7844 43.4511 13.957C43.4511 13.1332 43.602 12.4016 43.9039 11.7624C44.2093 11.1197 44.6301 10.6172 45.1663 10.255C45.7061 9.8892 46.3293 9.70632 47.036 9.70632C47.4798 9.70632 47.9078 9.788 48.3197 9.95135C48.7316 10.1112 49.1009 10.358 49.4276 10.6918C49.7579 11.022 50.0189 11.4393 50.2107 11.9435C50.4024 12.4442 50.4983 13.0373 50.4983 13.7227V14.1914H44.1063V13.3551H49.5289C49.5289 12.8295 49.4223 12.3572 49.2093 11.9382C48.9997 11.5156 48.7068 11.1818 48.3303 10.9368C47.9575 10.6918 47.526 10.5692 47.036 10.5692C46.5175 10.5692 46.0612 10.7077 45.667 10.9847C45.2728 11.2617 44.9639 11.6275 44.7401 12.082C44.52 12.5366 44.4081 13.0337 44.4046 13.5735V14.0742C44.4046 14.7241 44.5164 15.2923 44.7401 15.7788C44.9674 16.2617 45.2888 16.6364 45.7043 16.9027C46.1198 17.169 46.6116 17.3022 47.1798 17.3022C47.5669 17.3022 47.906 17.2418 48.1972 17.1211C48.4919 17.0004 48.7387 16.8388 48.9376 16.6364C49.14 16.4304 49.2927 16.2049 49.3957 15.9599L50.2959 16.2528C50.1716 16.5973 49.9674 16.9151 49.6833 17.2063C49.4028 17.4975 49.0512 17.7319 48.6286 17.9094C48.2096 18.0835 47.7267 18.1705 47.1798 18.1705ZM54.8729 18.1864C54.3793 18.1864 53.9283 18.0906 53.5199 17.8988C53.1115 17.7035 52.7866 17.4229 52.5451 17.0572C52.3036 16.6879 52.1829 16.2404 52.1829 15.7148C52.1829 15.31 52.2592 14.9691 52.4119 14.6921C52.5646 14.4151 52.7813 14.1879 53.0618 14.0103C53.3423 13.8327 53.6744 13.6925 54.0579 13.5895C54.4414 13.4865 54.864 13.4066 55.3256 13.3498C55.7837 13.293 56.1708 13.2433 56.4869 13.2006C56.8065 13.158 57.0497 13.0906 57.2166 12.9982C57.3835 12.9059 57.467 12.7567 57.467 12.5508V12.359C57.467 11.8015 57.3001 11.3629 56.9663 11.0433C56.636 10.7202 56.1602 10.5586 55.5387 10.5586C54.9492 10.5586 54.468 10.6882 54.0952 10.9474C53.7259 11.2067 53.4666 11.5121 53.3175 11.8636L52.4173 11.5387C52.6019 11.0913 52.8576 10.7344 53.1843 10.468C53.511 10.1982 53.8768 10.0046 54.2816 9.88743C54.6864 9.76669 55.0966 9.70632 55.5121 9.70632C55.8246 9.70632 56.1495 9.74716 56.4869 9.82884C56.8278 9.91051 57.1438 10.0526 57.435 10.255C57.7262 10.4538 57.9624 10.7326 58.1435 11.0913C58.3246 11.4464 58.4151 11.8974 58.4151 12.4442V18H57.467V16.7056H57.4084C57.2947 16.9471 57.1261 17.1815 56.9023 17.4087C56.6786 17.636 56.3981 17.8224 56.0607 17.968C55.7234 18.1136 55.3274 18.1864 54.8729 18.1864ZM55.0007 17.3182C55.505 17.3182 55.9418 17.2063 56.3111 16.9826C56.6804 16.7589 56.9645 16.4624 57.1634 16.093C57.3658 15.7202 57.467 15.31 57.467 14.8626V13.68C57.396 13.7475 57.277 13.8079 57.1101 13.8612C56.9467 13.9144 56.7567 13.9624 56.5401 14.005C56.3271 14.044 56.114 14.0778 55.9009 14.1062C55.6879 14.1346 55.4961 14.1594 55.3256 14.1808C54.864 14.2376 54.4698 14.3263 54.1431 14.4471C53.8164 14.5678 53.5661 14.7347 53.392 14.9478C53.218 15.1573 53.131 15.4272 53.131 15.7575C53.131 16.2546 53.3086 16.6399 53.6637 16.9134C54.0188 17.1832 54.4645 17.3182 55.0007 17.3182ZM66.9778 9.81818L63.9895 18H62.9775L59.9892 9.81818H61.0172L63.4462 16.7482H63.5208L65.9498 9.81818H66.9778ZM70.869 18.1864C70.3754 18.1864 69.9244 18.0906 69.516 17.8988C69.1076 17.7035 68.7827 17.4229 68.5412 17.0572C68.2997 16.6879 68.179 16.2404 68.179 15.7148C68.179 15.31 68.2553 14.9691 68.408 14.6921C68.5607 14.4151 68.7773 14.1879 69.0579 14.0103C69.3384 13.8327 69.6705 13.6925 70.054 13.5895C70.4375 13.4865 70.8601 13.4066 71.3217 13.3498C71.7798 13.293 72.1669 13.2433 72.483 13.2006C72.8026 13.158 73.0458 13.0906 73.2127 12.9982C73.3796 12.9059 73.4631 12.7567 73.4631 12.5508V12.359C73.4631 11.8015 73.2962 11.3629 72.9624 11.0433C72.6321 10.7202 72.1563 10.5586 71.5348 10.5586C70.9453 10.5586 70.4641 10.6882 70.0913 10.9474C69.7219 11.2067 69.4627 11.5121 69.3136 11.8636L68.4134 11.5387C68.598 11.0913 68.8537 10.7344 69.1804 10.468C69.5071 10.1982 69.8729 10.0046 70.2777 9.88743C70.6825 9.76669 71.0927 9.70632 71.5082 9.70632C71.8207 9.70632 72.1456 9.74716 72.483 9.82884C72.8239 9.91051 73.1399 10.0526 73.4311 10.255C73.7223 10.4538 73.9585 10.7326 74.1396 11.0913C74.3207 11.4464 74.4112 11.8974 74.4112 12.4442V18H73.4631V16.7056H73.4045C73.2908 16.9471 73.1222 17.1815 72.8984 17.4087C72.6747 17.636 72.3942 17.8224 72.0568 17.968C71.7195 18.1136 71.3235 18.1864 70.869 18.1864ZM70.9968 17.3182C71.5011 17.3182 71.9379 17.2063 72.3072 16.9826C72.6765 16.7589 72.9606 16.4624 73.1594 16.093C73.3619 15.7202 73.4631 15.31 73.4631 14.8626V13.68C73.392 13.7475 73.2731 13.8079 73.1062 13.8612C72.9428 13.9144 72.7528 13.9624 72.5362 14.005C72.3232 14.044 72.1101 14.0778 71.897 14.1062C71.6839 14.1346 71.4922 14.1594 71.3217 14.1808C70.8601 14.2376 70.4659 14.3263 70.1392 14.4471C69.8125 14.5678 69.5621 14.7347 69.3881 14.9478C69.2141 15.1573 69.1271 15.4272 69.1271 15.7575C69.1271 16.2546 69.3047 16.6399 69.6598 16.9134C70.0149 17.1832 70.4606 17.3182 70.9968 17.3182ZM70.2298 8.41193C70.0487 8.41193 69.8888 8.34446 69.7504 8.20952C69.6154 8.07102 69.5479 7.91122 69.5479 7.73011C69.5479 7.5348 69.6154 7.37322 69.7504 7.24538C69.8888 7.11399 70.0487 7.04829 70.2298 7.04829C70.4251 7.04829 70.5866 7.11399 70.7145 7.24538C70.8459 7.37322 70.9116 7.5348 70.9116 7.73011C70.9116 7.91122 70.8459 8.07102 70.7145 8.20952C70.5866 8.34446 70.4251 8.41193 70.2298 8.41193ZM72.957 8.41193C72.7759 8.41193 72.6161 8.34446 72.4776 8.20952C72.3427 8.07102 72.2752 7.91122 72.2752 7.73011C72.2752 7.5348 72.3427 7.37322 72.4776 7.24538C72.6161 7.11399 72.7759 7.04829 72.957 7.04829C73.1523 7.04829 73.3139 7.11399 73.4418 7.24538C73.5732 7.37322 73.6388 7.5348 73.6388 7.73011C73.6388 7.91122 73.5732 8.07102 73.4418 8.20952C73.3139 8.34446 73.1523 8.41193 72.957 8.41193ZM80.0549 21.2386C79.4973 21.2386 79.0091 21.1658 78.59 21.0202C78.171 20.8782 77.8176 20.6829 77.53 20.4343C77.2424 20.1857 77.0186 19.907 76.8588 19.598L77.6365 19.0866C77.7537 19.2926 77.91 19.495 78.1053 19.6939C78.3042 19.8928 78.5616 20.0579 78.8777 20.1893C79.1973 20.3207 79.5897 20.3864 80.0549 20.3864C80.7793 20.3864 81.3635 20.2053 81.8074 19.843C82.2548 19.4808 82.4785 18.918 82.4785 18.1545V16.3114H82.3933C82.2832 16.56 82.1252 16.8086 81.9192 17.0572C81.7132 17.3022 81.4434 17.5064 81.1096 17.6697C80.7793 17.8331 80.3691 17.9148 79.8791 17.9148C79.2257 17.9148 78.6451 17.7532 78.1373 17.43C77.633 17.1069 77.2353 16.6452 76.9441 16.0451C76.6564 15.4414 76.5126 14.7223 76.5126 13.8878C76.5126 13.0604 76.6529 12.3324 76.9334 11.7038C77.2175 11.0753 77.6135 10.5852 78.1213 10.2337C78.6291 9.8821 79.2203 9.70632 79.8951 9.70632C80.3958 9.70632 80.8113 9.7951 81.1415 9.97266C81.4718 10.1467 81.7363 10.3633 81.9352 10.6225C82.1376 10.8817 82.2956 11.1339 82.4093 11.3789H82.5051V9.81818H83.432V18.2131C83.432 18.9055 83.2846 19.4755 82.9899 19.9229C82.6951 20.3704 82.2939 20.7006 81.786 20.9137C81.2782 21.1303 80.7012 21.2386 80.0549 21.2386ZM79.9909 17.0465C80.5165 17.0465 80.9657 16.9205 81.3386 16.6683C81.7115 16.4126 81.9973 16.0469 82.1962 15.571C82.3951 15.0952 82.4945 14.5288 82.4945 13.8718C82.4945 13.2326 82.3968 12.6662 82.2015 12.1726C82.0062 11.6754 81.7221 11.2848 81.3493 11.0007C80.9799 10.7131 80.5272 10.5692 79.9909 10.5692C79.4441 10.5692 78.9824 10.7166 78.606 11.0114C78.2296 11.3061 77.9455 11.7038 77.7537 12.2045C77.562 12.7017 77.4661 13.2575 77.4661 13.8718C77.4661 14.4968 77.5637 15.049 77.7591 15.5284C77.9544 16.0043 78.2402 16.3771 78.6167 16.647C78.9931 16.9134 79.4512 17.0465 79.9909 17.0465ZM89.2501 18.1705C88.4866 18.1705 87.8261 17.9929 87.2686 17.6378C86.711 17.2791 86.2796 16.7837 85.9742 16.1516C85.6723 15.516 85.5214 14.7844 85.5214 13.957C85.5214 13.1332 85.6723 12.4016 85.9742 11.7624C86.2796 11.1197 86.7004 10.6172 87.2366 10.255C87.7764 9.8892 88.3996 9.70632 89.1063 9.70632C89.5502 9.70632 89.9781 9.788 90.39 9.95135C90.8019 10.1112 91.1713 10.358 91.498 10.6918C91.8282 11.022 92.0892 11.4393 92.281 11.9435C92.4727 12.4442 92.5686 13.0373 92.5686 13.7227V14.1914H86.1766V13.3551H91.5992C91.5992 12.8295 91.4926 12.3572 91.2796 11.9382C91.07 11.5156 90.7771 11.1818 90.4007 10.9368C90.0278 10.6918 89.5963 10.5692 89.1063 10.5692C88.5878 10.5692 88.1315 10.7077 87.7373 10.9847C87.3431 11.2617 87.0342 11.6275 86.8105 12.082C86.5903 12.5366 86.4784 13.0337 86.4749 13.5735V14.0742C86.4749 14.7241 86.5867 15.2923 86.8105 15.7788C87.0377 16.2617 87.3591 16.6364 87.7746 16.9027C88.1901 17.169 88.6819 17.3022 89.2501 17.3022C89.6372 17.3022 89.9763 17.2418 90.2675 17.1211C90.5622 17.0004 90.809 16.8388 91.0079 16.6364C91.2103 16.4304 91.363 16.2049 91.466 15.9599L92.3662 16.2528C92.2419 16.5973 92.0377 16.9151 91.7536 17.2063C91.4731 17.4975 91.1215 17.7319 90.699 17.9094C90.2799 18.0835 89.797 18.1705 89.2501 18.1705ZM95.6062 12.8864V18H94.658V9.81818H95.5795V11.1019H95.6648C95.8565 10.6829 96.1548 10.3473 96.5597 10.0952C96.968 9.83949 97.4723 9.71165 98.0724 9.71165C98.6229 9.71165 99.1058 9.82706 99.5213 10.0579C99.9403 10.2852 100.265 10.6207 100.496 11.0646C100.73 11.5085 100.848 12.0536 100.848 12.6999V18H99.8995V12.7585C99.8995 12.0874 99.7113 11.5565 99.3349 11.1658C98.962 10.7752 98.4613 10.5799 97.8327 10.5799C97.4031 10.5799 97.0213 10.6722 96.6875 10.8569C96.3537 11.0415 96.0891 11.3079 95.8938 11.6559C95.7021 12.0004 95.6062 12.4105 95.6062 12.8864ZM111.068 18.1491C110.397 18.1491 109.797 18.0284 109.268 17.7869C108.739 17.5419 108.32 17.2028 108.011 16.7695C107.702 16.3363 107.538 15.8374 107.521 15.2727H108.527C108.545 15.6705 108.668 16.0185 108.895 16.3168C109.122 16.6115 109.424 16.8423 109.801 17.0092C110.177 17.1726 110.596 17.2543 111.058 17.2543C111.562 17.2543 112.006 17.1602 112.389 16.9719C112.776 16.7837 113.078 16.5263 113.295 16.1996C113.515 15.8693 113.625 15.4964 113.625 15.081C113.625 14.6406 113.513 14.2518 113.29 13.9144C113.066 13.5771 112.744 13.3143 112.325 13.1261C111.91 12.9379 111.413 12.8438 110.834 12.8438H110.195V11.9489H110.834C111.306 11.9489 111.723 11.8636 112.086 11.6932C112.451 11.5192 112.739 11.2759 112.949 10.9634C113.158 10.6509 113.263 10.2834 113.263 9.8608C113.263 9.45952 113.172 9.10618 112.991 8.80078C112.81 8.49538 112.554 8.25568 112.224 8.08168C111.897 7.90767 111.516 7.82067 111.079 7.82067C110.656 7.82067 110.269 7.90234 109.918 8.0657C109.566 8.22905 109.282 8.45987 109.065 8.75817C108.852 9.05646 108.739 9.4098 108.725 9.81818H107.76C107.775 9.25 107.931 8.75107 108.229 8.32138C108.531 7.88814 108.93 7.55078 109.428 7.3093C109.928 7.06428 110.482 6.94176 111.09 6.94176C111.732 6.94176 112.288 7.07315 112.757 7.33594C113.226 7.59872 113.588 7.94851 113.843 8.3853C114.103 8.81854 114.232 9.29616 114.232 9.81818C114.232 10.4396 114.064 10.9723 113.726 11.4162C113.389 11.8565 112.934 12.1619 112.363 12.3324V12.4016C113.059 12.5401 113.606 12.8491 114.003 13.3285C114.405 13.8043 114.605 14.3885 114.605 15.081C114.605 15.6634 114.453 16.1871 114.147 16.6523C113.842 17.114 113.423 17.4798 112.89 17.7496C112.361 18.016 111.754 18.1491 111.068 18.1491ZM120.326 7.09091V18H119.33V8.13494H119.266L116.709 9.83416V8.80078L119.287 7.09091H120.326ZM124.609 16.5085L124.513 17.0785C124.453 17.462 124.367 17.8846 124.257 18.3462C124.147 18.8079 124.033 19.2464 123.916 19.6619C123.799 20.0774 123.698 20.4112 123.613 20.6634H122.883C122.929 20.4219 122.988 20.1147 123.059 19.7418C123.133 19.369 123.21 18.9553 123.288 18.5007C123.366 18.0497 123.437 17.5845 123.501 17.1051L123.575 16.5085H124.609ZM134.667 7.09091V18H133.671V8.13494H133.607L131.05 9.83416V8.80078L133.628 7.09091H134.667ZM141.347 7.09091V18H140.35V8.13494H140.287L137.73 9.83416V8.80078L140.308 7.09091H141.347ZM148.026 7.09091V18H147.03V8.13494H146.966L144.409 9.83416V8.80078L146.988 7.09091H148.026ZM159.1 18.1491C158.429 18.1491 157.829 18.0284 157.3 17.7869C156.771 17.5419 156.352 17.2028 156.043 16.7695C155.734 16.3363 155.571 15.8374 155.553 15.2727H156.56C156.577 15.6705 156.7 16.0185 156.927 16.3168C157.154 16.6115 157.456 16.8423 157.833 17.0092C158.209 17.1726 158.628 17.2543 159.09 17.2543C159.594 17.2543 160.038 17.1602 160.422 16.9719C160.809 16.7837 161.11 16.5263 161.327 16.1996C161.547 15.8693 161.657 15.4964 161.657 15.081C161.657 14.6406 161.545 14.2518 161.322 13.9144C161.098 13.5771 160.777 13.3143 160.358 13.1261C159.942 12.9379 159.445 12.8438 158.866 12.8438H158.227V11.9489H158.866C159.338 11.9489 159.756 11.8636 160.118 11.6932C160.484 11.5192 160.771 11.2759 160.981 10.9634C161.19 10.6509 161.295 10.2834 161.295 9.8608C161.295 9.45952 161.205 9.10618 161.023 8.80078C160.842 8.49538 160.587 8.25568 160.256 8.08168C159.93 7.90767 159.548 7.82067 159.111 7.82067C158.689 7.82067 158.301 7.90234 157.95 8.0657C157.598 8.22905 157.314 8.45987 157.098 8.75817C156.885 9.05646 156.771 9.4098 156.757 9.81818H155.793C155.807 9.25 155.963 8.75107 156.261 8.32138C156.563 7.88814 156.963 7.55078 157.46 7.3093C157.961 7.06428 158.515 6.94176 159.122 6.94176C159.765 6.94176 160.32 7.07315 160.789 7.33594C161.258 7.59872 161.62 7.94851 161.876 8.3853C162.135 8.81854 162.265 9.29616 162.265 9.81818C162.265 10.4396 162.096 10.9723 161.759 11.4162C161.421 11.8565 160.967 12.1619 160.395 12.3324V12.4016C161.091 12.5401 161.638 12.8491 162.036 13.3285C162.437 13.8043 162.637 14.3885 162.637 15.081C162.637 15.6634 162.485 16.1871 162.179 16.6523C161.874 17.114 161.455 17.4798 160.922 17.7496C160.393 18.016 159.786 18.1491 159.1 18.1491ZM164.731 15.6562V14.8466L169.594 7.09091H170.191V8.44922H169.749L165.844 14.6921V14.7614H172.22V15.6562H164.731ZM169.823 18V15.4006V15.0277V7.09091H170.771V18H169.823ZM184.758 9.81818C184.698 9.21094 184.429 8.72798 183.954 8.36932C183.478 8.01065 182.879 7.83132 182.158 7.83132C181.651 7.83132 181.203 7.91832 180.816 8.09233C180.433 8.26634 180.131 8.50781 179.911 8.81676C179.694 9.12216 179.586 9.47017 179.586 9.8608C179.586 10.1484 179.648 10.4006 179.772 10.6172C179.896 10.8338 180.063 11.0202 180.273 11.1765C180.486 11.3292 180.72 11.4606 180.976 11.5707C181.235 11.6808 181.496 11.7731 181.759 11.8477L182.91 12.1779C183.258 12.2738 183.606 12.3963 183.954 12.5455C184.302 12.6946 184.619 12.8828 184.907 13.1101C185.198 13.3338 185.431 13.609 185.605 13.9357C185.782 14.2589 185.871 14.6477 185.871 15.1023C185.871 15.6847 185.72 16.2085 185.418 16.6737C185.117 17.1388 184.683 17.5082 184.119 17.7816C183.554 18.0515 182.878 18.1864 182.089 18.1864C181.347 18.1864 180.703 18.0639 180.156 17.8189C179.609 17.5703 179.179 17.2276 178.867 16.7908C178.554 16.354 178.378 15.848 178.339 15.2727H179.362C179.397 15.7024 179.54 16.0664 179.788 16.3647C180.037 16.663 180.36 16.8903 180.758 17.0465C181.155 17.1992 181.599 17.2756 182.089 17.2756C182.633 17.2756 183.116 17.185 183.538 17.0039C183.964 16.8192 184.298 16.5636 184.54 16.2369C184.785 15.9066 184.907 15.5231 184.907 15.0863C184.907 14.717 184.811 14.408 184.619 14.1594C184.428 13.9073 184.16 13.696 183.815 13.5256C183.474 13.3551 183.078 13.2042 182.627 13.0728L181.322 12.6893C180.466 12.4336 179.802 12.0803 179.33 11.6293C178.858 11.1783 178.622 10.603 178.622 9.90341C178.622 9.31747 178.778 8.80256 179.09 8.35866C179.406 7.91122 179.832 7.56321 180.369 7.31463C180.908 7.0625 181.514 6.93643 182.185 6.93643C182.863 6.93643 183.464 7.06072 183.986 7.3093C184.508 7.55788 184.921 7.90057 185.227 8.33736C185.536 8.7706 185.701 9.2642 185.722 9.81818H184.758ZM187.608 7.98579V7.09091H195.518V7.98579H192.061V18H191.065V7.98579H187.608ZM206.25 12.5455C206.25 13.6818 206.047 14.6708 205.643 15.5124C205.238 16.3505 204.68 17.0004 203.97 17.462C203.263 17.9201 202.45 18.1491 201.53 18.1491C200.611 18.1491 199.796 17.9201 199.085 17.462C198.379 17.0004 197.823 16.3505 197.418 15.5124C197.017 14.6708 196.816 13.6818 196.816 12.5455C196.816 11.4091 197.017 10.4219 197.418 9.58381C197.823 8.74219 198.381 8.09233 199.091 7.63423C199.801 7.17258 200.614 6.94176 201.53 6.94176C202.45 6.94176 203.263 7.17258 203.97 7.63423C204.68 8.09233 205.238 8.74219 205.643 9.58381C206.047 10.4219 206.25 11.4091 206.25 12.5455ZM205.28 12.5455C205.28 11.5689 205.117 10.7326 204.79 10.0366C204.464 9.337 204.018 8.80256 203.453 8.43324C202.889 8.06392 202.248 7.87926 201.53 7.87926C200.817 7.87926 200.177 8.06392 199.613 8.43324C199.048 8.80256 198.601 9.33523 198.27 10.0312C197.944 10.7273 197.78 11.5653 197.78 12.5455C197.78 13.522 197.944 14.3583 198.27 15.0543C198.597 15.7504 199.043 16.2848 199.607 16.6577C200.172 17.027 200.813 17.2116 201.53 17.2116C202.248 17.2116 202.889 17.027 203.453 16.6577C204.021 16.2884 204.469 15.7557 204.796 15.0597C205.122 14.3601 205.284 13.522 205.28 12.5455ZM217.203 10.5H216.201C216.127 10.1271 215.992 9.78267 215.797 9.46662C215.605 9.14702 215.363 8.86825 215.072 8.63033C214.781 8.3924 214.451 8.20774 214.081 8.07635C213.712 7.94496 213.313 7.87926 212.883 7.87926C212.194 7.87926 211.565 8.05859 210.997 8.41726C210.433 8.77592 209.98 9.30327 209.639 9.99929C209.302 10.6918 209.133 11.5405 209.133 12.5455C209.133 13.5575 209.302 14.4098 209.639 15.1023C209.98 15.7947 210.433 16.3203 210.997 16.679C211.565 17.0341 212.194 17.2116 212.883 17.2116C213.313 17.2116 213.712 17.146 214.081 17.0146C214.451 16.8832 214.781 16.7003 215.072 16.4659C215.363 16.228 215.605 15.9492 215.797 15.6296C215.992 15.31 216.127 14.9638 216.201 14.5909H217.203C217.114 15.0916 216.947 15.5586 216.702 15.9918C216.461 16.4215 216.152 16.7979 215.775 17.1211C215.402 17.4442 214.973 17.6964 214.486 17.8775C214 18.0586 213.465 18.1491 212.883 18.1491C211.967 18.1491 211.153 17.9201 210.443 17.462C209.733 17.0004 209.176 16.3505 208.771 15.5124C208.369 14.6744 208.169 13.6854 208.169 12.5455C208.169 11.4055 208.369 10.4165 208.771 9.57848C209.176 8.74041 209.733 8.09233 210.443 7.63423C211.153 7.17258 211.967 6.94176 212.883 6.94176C213.465 6.94176 214 7.03232 214.486 7.21342C214.973 7.39098 215.402 7.64311 215.775 7.96982C216.152 8.29297 216.461 8.66939 216.702 9.09908C216.947 9.52876 217.114 9.99574 217.203 10.5ZM219.543 18V7.09091H220.539V12.9663H220.635L225.961 7.09091H227.272L222.611 12.1353L227.25 18H226.036L221.993 12.8278L220.539 14.4577V18H219.543ZM229.152 18V7.09091H230.148V12.0927H236.338V7.09091H237.334V18H236.338V12.9876H230.148V18H229.152ZM249.17 12.5455C249.17 13.6818 248.967 14.6708 248.562 15.5124C248.158 16.3505 247.6 17.0004 246.89 17.462C246.183 17.9201 245.37 18.1491 244.45 18.1491C243.531 18.1491 242.716 17.9201 242.005 17.462C241.299 17.0004 240.743 16.3505 240.338 15.5124C239.937 14.6708 239.736 13.6818 239.736 12.5455C239.736 11.4091 239.937 10.4219 240.338 9.58381C240.743 8.74219 241.3 8.09233 242.011 7.63423C242.721 7.17258 243.534 6.94176 244.45 6.94176C245.37 6.94176 246.183 7.17258 246.89 7.63423C247.6 8.09233 248.158 8.74219 248.562 9.58381C248.967 10.4219 249.17 11.4091 249.17 12.5455ZM248.2 12.5455C248.2 11.5689 248.037 10.7326 247.71 10.0366C247.384 9.337 246.938 8.80256 246.373 8.43324C245.809 8.06392 245.168 7.87926 244.45 7.87926C243.737 7.87926 243.097 8.06392 242.533 8.43324C241.968 8.80256 241.521 9.33523 241.19 10.0312C240.864 10.7273 240.7 11.5653 240.7 12.5455C240.7 13.522 240.864 14.3583 241.19 15.0543C241.517 15.7504 241.963 16.2848 242.527 16.6577C243.092 17.027 243.733 17.2116 244.45 17.2116C245.168 17.2116 245.809 17.027 246.373 16.6577C246.941 16.2884 247.389 15.7557 247.716 15.0597C248.042 14.3601 248.204 13.522 248.2 12.5455ZM251.579 18V7.09091H252.575V17.1051H257.774V18H251.579ZM260.016 7.09091H261.167L265.125 16.5938H265.22L269.178 7.09091H270.329V18H269.391V9.19496H269.306L265.625 18H264.72L261.039 9.19496H260.954V18H260.016V7.09091Z" fill="#191919"/>
<path d="M16.9512 9.45898C16.9512 14.0298 12.8639 17.8315 10.668 19.874C10.3629 20.1578 10.0993 20.4029 9.88939 20.6103C9.62632 20.8701 9.28877 21 8.95115 21C8.6136 21 8.27598 20.8701 8.01294 20.6103C7.80299 20.4029 7.53948 20.1578 7.23433 19.874C5.03847 17.8316 0.951172 14.0298 0.951172 9.45898C0.951172 7.19956 1.78331 5.07533 3.29432 3.47759C4.80529 1.87989 6.81433 1 8.95119 1C11.0881 1 13.0971 1.87989 14.608 3.47759C16.119 5.07533 16.9511 7.19956 16.9512 9.45898ZM15.8431 9.45902C15.8431 5.44072 12.7514 2.17161 8.9511 2.17161C5.1508 2.17161 2.05908 5.44072 2.05908 9.45902C2.05908 13.5 5.90171 17.0742 7.96609 18.9943C8.27793 19.2844 8.54724 19.5348 8.76923 19.7542C8.87127 19.8549 9.03101 19.8548 9.13301 19.7542C9.35504 19.5349 9.62432 19.2844 9.93615 18.9944C12.0005 17.0742 15.8431 13.5 15.8431 9.45902Z" fill="#191919"/>
<path d="M12.4768 9.13937C12.4768 11.1949 10.8953 12.8671 8.95129 12.8671C7.00731 12.8671 5.42578 11.1949 5.42578 9.13937C5.42578 7.08385 7.00731 5.41162 8.95129 5.41162C10.8953 5.41162 12.4768 7.08385 12.4768 9.13937ZM11.3688 9.13933C11.3688 7.72987 10.2843 6.58315 8.9513 6.58315C7.61828 6.58315 6.53378 7.72987 6.53378 9.13933C6.53378 10.5488 7.61828 11.6955 8.9513 11.6955C10.2843 11.6955 11.3688 10.5488 11.3688 9.13933Z" fill="#191919"/>
</svg>
