<svg width="180" height="27" viewBox="0 0 180 27" fill="none" xmlns="http://www.w3.org/2000/svg">
<rect opacity="0.1" x="178.332" width="1" height="25" fill="#191919"/>
<path d="M28.7638 17.9332V11.1843H29.6747V17.9332H28.7638ZM25.8448 15.0142V14.1033H32.5938V15.0142H25.8448ZM34.8802 17.6562V16.8466L39.7435 9.09091H40.3401V10.4492H39.898L35.9935 16.6921V16.7614H42.3696V17.6562H34.8802ZM39.9726 20V17.4006V17.0277V9.09091H40.9207V20H39.9726ZM47.9666 20.1491C47.5156 20.1456 47.0753 20.055 46.6456 19.8775C46.2159 19.6964 45.8288 19.407 45.4844 19.0092C45.1399 18.608 44.8665 18.0788 44.6641 17.4219C44.4616 16.7649 44.3604 15.957 44.3604 14.9982C44.3604 14.1104 44.4386 13.2972 44.5948 12.5586C44.7511 11.82 44.9854 11.1808 45.2979 10.641C45.6104 10.1012 46.0011 9.68395 46.4698 9.3892C46.9386 9.09091 47.4872 8.94176 48.1158 8.94176C48.7053 8.94176 49.2255 9.06428 49.6765 9.3093C50.1275 9.55078 50.4933 9.88814 50.7738 10.3214C51.0543 10.7546 51.2301 11.2536 51.3011 11.8182H50.321C50.2216 11.2429 49.9854 10.7688 49.6126 10.396C49.2397 10.0231 48.7408 9.83665 48.1158 9.83665C47.2209 9.83665 46.5284 10.2521 46.0384 11.0831C45.5483 11.9105 45.3015 13.0859 45.2979 14.6094H45.3672C45.5412 14.2862 45.7649 14.0075 46.0384 13.7731C46.3153 13.5352 46.6296 13.3505 46.9812 13.2191C47.3327 13.0842 47.7021 13.0167 48.0891 13.0167C48.6964 13.0167 49.2521 13.1712 49.7564 13.4801C50.2607 13.7855 50.6637 14.2063 50.9656 14.7425C51.2674 15.2752 51.4183 15.8842 51.4183 16.5696C51.4183 17.2195 51.2745 17.8178 50.9869 18.3647C50.7028 18.9116 50.3015 19.3466 49.783 19.6697C49.2681 19.9929 48.6626 20.1527 47.9666 20.1491ZM47.9666 19.2543C48.4425 19.2543 48.8668 19.1335 49.2397 18.892C49.6161 18.6506 49.9126 18.3274 50.1293 17.9226C50.3459 17.5142 50.4542 17.0632 50.4542 16.5696C50.4542 16.076 50.3459 15.6286 50.1293 15.2273C49.9126 14.826 49.6161 14.5064 49.2397 14.2685C48.8668 14.0305 48.4425 13.9116 47.9666 13.9116C47.6044 13.9116 47.267 13.9862 46.9545 14.1353C46.642 14.2809 46.3704 14.4815 46.1396 14.7372C45.9123 14.9893 45.7383 15.2788 45.6175 15.6055C45.5004 15.9322 45.456 16.2749 45.4844 16.6335C45.5234 17.1342 45.6531 17.5835 45.8732 17.9812C46.0969 18.3754 46.3881 18.6861 46.7468 18.9134C47.109 19.1406 47.5156 19.2543 47.9666 19.2543ZM58.3217 14.5455C58.3217 13.267 58.4833 12.0597 58.8065 10.9233C59.1296 9.78693 59.593 8.72159 60.1967 7.72727H61.0597C60.8004 8.14631 60.5625 8.62038 60.3459 9.1495C60.1328 9.67862 59.9482 10.2433 59.7919 10.8434C59.6357 11.4435 59.5149 12.0579 59.4297 12.6864C59.3445 13.3114 59.3018 13.9311 59.3018 14.5455C59.3018 15.3658 59.3764 16.1932 59.5256 17.0277C59.6747 17.8622 59.8807 18.6541 60.1435 19.4034C60.4098 20.1527 60.7152 20.8061 61.0597 21.3636H60.1967C59.593 20.3658 59.1296 19.2987 58.8065 18.1623C58.4833 17.0259 58.3217 15.8203 58.3217 14.5455ZM66.4623 20.1491C65.7662 20.1491 65.1466 20.0178 64.6032 19.755C64.0599 19.4922 63.6338 19.1335 63.3248 18.679C63.0159 18.2209 62.8614 17.7042 62.8614 17.1289C62.8614 16.6779 62.9555 16.2571 63.1437 15.8665C63.3319 15.4723 63.5912 15.142 63.9214 14.8757C64.2517 14.6058 64.6228 14.43 65.0347 14.3484V14.2898C64.4985 14.1335 64.067 13.8263 63.7403 13.3683C63.4136 12.9066 63.252 12.3828 63.2556 11.7969C63.252 11.2536 63.3905 10.767 63.6711 10.3374C63.9516 9.90767 64.3334 9.56854 64.8163 9.31996C65.3028 9.06783 65.8515 8.94176 66.4623 8.94176C67.0695 8.94176 67.6146 9.06783 68.0976 9.31996C68.5805 9.56854 68.9623 9.90767 69.2428 10.3374C69.5269 10.767 69.6707 11.2536 69.6743 11.7969C69.6707 12.3793 69.5056 12.9031 69.1789 13.3683C68.8522 13.8299 68.4225 14.1371 67.8898 14.2898V14.3484C68.3018 14.4265 68.6711 14.6005 68.9978 14.8704C69.3245 15.1403 69.5837 15.4723 69.7755 15.8665C69.9672 16.2571 70.0631 16.6779 70.0631 17.1289C70.0631 17.7042 69.9069 18.2209 69.5944 18.679C69.2854 19.1335 68.8593 19.4922 68.316 19.755C67.7762 20.0178 67.1583 20.1491 66.4623 20.1491ZM66.4623 19.2543C66.9807 19.2543 67.4353 19.1619 67.8259 18.9773C68.2201 18.7891 68.5273 18.5316 68.7474 18.2049C68.9711 17.8782 69.083 17.5036 69.083 17.081C69.083 16.6442 68.9676 16.2553 68.7368 15.9144C68.5059 15.57 68.1934 15.2983 67.7993 15.0994C67.4051 14.897 66.9594 14.7958 66.4623 14.7958C65.9651 14.7958 65.5177 14.897 65.1199 15.0994C64.7258 15.2983 64.4133 15.57 64.1824 15.9144C63.9552 16.2553 63.8415 16.6442 63.8415 17.081C63.8415 17.5036 63.9498 17.8782 64.1665 18.2049C64.3866 18.5316 64.6938 18.7891 65.088 18.9773C65.4857 19.1619 65.9438 19.2543 66.4623 19.2543ZM66.4623 13.9435C66.8884 13.9435 67.2702 13.853 67.6075 13.6719C67.9449 13.4908 68.2112 13.244 68.4065 12.9315C68.6054 12.6154 68.7066 12.2567 68.7101 11.8555C68.7066 11.4577 68.6072 11.1062 68.4118 10.8008C68.2165 10.4918 67.9502 10.2521 67.6128 10.0817C67.279 9.90767 66.8955 9.82067 66.4623 9.82067C66.029 9.82067 65.642 9.90767 65.301 10.0817C64.9637 10.2521 64.6974 10.4918 64.502 10.8008C64.3103 11.1062 64.2162 11.4577 64.2197 11.8555C64.2162 12.2567 64.3121 12.6154 64.5074 12.9315C64.7062 13.244 64.9743 13.4908 65.3117 13.6719C65.6526 13.853 66.0361 13.9435 66.4623 13.9435ZM74.6135 14.5455C74.6135 15.8239 74.4519 17.0312 74.1287 18.1676C73.8056 19.304 73.3422 20.3693 72.7385 21.3636H71.8755C72.1348 20.9446 72.3709 20.4705 72.584 19.9414C72.8006 19.4123 72.987 18.8477 73.1433 18.2475C73.2995 17.6474 73.4203 17.033 73.5055 16.4045C73.5907 15.7759 73.6333 15.1562 73.6333 14.5455C73.6333 13.7251 73.5588 12.8977 73.4096 12.0632C73.2605 11.2287 73.0527 10.4368 72.7864 9.6875C72.5236 8.93821 72.22 8.2848 71.8755 7.72727H72.7385C73.3422 8.72514 73.8056 9.79226 74.1287 10.9286C74.4519 12.065 74.6135 13.2706 74.6135 14.5455ZM85.0605 9.09091V20H84.0644V10.1349H84.0004L81.4436 11.8342V10.8008L84.0218 9.09091H85.0605ZM88.3737 20V19.2702L91.9372 15.2646C92.4024 14.739 92.7771 14.2898 93.0612 13.9169C93.3453 13.544 93.5512 13.1996 93.6791 12.8835C93.8105 12.5675 93.8762 12.239 93.8762 11.8981C93.8762 11.4826 93.7785 11.1204 93.5832 10.8114C93.3914 10.4989 93.1269 10.2557 92.7895 10.0817C92.4521 9.90767 92.0722 9.82067 91.6496 9.82067C91.2021 9.82067 90.8097 9.91655 90.4724 10.1083C90.1386 10.3001 89.8794 10.5629 89.6947 10.8967C89.51 11.2305 89.4177 11.614 89.4177 12.0472H88.4642C88.4642 11.4435 88.6027 10.9091 88.8797 10.4439C89.1602 9.97514 89.542 9.6076 90.0249 9.34126C90.5115 9.07493 91.0619 8.94176 91.6762 8.94176C92.2835 8.94176 92.8232 9.07315 93.2955 9.33594C93.7678 9.59517 94.1389 9.94851 94.4088 10.396C94.6787 10.8434 94.8137 11.3441 94.8137 11.8981C94.8137 12.2994 94.7426 12.6882 94.6006 13.0646C94.4621 13.4411 94.2224 13.8601 93.8815 14.3217C93.5406 14.7834 93.0683 15.348 92.4646 16.0156L89.7586 19.0359V19.1051H95.1546V20H88.3737ZM100.895 9.09091V20H99.8993V10.1349H99.8354L97.2786 11.8342V10.8008L99.8567 9.09091H100.895ZM108.166 17.6562V16.8466L113.03 9.09091H113.626V10.4492H113.184L109.28 16.6921V16.7614H115.656V17.6562H108.166ZM113.259 20V17.4006V17.0277V9.09091H114.207V20H113.259ZM118.131 20L123.101 10.055V9.98579H117.375V9.09091H124.145V10.0284L119.181 20H118.131ZM129.423 20.1491C128.656 20.1491 128 19.929 127.457 19.4886C126.917 19.0447 126.502 18.4038 126.211 17.5657C125.923 16.7276 125.779 15.7209 125.779 14.5455C125.779 13.3736 125.923 12.3704 126.211 11.5359C126.502 10.6978 126.919 10.0568 127.462 9.61293C128.009 9.16548 128.663 8.94176 129.423 8.94176C130.183 8.94176 130.834 9.16548 131.377 9.61293C131.924 10.0568 132.342 10.6978 132.629 11.5359C132.92 12.3704 133.066 13.3736 133.066 14.5455C133.066 15.7209 132.92 16.7276 132.629 17.5657C132.342 18.4038 131.926 19.0447 131.383 19.4886C130.843 19.929 130.19 20.1491 129.423 20.1491ZM129.423 19.2543C130.264 19.2543 130.921 18.8441 131.393 18.0238C131.866 17.1999 132.102 16.0405 132.102 14.5455C132.102 13.5511 131.994 12.7024 131.777 11.9993C131.564 11.2926 131.257 10.7528 130.855 10.38C130.458 10.0071 129.98 9.82067 129.423 9.82067C128.588 9.82067 127.933 10.2362 127.457 11.0671C126.981 11.8945 126.743 13.054 126.743 14.5455C126.743 15.5398 126.85 16.3885 127.063 17.0916C127.279 17.7947 127.587 18.331 127.984 18.7003C128.386 19.0696 128.865 19.2543 129.423 19.2543ZM142.643 20.1491C142.036 20.1491 141.493 20.0266 141.013 19.7816C140.538 19.533 140.158 19.1921 139.874 18.7589C139.593 18.3256 139.444 17.8303 139.426 17.2727H140.39C140.422 17.8516 140.65 18.3274 141.072 18.7003C141.495 19.0696 142.018 19.2543 142.643 19.2543C143.13 19.2543 143.563 19.1388 143.943 18.908C144.323 18.6737 144.62 18.354 144.833 17.9492C145.049 17.5408 145.158 17.081 145.158 16.5696C145.154 16.0369 145.039 15.5682 144.811 15.1634C144.584 14.755 144.275 14.4354 143.885 14.2045C143.498 13.9737 143.063 13.8583 142.58 13.8583C142.214 13.8548 141.855 13.9151 141.504 14.0394C141.152 14.1637 140.859 14.3235 140.625 14.5188L139.629 14.391L140.284 9.09091H145.674V9.98579H141.12L140.683 13.6346H140.737C140.978 13.4322 141.271 13.267 141.615 13.1392C141.963 13.0114 142.331 12.9474 142.718 12.9474C143.361 12.9474 143.938 13.1019 144.449 13.4109C144.964 13.7198 145.371 14.146 145.669 14.6893C145.971 15.229 146.122 15.8505 146.122 16.5536C146.122 17.2425 145.971 17.8587 145.669 18.402C145.371 18.9418 144.959 19.3679 144.433 19.6804C143.911 19.9929 143.315 20.1491 142.643 20.1491ZM151.776 20.1491C151.009 20.1491 150.354 19.929 149.811 19.4886C149.271 19.0447 148.855 18.4038 148.564 17.5657C148.276 16.7276 148.133 15.7209 148.133 14.5455C148.133 13.3736 148.276 12.3704 148.564 11.5359C148.855 10.6978 149.273 10.0568 149.816 9.61293C150.363 9.16548 151.016 8.94176 151.776 8.94176C152.536 8.94176 153.188 9.16548 153.731 9.61293C154.278 10.0568 154.695 10.6978 154.983 11.5359C155.274 12.3704 155.42 13.3736 155.42 14.5455C155.42 15.7209 155.274 16.7276 154.983 17.5657C154.695 18.4038 154.28 19.0447 153.736 19.4886C153.197 19.929 152.543 20.1491 151.776 20.1491ZM151.776 19.2543C152.618 19.2543 153.275 18.8441 153.747 18.0238C154.219 17.1999 154.455 16.0405 154.455 14.5455C154.455 13.5511 154.347 12.7024 154.131 11.9993C153.917 11.2926 153.61 10.7528 153.209 10.38C152.811 10.0071 152.334 9.82067 151.776 9.82067C150.942 9.82067 150.286 10.2362 149.811 11.0671C149.335 11.8945 149.097 13.054 149.097 14.5455C149.097 15.5398 149.203 16.3885 149.416 17.0916C149.633 17.7947 149.94 18.331 150.338 18.7003C150.739 19.0696 151.219 19.2543 151.776 19.2543Z" fill="#191919"/>
<path d="M18.5682 17.9616C18.6725 18.146 18.7346 18.3512 18.75 18.5625C18.75 19.6488 14.7269 22.75 14.0494 22.75C14.01 22.75 10.0075 22.6931 4.9925 17.7631C0.05687 12.7425 0 8.74 0 8.70062C0 8.02249 3.10125 4 4.1875 4C4.39874 4.01524 4.60397 4.07719 4.78836 4.18139C4.97275 4.28558 5.13171 4.42941 5.25375 4.6025C5.28125 4.63625 7.96125 8.3825 7.78438 9.39437C7.69813 9.88312 7.36563 10.1625 6.7025 10.7188C6.5925 10.8113 6.335 11.0281 6.15125 11.1962C6.26643 11.5498 6.40679 11.8946 6.57125 12.2281C7.40937 13.9497 8.80033 15.3406 10.5219 16.1788C10.8554 16.3432 11.2002 16.4836 11.5538 16.5988C11.7213 16.4156 11.9381 16.1588 12.0281 16.0513C12.5875 15.385 12.8663 15.0519 13.3544 14.9656C14.3663 14.8025 18.1138 17.4688 18.1469 17.4963C18.32 17.6183 18.4639 17.7772 18.5682 17.9616ZM13.98 21.495C15.2662 20.6757 16.4356 19.6861 17.4562 18.5531C17.4319 18.5312 17.395 18.4975 17.3431 18.4537C16.1555 17.5829 14.8832 16.8337 13.5456 16.2175C13.4463 16.3056 13.1844 16.6175 12.9881 16.8512C12.7244 17.1975 12.4255 17.5154 12.0963 17.8C12.0291 17.8482 11.953 17.8825 11.8724 17.9009C11.7918 17.9193 11.7083 17.9213 11.6269 17.9069C11.0539 17.7746 10.4994 17.5718 9.97626 17.3031C8.00236 16.3422 6.40744 14.7475 5.44626 12.7737C5.17798 12.2505 4.9754 11.6961 4.84313 11.1231C4.82903 11.0417 4.83122 10.9583 4.84956 10.8777C4.8679 10.7971 4.90204 10.721 4.95 10.6537C5.23343 10.3256 5.55012 10.0278 5.895 9.76497C6.1174 9.5875 6.32941 9.39739 6.53 9.19559C5.91317 7.86138 5.16489 6.59198 4.29625 5.40622C4.25375 5.35747 4.22062 5.31997 4.19562 5.29497C3.06299 6.31561 2.07361 7.48475 1.25437 8.7706C1.29749 9.29247 1.72937 12.6606 5.875 16.8812C10.075 21.0069 13.4375 21.45 13.98 21.4962V21.495Z" fill="#191919"/>
<path d="M11.6505 11.0995C10.9475 10.3964 9.99425 10.001 9 10V8.75C10.3256 8.75149 11.5965 9.27875 12.5339 10.2161C13.4712 11.1535 13.9985 12.4244 14 13.75H12.75C12.749 12.7557 12.3536 11.8025 11.6505 11.0995Z" fill="#191919"/>
<path d="M13.859 8.89102C12.5701 7.60217 10.8227 6.87715 9 6.875V5.625C11.1541 5.62748 13.2193 6.4843 14.7425 8.0075C16.2657 9.5307 17.1225 11.5959 17.125 13.75H15.875C15.8729 11.9273 15.1478 10.1799 13.859 8.89102Z" fill="#191919"/>
</svg>
