<svg width="224" height="88" viewBox="0 0 224 88" fill="none" xmlns="http://www.w3.org/2000/svg">
<rect x="0.5" y="0.5" width="223" height="87" fill="white" stroke="white"/>
<path d="M83.0703 48.4943V28.409H88.7011L92.2933 39.642L92.6069 40.7253L93.2912 43.4195L94.1893 40.1979L97.8813 28.409H103.484V48.4943H99.7487V36.3205C99.7487 36.0449 99.7511 35.7693 99.7559 35.4937C99.7606 35.2181 99.8058 34.035 99.8913 31.9442C99.374 33.9041 98.96 35.4088 98.6494 36.4582L98.5707 36.7216C98.5071 36.9326 98.4484 37.122 98.3945 37.2899L94.7737 48.4943H91.7802L88.1594 37.2899L86.6341 31.9442C86.7481 34.149 86.8052 35.6078 86.8052 36.3205V48.4943L83.0703 48.4943ZM107.521 47.5606C106.685 46.7481 106.267 45.6053 106.267 44.1323C106.267 42.5357 106.787 41.3193 107.827 40.483C108.868 39.6467 110.377 39.2191 112.353 39.2001L115.675 39.143V38.359C115.675 37.3516 115.499 36.6033 115.147 36.1138C114.796 35.6244 114.221 35.3797 113.423 35.3797C112.681 35.3797 112.137 35.5484 111.79 35.8857C111.444 36.2231 111.227 36.7814 111.142 37.5607L106.965 37.3611C107.222 35.8596 107.908 34.7216 109.025 33.9471C110.142 33.1725 111.664 32.7853 113.594 32.7853C115.542 32.7853 117.043 33.2652 118.098 34.225C119.153 35.1849 119.681 36.5486 119.681 38.3162V43.9327C119.681 44.7975 119.778 45.3939 119.973 45.7217C120.168 46.0496 120.493 46.2135 120.949 46.2135C121.253 46.2135 121.548 46.185 121.833 46.128V48.2948C121.595 48.3518 121.382 48.4041 121.192 48.4516C121.002 48.4991 120.811 48.5371 120.621 48.5656C120.431 48.5941 120.229 48.6179 120.016 48.6369C119.802 48.6559 119.552 48.6654 119.267 48.6654C118.26 48.6654 117.516 48.4183 117.036 47.9241C116.556 47.43 116.269 46.703 116.174 45.7431H116.088C114.967 47.7673 113.275 48.7795 111.013 48.7795C109.521 48.7795 108.357 48.3732 107.521 47.5606ZM114.014 45.4723C114.532 45.1302 114.938 44.6574 115.233 44.0539C115.528 43.4504 115.675 42.8113 115.675 42.1366V41.3526L113.622 41.3811C112.691 41.4191 112.03 41.5212 111.641 41.6876C111.251 41.8539 110.954 42.1081 110.75 42.4502C110.545 42.7923 110.443 43.2485 110.443 43.8187C110.443 44.5505 110.612 45.0945 110.949 45.4509C111.287 45.8073 111.736 45.9855 112.296 45.9855C112.924 45.9855 113.496 45.8144 114.014 45.4723ZM123.661 48.4943V36.6912C123.661 35.8454 123.649 35.1397 123.625 34.5743C123.602 34.0088 123.575 33.5075 123.547 33.0704H127.367C127.396 33.2414 127.434 33.7617 127.481 34.6313C127.529 35.5009 127.553 36.0782 127.553 36.3633H127.61C127.999 35.2799 128.346 34.5173 128.65 34.0753C128.954 33.6334 129.315 33.3056 129.734 33.0917C130.152 32.8779 130.674 32.771 131.302 32.771C131.815 32.771 132.228 32.8423 132.542 32.9848V36.3348C131.896 36.1922 131.325 36.1209 130.831 36.1209C129.833 36.1209 129.056 36.5248 128.501 37.3326C127.945 38.1404 127.667 39.3378 127.667 40.9249V48.4943L123.661 48.4943ZM136.223 47.7887C135.586 47.1472 135.268 46.1755 135.268 44.8736V35.7788H133.315V33.0704H135.467L136.722 29.4496H139.231V33.0704H142.153V35.7788H139.231V43.7902C139.231 44.5409 139.373 45.0945 139.658 45.4509C139.943 45.8073 140.385 45.9854 140.984 45.9854C141.298 45.9854 141.744 45.9189 142.324 45.7859V48.2663C141.336 48.5894 140.21 48.7509 138.946 48.7509C137.767 48.7509 136.86 48.4302 136.223 47.7887ZM144.694 30.2906V27.3398H148.699V30.2906H144.694ZM144.694 48.4943V33.0704H148.699V48.4943H144.694ZM152.78 48.4943V36.5201C152.78 35.6933 152.768 35.0162 152.744 34.4887C152.72 33.9613 152.694 33.4885 152.665 33.0704H156.486C156.514 33.2509 156.552 33.7332 156.6 34.5173C156.647 35.3013 156.671 35.8406 156.671 36.1352H156.728C157.27 34.9568 157.949 34.1015 158.767 33.5693C159.584 33.0371 160.558 32.771 161.689 32.771C163.324 32.771 164.578 33.2747 165.452 34.2821C166.327 35.2894 166.764 36.7624 166.764 38.7011V48.4943H162.772V39.8415C162.772 37.1331 161.855 35.7788 160.021 35.7788C159.052 35.7788 158.27 36.1946 157.676 37.0262C157.082 37.8577 156.785 38.9245 156.785 40.2264V48.4943H152.78ZM171.742 46.6412C170.374 45.2157 169.689 43.258 169.689 40.7681C169.689 38.2877 170.374 36.3372 171.742 34.9164C173.11 33.4957 175.025 32.7853 177.487 32.7853C180.005 32.7853 181.927 33.4719 183.253 34.8451C184.579 36.2184 185.242 38.1927 185.242 40.7681C185.242 43.2675 184.548 45.2276 183.16 46.6483C181.773 48.0691 179.853 48.7795 177.401 48.7795C174.997 48.7795 173.11 48.0667 171.742 46.6412ZM181.051 40.7681C181.051 38.934 180.751 37.6035 180.152 36.7767C179.554 35.9499 178.684 35.5365 177.544 35.5365C175.111 35.5365 173.895 37.2804 173.895 40.7681C173.895 42.4882 174.191 43.7973 174.785 44.6954C175.379 45.5934 176.237 46.0425 177.358 46.0425C179.82 46.0425 181.051 44.2844 181.051 40.7681Z" fill="#A4A4A4"/>
<path opacity="0.595853" d="M120.896 60.246C120.4 59.6951 120.152 58.9386 120.152 57.9764C120.152 57.0292 120.397 56.2776 120.885 55.7218C121.374 55.1659 122.004 54.888 122.777 54.888C123.276 54.888 123.703 55.0251 124.06 55.2992C124.416 55.5734 124.682 55.9124 124.856 56.3163L124.011 56.593C123.692 56.0196 123.276 55.733 122.762 55.733C122.274 55.733 121.886 55.9361 121.599 56.3424C121.313 56.7487 121.169 57.2934 121.169 57.9764C121.169 58.6694 121.314 59.2178 121.603 59.6216C121.892 60.0254 122.279 60.2273 122.762 60.2273C123.076 60.2273 123.354 60.1326 123.596 59.9431C123.838 59.7537 124.014 59.5219 124.123 59.2477L125.006 59.5243C124.931 59.7038 124.835 59.8771 124.718 60.0441C124.601 60.2111 124.453 60.3756 124.276 60.5376C124.099 60.6996 123.881 60.8293 123.622 60.9265C123.363 61.0237 123.081 61.0723 122.777 61.0723C122.019 61.0723 121.392 60.7969 120.896 60.246ZM126.64 60.9265C126.403 60.8293 126.211 60.7046 126.064 60.5526C125.917 60.4005 125.795 60.2211 125.697 60.0142C125.6 59.8073 125.533 59.6029 125.495 59.401C125.458 59.1991 125.439 58.9934 125.439 58.784C125.439 58.1409 125.609 57.5975 125.948 57.1538C126.287 56.7101 126.783 56.4883 127.436 56.4883C128.084 56.4883 128.578 56.7101 128.917 57.1538C129.256 57.5975 129.425 58.1409 129.425 58.784C129.425 58.9834 129.406 59.1829 129.369 59.3823C129.332 59.5817 129.266 59.7848 129.171 59.9917C129.076 60.1986 128.957 60.3806 128.812 60.5376C128.667 60.6947 128.477 60.823 128.24 60.9228C128.003 61.0225 127.735 61.0723 127.436 61.0723C127.142 61.0723 126.876 61.0237 126.64 60.9265ZM128.146 59.8983C128.351 59.654 128.453 59.2826 128.453 58.784C128.453 58.2755 128.351 57.9004 128.146 57.6586C127.942 57.4168 127.705 57.2959 127.436 57.2959C127.167 57.2959 126.929 57.4168 126.722 57.6586C126.515 57.9004 126.411 58.2755 126.411 58.784C126.411 59.2826 126.514 59.654 126.718 59.8983C126.922 60.1425 127.162 60.2647 127.436 60.2647C127.705 60.2647 127.942 60.1425 128.146 59.8983ZM130.285 60.9377V54.8281H131.227V60.9377H130.285ZM133.288 60.9265C133.051 60.8293 132.859 60.7046 132.712 60.5526C132.565 60.4005 132.443 60.2211 132.345 60.0142C132.248 59.8073 132.181 59.6029 132.143 59.401C132.106 59.1991 132.087 58.9934 132.087 58.784C132.087 58.1409 132.257 57.5975 132.596 57.1538C132.935 56.7101 133.431 56.4883 134.084 56.4883C134.732 56.4883 135.226 56.7101 135.565 57.1538C135.904 57.5975 136.073 58.1409 136.073 58.784C136.073 58.9834 136.054 59.1829 136.017 59.3823C135.98 59.5817 135.914 59.7848 135.819 59.9917C135.724 60.1986 135.605 60.3806 135.46 60.5376C135.315 60.6947 135.125 60.823 134.888 60.9228C134.651 61.0225 134.383 61.0723 134.084 61.0723C133.79 61.0723 133.524 61.0237 133.288 60.9265ZM134.794 59.8983C134.999 59.654 135.101 59.2826 135.101 58.784C135.101 58.2755 134.999 57.9004 134.794 57.6586C134.59 57.4168 134.353 57.2959 134.084 57.2959C133.815 57.2959 133.577 57.4168 133.37 57.6586C133.163 57.9004 133.059 58.2755 133.059 58.784C133.059 59.2826 133.162 59.654 133.366 59.8983C133.57 60.1425 133.81 60.2647 134.084 60.2647C134.353 60.2647 134.59 60.1425 134.794 59.8983ZM136.851 60.9377V56.6229H137.763V57.0865C137.858 56.927 137.994 56.7874 138.171 56.6677C138.348 56.5481 138.558 56.4883 138.803 56.4883C139.032 56.4883 139.219 56.5207 139.363 56.5855V57.4455C139.174 57.3856 138.987 57.3557 138.803 57.3557C138.479 57.3557 138.231 57.4816 138.059 57.7334C137.887 57.9851 137.801 58.3204 137.801 58.7392V60.9377H136.851ZM140.287 60.7956C139.96 60.6112 139.71 60.3594 139.535 60.0403L140.216 59.644C140.515 60.0827 140.904 60.3021 141.383 60.3021C141.617 60.3021 141.803 60.256 141.94 60.1637C142.077 60.0715 142.145 59.9481 142.145 59.7936C142.145 59.6689 142.089 59.5593 141.977 59.4645C141.865 59.3698 141.746 59.2988 141.622 59.2514C141.497 59.2041 141.31 59.1405 141.061 59.0607C141.016 59.0458 140.984 59.0358 140.964 59.0308C140.784 58.971 140.634 58.9124 140.511 58.8551C140.389 58.7978 140.261 58.7205 140.126 58.6233C139.992 58.5261 139.889 58.4039 139.82 58.2568C139.75 58.1098 139.715 57.939 139.715 57.7446C139.715 57.3657 139.874 57.0616 140.194 56.8323C140.513 56.6029 140.909 56.4883 141.383 56.4883C141.737 56.4883 142.071 56.5818 142.385 56.7687C142.699 56.9557 142.933 57.1937 143.088 57.4829L142.459 57.8642C142.165 57.4604 141.809 57.2585 141.39 57.2585C141.161 57.2585 140.985 57.3046 140.863 57.3969C140.741 57.4891 140.68 57.61 140.68 57.7595C140.68 57.8842 140.733 57.9951 140.84 58.0923C140.948 58.1895 141.059 58.2606 141.173 58.3054C141.288 58.3503 141.45 58.4076 141.659 58.4774C141.714 58.4924 141.754 58.5049 141.779 58.5148C142.666 58.799 143.11 59.2277 143.11 59.8011C143.11 60.155 142.962 60.4554 142.665 60.7022C142.368 60.9489 141.948 61.0723 141.405 61.0723C140.986 61.0723 140.614 60.9801 140.287 60.7956ZM146.673 60.9265C146.436 60.8293 146.245 60.7046 146.097 60.5526C145.95 60.4005 145.828 60.2211 145.731 60.0142C145.634 59.8073 145.567 59.6029 145.529 59.401C145.492 59.1991 145.473 58.9934 145.473 58.784C145.473 58.1409 145.643 57.5975 145.982 57.1538C146.321 56.7101 146.817 56.4883 147.47 56.4883C148.118 56.4883 148.611 56.7101 148.95 57.1538C149.289 57.5975 149.459 58.1409 149.459 58.784C149.459 58.9834 149.44 59.1829 149.403 59.3823C149.365 59.5817 149.299 59.7848 149.205 59.9917C149.11 60.1986 148.99 60.3806 148.846 60.5376C148.701 60.6947 148.51 60.823 148.274 60.9228C148.037 61.0225 147.769 61.0723 147.47 61.0723C147.176 61.0723 146.91 61.0237 146.673 60.9265ZM148.18 59.8983C148.385 59.654 148.487 59.2826 148.487 58.784C148.487 58.2755 148.385 57.9004 148.18 57.6586C147.976 57.4168 147.739 57.2959 147.47 57.2959C147.2 57.2959 146.962 57.4168 146.756 57.6586C146.549 57.9004 146.445 58.2755 146.445 58.784C146.445 59.2826 146.547 59.654 146.752 59.8983C146.956 60.1425 147.196 60.2647 147.47 60.2647C147.739 60.2647 147.976 60.1425 148.18 59.8983ZM150.558 60.9377V57.4305H149.9V56.6229H150.558V56.1592C150.558 55.7155 150.669 55.3828 150.891 55.1609C151.113 54.9391 151.426 54.8281 151.829 54.8281H152.51V55.6283H151.964C151.809 55.6283 151.696 55.6756 151.624 55.7704C151.551 55.8651 151.515 56.0171 151.515 56.2265V56.6229H152.413V57.4305H151.515V60.9377H150.558ZM154.88 62.7025V61.9099H155.015C155.239 61.9099 155.423 61.8612 155.565 61.764C155.707 61.6668 155.82 61.4986 155.905 61.2593L156.047 60.833L154.432 56.6229H155.471L156.212 58.8438C156.336 59.2526 156.431 59.5842 156.496 59.8384H156.526C156.551 59.7487 156.643 59.4172 156.802 58.8438L157.483 56.6229H158.515L156.728 61.506C156.568 61.9448 156.362 62.2539 156.111 62.4333C155.859 62.6128 155.546 62.7025 155.172 62.7025L154.88 62.7025ZM160.037 60.9265C159.8 60.8293 159.608 60.7046 159.461 60.5526C159.314 60.4005 159.192 60.2211 159.094 60.0142C158.997 59.8073 158.93 59.6029 158.892 59.401C158.855 59.1991 158.836 58.9934 158.836 58.784C158.836 58.1409 159.006 57.5975 159.345 57.1538C159.684 56.7101 160.18 56.4883 160.833 56.4883C161.481 56.4883 161.975 56.7101 162.314 57.1538C162.653 57.5975 162.822 58.1409 162.822 58.784C162.822 58.9834 162.803 59.1829 162.766 59.3823C162.729 59.5817 162.663 59.7848 162.568 59.9917C162.473 60.1986 162.354 60.3806 162.209 60.5376C162.064 60.6947 161.874 60.823 161.637 60.9228C161.4 61.0225 161.132 61.0723 160.833 61.0723C160.539 61.0723 160.273 61.0237 160.037 60.9265ZM161.543 59.8983C161.748 59.654 161.85 59.2826 161.85 58.784C161.85 58.2755 161.748 57.9004 161.543 57.6586C161.339 57.4168 161.102 57.2959 160.833 57.2959C160.564 57.2959 160.326 57.4168 160.119 57.6586C159.912 57.9004 159.809 58.2755 159.809 58.784C159.809 59.2826 159.911 59.654 160.115 59.8983C160.32 60.1425 160.559 60.2647 160.833 60.2647C161.102 60.2647 161.339 60.1425 161.543 59.8983ZM164.501 60.9938C164.344 60.9414 164.191 60.8567 164.041 60.7395C163.892 60.6224 163.772 60.4466 163.682 60.2123C163.592 59.978 163.548 59.6988 163.548 59.3748V56.6229H164.497V59.2551C164.497 59.9282 164.734 60.2647 165.208 60.2647C165.492 60.2647 165.714 60.1438 165.873 59.902C166.033 59.6602 166.113 59.3723 166.113 59.0383V56.6229H167.055V60.9377H166.142V60.4367H166.135C166.065 60.5912 165.932 60.7358 165.735 60.8704C165.538 61.005 165.292 61.0723 164.998 61.0723C164.824 61.0723 164.658 61.0461 164.501 60.9938ZM168.087 60.9377V56.6229H168.999V57.0865C169.094 56.927 169.23 56.7874 169.407 56.6677C169.584 56.5481 169.794 56.4883 170.038 56.4883C170.268 56.4883 170.455 56.5207 170.599 56.5855V57.4455C170.41 57.3856 170.223 57.3557 170.038 57.3557C169.714 57.3557 169.466 57.4816 169.294 57.7334C169.122 57.9851 169.036 58.3204 169.036 58.7392V60.9377H168.087ZM173.045 60.9377V54.8281H173.987V60.9377H173.045ZM175.146 55.9797V54.9403H176.163V55.9797H175.146ZM175.191 60.9377V56.6229H176.126V60.9377H175.191ZM177.569 60.9377V57.4305H176.911V56.6229H177.569V56.1592C177.569 55.7155 177.68 55.3828 177.902 55.1609C178.124 54.9391 178.436 54.8281 178.84 54.8281H179.521V55.6283H178.975C178.82 55.6283 178.707 55.6756 178.635 55.7704C178.562 55.8651 178.526 56.0171 178.526 56.2265V56.6229H179.423V57.4305H178.526V60.9377H177.569ZM180.362 60.4442C179.981 60.0254 179.79 59.4645 179.79 58.7616C179.79 58.0686 179.981 57.5165 180.362 57.1052C180.743 56.6939 181.223 56.4883 181.801 56.4883C182.37 56.4883 182.838 56.6952 183.207 57.1089C183.576 57.5227 183.761 58.0612 183.761 58.7242C183.761 58.8538 183.753 58.981 183.738 59.1056H180.747C180.747 59.4346 180.846 59.7175 181.042 59.9543C181.239 60.1912 181.51 60.3096 181.854 60.3096C182.093 60.3096 182.304 60.251 182.486 60.1338C182.668 60.0167 182.806 59.8659 182.901 59.6814L183.693 59.9506C183.554 60.2697 183.327 60.5364 183.013 60.7508C182.699 60.9651 182.308 61.0723 181.839 61.0723C181.236 61.0723 180.743 60.8629 180.362 60.4442ZM182.534 57.5987C182.36 57.3669 182.116 57.251 181.801 57.251C181.487 57.251 181.237 57.3694 181.05 57.6062C180.863 57.843 180.767 58.121 180.762 58.44H182.796C182.796 58.111 182.709 57.8306 182.534 57.5987Z" fill="#A4A4A4"/>
<path d="M116.532 5.94358V35.726C116.532 36.011 116.385 36.2747 116.146 36.4193C115.907 36.5639 115.612 36.5677 115.369 36.4295L108.321 32.4049C108.072 32.263 107.918 31.9937 107.917 31.7013V1.91893C107.918 1.63391 108.064 1.3702 108.303 1.22564C108.542 1.08107 108.838 1.07718 109.08 1.21542L116.129 5.24007C116.378 5.38188 116.532 5.65119 116.532 5.94358Z" fill="#A4A4A4"/>
<path d="M128.019 5.94456V35.727C128.018 36.012 127.872 36.2757 127.633 36.4203C127.394 36.5648 127.098 36.5687 126.856 36.4305L119.807 32.4058C119.558 32.264 119.404 31.9947 119.404 31.7023V1.9199C119.404 1.63488 119.551 1.37118 119.79 1.22661C120.029 1.08204 120.324 1.07815 120.567 1.21639L127.615 5.24104C127.864 5.38285 128.018 5.65216 128.019 5.94456Z" fill="#A4A4A4"/>
<path d="M139.503 5.94456V35.727C139.503 36.012 139.356 36.2757 139.117 36.4203C138.878 36.5648 138.582 36.5687 138.34 36.4305L131.292 32.4058C131.043 32.264 130.888 31.9947 130.888 31.7023V1.9199C130.888 1.63488 131.035 1.37118 131.274 1.22661C131.513 1.08204 131.809 1.07815 132.051 1.21639L139.1 5.24104C139.348 5.38285 139.503 5.65216 139.503 5.94456Z" fill="#A4A4A4"/>
</svg>
