<svg width="224" height="88" viewBox="0 0 224 88" fill="none" xmlns="http://www.w3.org/2000/svg">
<rect x="0.5" y="0.5" width="223" height="87" fill="white" stroke="white"/>
<path d="M81.5273 45.2736L84.3574 44.1555C84.9514 46.0422 86.6634 47.1603 89.2139 47.1603C91.5199 47.1603 93.0223 46.182 93.0223 44.47C93.0223 40.0327 82.4358 42.0242 82.4358 35.7003C82.4358 32.5208 85.0562 30.5642 89.1091 30.5642C92.4633 30.5642 94.8741 31.9269 95.6776 34.3726L92.8476 35.4906C92.2536 33.8485 90.9259 33.0799 89.0742 33.0799C86.9429 33.0799 85.72 34.0232 85.72 35.5256C85.72 37.4221 87.9749 37.9878 90.4102 38.7021L90.7287 38.7963C93.4949 39.6216 96.3764 40.7189 96.3764 44.2254C96.3764 47.7193 93.4765 49.7458 89.1091 49.7458C85.3008 49.7458 82.5056 48.2084 81.5273 45.2736ZM113.345 55.6155V46.3217C111.878 48.453 109.537 49.7457 106.637 49.7457C101.431 49.7457 97.5876 45.6579 97.5876 40.1725C97.5876 34.687 101.326 30.5642 106.567 30.5642C109.642 30.5642 112.087 31.9967 113.555 34.3726V30.9486H116.315V55.6155L113.345 55.6155ZM113.45 40.1725C113.45 36.0846 110.795 33.1847 106.986 33.1847C103.283 33.1847 100.523 36.1545 100.523 40.1725C100.523 44.1555 103.283 47.1253 106.986 47.1253C110.83 47.1253 113.45 44.2603 113.45 40.1725ZM119.867 42.3037V30.9486H122.837V41.9543C122.837 45.0639 124.828 47.1253 127.973 47.0904C131.082 47.0904 133.179 44.8543 133.214 42.5134V30.9486H136.184V49.3614H133.354V46.741C132.131 48.453 129.929 49.7457 127.204 49.7457C122.487 49.7457 119.867 46.6711 119.867 42.3037ZM138.827 40.1375C138.827 34.687 142.671 30.7389 147.876 30.7389C150.986 30.7389 153.397 32.1365 154.794 34.5123V30.9486H157.555V49.3614H154.794V45.8326C153.397 48.2783 150.986 49.7457 147.876 49.7457C142.636 49.7457 138.827 45.6579 138.827 40.1375ZM154.69 40.1375C154.69 36.0497 152.069 33.1847 148.226 33.1847C144.522 33.1847 141.762 36.1894 141.762 40.1375C141.762 44.1555 144.522 47.1253 148.226 47.1253C152.034 47.1253 154.69 44.2603 154.69 40.1375ZM161.351 49.3614V30.9486H164.146V33.6389C165.334 31.9269 167.431 30.5642 170.016 30.5642V33.3244C166.662 33.3594 164.321 35.6304 164.321 38.2508V49.3614L161.351 49.3614ZM169.76 40.1725C169.76 34.8268 173.848 30.5293 179.054 30.5293C184.609 30.5293 188.138 34.8967 188.138 39.7532C188.138 40.2773 188.103 40.9062 188.068 41.2556H172.765C173.289 44.6796 175.979 46.9856 179.368 46.9856C182.373 46.9856 184.05 45.8326 184.958 43.7013L187.544 45.2735C186.181 47.894 183.631 49.7807 179.263 49.7807C173.603 49.7807 169.76 45.6579 169.76 40.1725ZM179.159 33.1148C176.049 33.1148 173.359 35.1762 172.8 38.6701H185.098C184.644 35.2111 182.233 33.1148 179.159 33.1148Z" fill="#A4A4A4"/>
<path d="M123.738 60.5475C123.6 60.5079 123.483 60.4472 123.388 60.3653C123.189 60.1906 123.023 59.8494 122.892 59.3417C122.843 59.1588 122.804 59.0224 122.774 58.9323C122.662 58.5911 122.511 58.355 122.321 58.2239C122.132 58.0929 121.844 58.0274 121.459 58.0274C121.377 58.0274 121.246 58.0315 121.066 58.0397L121.038 58.0438V60.0378L121.181 60.1565L121.66 60.1974V60.5414H119.666V60.1974L120.141 60.1565L120.284 60.0378V55.4193L120.141 55.3005L119.666 55.2514V54.9157H121.803C122.488 54.9157 122.996 55.0392 123.326 55.2862C123.657 55.5332 123.822 55.912 123.822 56.4224C123.822 56.7854 123.709 57.0836 123.482 57.317C123.255 57.5504 122.917 57.7162 122.467 57.8145C122.677 57.8718 122.853 57.9462 122.995 58.0376C123.137 58.1291 123.249 58.243 123.331 58.3795C123.423 58.5297 123.502 58.7501 123.568 59.0408C123.633 59.3315 123.685 59.5246 123.724 59.6201C123.808 59.8494 123.924 60.0057 124.072 60.0889C124.219 60.1722 124.466 60.2138 124.813 60.2138H124.886V60.5332C124.761 60.5578 124.645 60.5762 124.538 60.5885C124.432 60.6007 124.331 60.6069 124.235 60.6069C124.042 60.6069 123.876 60.5871 123.738 60.5475ZM122.632 57.3723C122.869 57.1894 122.987 56.896 122.987 56.492C122.987 56.0744 122.865 55.7714 122.622 55.583C122.379 55.3947 121.986 55.3005 121.443 55.3005H121.038V57.6384C121.122 57.6412 121.203 57.6432 121.279 57.6446C121.356 57.6459 121.429 57.6466 121.5 57.6466C122.019 57.6466 122.396 57.5552 122.632 57.3723ZM125.055 60.0439C124.71 59.6631 124.537 59.167 124.537 58.5556C124.537 57.9278 124.718 57.4153 125.08 57.0181C125.441 56.621 125.906 56.4224 126.474 56.4224C126.938 56.4224 127.306 56.5705 127.577 56.8666C127.849 57.1628 127.985 57.5661 127.985 58.0765C127.985 58.1448 127.984 58.1966 127.983 58.2321C127.981 58.2676 127.978 58.3017 127.972 58.3345H125.258V58.4287C125.258 58.9555 125.385 59.3724 125.639 59.6795C125.892 59.9866 126.235 60.1401 126.666 60.1401C126.866 60.1401 127.072 60.1005 127.287 60.0214C127.501 59.9422 127.734 59.8194 127.985 59.6529V60.1155C127.736 60.2793 127.478 60.4035 127.211 60.4881C126.943 60.5728 126.675 60.6151 126.404 60.6151C125.85 60.6151 125.401 60.4247 125.055 60.0439ZM127.235 57.8513C127.235 57.5129 127.161 57.2536 127.012 57.0734C126.864 56.8933 126.647 56.8032 126.363 56.8032C126.085 56.8032 125.844 56.9144 125.641 57.1369C125.437 57.3593 125.323 57.6412 125.299 57.9824H127.235L127.235 57.8513ZM128.71 60.3039C128.515 60.1074 128.418 59.8481 128.418 59.526C128.418 59.1684 128.564 58.8872 128.858 58.6825C129.151 58.4778 129.821 58.2499 130.866 57.9987V57.7326C130.866 57.3805 130.809 57.1362 130.694 56.9997C130.58 56.8632 130.38 56.795 130.096 56.795C129.99 56.795 129.885 56.8059 129.781 56.8277C129.677 56.8496 129.57 56.8823 129.458 56.926V57.6303H128.88C128.779 57.6303 128.71 57.6118 128.674 57.575C128.637 57.5381 128.618 57.4706 128.618 57.3723C128.618 57.0994 128.776 56.8728 129.091 56.6926C129.406 56.5125 129.814 56.4224 130.313 56.4224C130.753 56.4224 131.072 56.518 131.271 56.709C131.471 56.9001 131.57 57.2072 131.57 57.6303V60.0623L131.714 60.1975L132.156 60.2384V60.5414H130.977L130.866 60.0542C130.596 60.2398 130.348 60.3769 130.123 60.4656C129.898 60.5544 129.687 60.5987 129.49 60.5987C129.166 60.5987 128.906 60.5004 128.71 60.3039ZM130.279 60.0541C130.449 59.9914 130.645 59.8972 130.866 59.7716V58.2936C130.165 58.4874 129.704 58.6648 129.484 58.8258C129.265 58.9869 129.155 59.1984 129.155 59.4605C129.155 59.6706 129.215 59.8378 129.337 59.962C129.458 60.0862 129.621 60.1483 129.826 60.1483C129.957 60.1483 130.108 60.1169 130.279 60.0541ZM132.269 60.5414V60.2384L132.765 60.1974L132.908 60.0623V54.932H132.261V54.67L133.285 54.3711H133.604V60.0623L133.756 60.1974L134.235 60.2384V60.5414H132.269ZM136.452 60.5414V60.1974L136.927 60.1565L137.07 60.0378V55.4193L136.927 55.3005L136.452 55.2514V54.9157H140.468V56.1399H139.997L139.879 55.4275L139.764 55.3005H137.823V57.4214H139.199L139.318 57.3027L139.4 56.6926H139.797V58.5392H139.4L139.318 57.9332L139.199 57.8063H137.823V60.1565H140.071L140.19 60.0214L140.333 59.1738H140.767V60.5414L136.452 60.5414ZM141.587 60.5721C141.403 60.5434 141.233 60.4991 141.077 60.439V59.3499H141.479L141.581 60.0623C141.698 60.1306 141.816 60.1811 141.935 60.2138C142.054 60.2466 142.173 60.263 142.293 60.263C142.531 60.263 142.721 60.2009 142.865 60.0767C143.008 59.9525 143.08 59.7894 143.08 59.5874C143.08 59.4181 143.03 59.2782 142.932 59.1677C142.834 59.0571 142.599 58.9173 142.228 58.748C141.808 58.5597 141.522 58.3822 141.37 58.2157C141.219 58.0492 141.143 57.8432 141.143 57.5975C141.143 57.2235 141.273 56.9342 141.532 56.7295C141.791 56.5247 142.157 56.4224 142.629 56.4224C142.817 56.4224 142.993 56.4381 143.155 56.4695C143.318 56.5009 143.47 56.5466 143.612 56.6066V57.5565H143.198L143.133 56.9628C143.021 56.9028 142.914 56.8578 142.813 56.8277C142.712 56.7977 142.611 56.7827 142.51 56.7827C142.292 56.7827 142.121 56.8359 141.999 56.9424C141.876 57.0488 141.814 57.1976 141.814 57.3887C141.814 57.5442 141.863 57.6766 141.962 57.7858C142.06 57.895 142.248 58.0165 142.527 58.1502C142.57 58.1721 142.637 58.2034 142.727 58.2444C143.044 58.3891 143.273 58.5201 143.415 58.6374C143.519 58.7193 143.598 58.8224 143.653 58.9466C143.707 59.0708 143.735 59.2079 143.735 59.3581C143.735 59.7511 143.596 60.0589 143.319 60.2814C143.042 60.5038 142.658 60.615 142.166 60.615C141.964 60.615 141.771 60.6007 141.587 60.5721ZM144.731 60.3837C144.601 60.2623 144.536 60.0405 144.536 59.7184V57.012H144.008V56.75L144.561 56.5084L144.921 55.7264H145.232V56.6189H146.51V57.012H145.232V59.223C145.232 59.586 145.283 59.8296 145.384 59.9538C145.485 60.078 145.666 60.1401 145.928 60.1401C146.018 60.1401 146.112 60.1347 146.209 60.1237C146.306 60.1128 146.406 60.0951 146.51 60.0705V60.3817C146.318 60.4417 146.13 60.4875 145.945 60.5189C145.759 60.5502 145.58 60.5659 145.408 60.5659C145.086 60.5659 144.86 60.5052 144.731 60.3837ZM146.965 60.3039C146.77 60.1074 146.672 59.8481 146.672 59.526C146.672 59.1684 146.819 58.8872 147.112 58.6825C147.406 58.4778 148.075 58.2499 149.121 57.9987V57.7326C149.121 57.3805 149.063 57.1362 148.949 56.9997C148.834 56.8632 148.635 56.795 148.351 56.795C148.244 56.795 148.139 56.8059 148.036 56.8277C147.932 56.8496 147.824 56.8823 147.712 56.926V57.6303H147.135C147.034 57.6303 146.965 57.6118 146.928 57.575C146.891 57.5381 146.873 57.4706 146.873 57.3723C146.873 57.0994 147.03 56.8728 147.346 56.6926C147.661 56.5125 148.068 56.4224 148.568 56.4224C149.007 56.4224 149.327 56.518 149.526 56.709C149.725 56.9001 149.825 57.2072 149.825 57.6303V60.0623L149.968 60.1975L150.41 60.2384V60.5414H149.231L149.121 60.0542C148.85 60.2398 148.603 60.3769 148.378 60.4656C148.152 60.5544 147.941 60.5987 147.745 60.5987C147.42 60.5987 147.16 60.5004 146.965 60.3039ZM148.533 60.0541C148.704 59.9914 148.9 59.8972 149.121 59.7716V58.2936C148.419 58.4874 147.959 58.6648 147.739 58.8258C147.519 58.9869 147.409 59.1984 147.409 59.4605C147.409 59.6706 147.47 59.8378 147.591 59.962C147.713 60.0862 147.876 60.1483 148.081 60.1483C148.212 60.1483 148.363 60.1169 148.533 60.0541ZM151.222 60.3837C151.092 60.2623 151.028 60.0405 151.028 59.7184V57.012H150.499V56.75L151.052 56.5084L151.412 55.7264H151.724V56.6189H153.001V57.012H151.724V59.223C151.724 59.586 151.774 59.8296 151.875 59.9538C151.976 60.078 152.158 60.1401 152.42 60.1401C152.51 60.1401 152.603 60.1347 152.7 60.1237C152.797 60.1128 152.897 60.0951 153.001 60.0705V60.3817C152.81 60.4417 152.622 60.4875 152.436 60.5189C152.25 60.5502 152.072 60.5659 151.9 60.5659C151.578 60.5659 151.352 60.5052 151.222 60.3837ZM153.641 60.0439C153.295 59.6631 153.123 59.167 153.123 58.5556C153.123 57.9278 153.304 57.4153 153.665 57.0181C154.027 56.621 154.492 56.4224 155.059 56.4224C155.524 56.4224 155.891 56.5705 156.163 56.8666C156.435 57.1628 156.57 57.5661 156.57 58.0765C156.57 58.1448 156.57 58.1966 156.568 58.2321C156.567 58.2676 156.563 58.3017 156.558 58.3345H153.843V58.4287C153.843 58.9555 153.97 59.3724 154.224 59.6795C154.478 59.9866 154.821 60.1401 155.252 60.1401C155.451 60.1401 155.658 60.1005 155.872 60.0214C156.086 59.9422 156.319 59.8194 156.57 59.6529V60.1155C156.322 60.2793 156.064 60.4035 155.796 60.4881C155.529 60.5728 155.26 60.6151 154.99 60.6151C154.436 60.6151 153.986 60.4247 153.641 60.0439ZM155.821 57.8513C155.821 57.5129 155.747 57.2536 155.598 57.0734C155.449 56.8933 155.233 56.8032 154.949 56.8032C154.671 56.8032 154.43 56.9144 154.226 57.1369C154.023 57.3593 153.909 57.6412 153.884 57.9824H155.821L155.821 57.8513ZM159.891 60.5741C159.633 60.5277 159.404 60.4609 159.205 60.3735V58.8995H159.7L159.799 59.8617L159.909 60.005C160.032 60.0678 160.173 60.1156 160.331 60.1483C160.489 60.1811 160.661 60.1974 160.847 60.1974C161.237 60.1974 161.546 60.1067 161.774 59.9252C162.002 59.7436 162.116 59.4987 162.116 59.1902C162.116 58.7617 161.715 58.3768 160.912 58.0356C160.825 57.9974 160.758 57.9687 160.712 57.9496C160.138 57.7012 159.759 57.4699 159.573 57.2556C159.388 57.0413 159.295 56.7636 159.295 56.4224C159.295 55.942 159.472 55.5537 159.825 55.2575C160.179 54.9614 160.648 54.8133 161.232 54.8133C161.466 54.8133 161.702 54.8331 161.938 54.8727C162.174 54.9122 162.415 54.9716 162.661 55.0508V56.3487H162.223L162.096 55.5503L161.973 55.4111C161.866 55.351 161.75 55.3067 161.625 55.278C161.499 55.2494 161.363 55.235 161.215 55.235C160.866 55.235 160.589 55.3258 160.384 55.5073C160.179 55.6888 160.077 55.9352 160.077 56.2463C160.077 56.4729 160.149 56.6606 160.292 56.8093C160.435 56.9581 160.755 57.1376 161.252 57.3477C161.299 57.3669 161.368 57.3941 161.461 57.4296C161.95 57.6207 162.302 57.8227 162.517 58.0356C162.64 58.1557 162.732 58.2936 162.794 58.4491C162.855 58.6047 162.886 58.774 162.886 58.9569C162.886 59.4618 162.688 59.8692 162.292 60.179C161.896 60.4888 161.371 60.6438 160.716 60.6438C160.424 60.6438 160.149 60.6205 159.891 60.5741ZM163.943 60.0296C163.579 59.6392 163.397 59.1356 163.397 58.5187C163.397 57.9018 163.577 57.3982 163.939 57.0079C164.301 56.6176 164.768 56.4224 165.341 56.4224C165.912 56.4224 166.38 56.6182 166.746 57.0099C167.112 57.4016 167.294 57.9046 167.294 58.5187C167.294 59.1329 167.111 59.6358 166.744 60.0275C166.377 60.4192 165.909 60.6151 165.341 60.6151C164.774 60.6151 164.308 60.4199 163.943 60.0296ZM166.189 59.7839C166.402 59.47 166.508 59.0483 166.508 58.5187C166.508 57.9947 166.401 57.5743 166.187 57.2577C165.973 56.941 165.691 56.7827 165.341 56.7827C164.992 56.7827 164.712 56.9403 164.5 57.2556C164.288 57.5709 164.183 57.9919 164.183 58.5187C164.183 59.0455 164.289 59.4666 164.502 59.7819C164.715 60.0971 164.995 60.2548 165.341 60.2548C165.693 60.2548 165.976 60.0978 166.189 59.7839ZM167.559 60.5414V60.2384L168.055 60.1974L168.198 60.0623V54.932H167.551V54.67L168.575 54.3711H168.894V60.0623L169.046 60.1974L169.525 60.2384V60.5414H167.559ZM170.517 60.2937C170.324 60.0739 170.228 59.7566 170.228 59.3417V56.9956H169.63V56.7336L170.605 56.4224H170.924V59.1984C170.924 59.5041 170.989 59.7286 171.12 59.8719C171.252 60.0152 171.456 60.0869 171.735 60.0869C171.89 60.0869 172.048 60.0664 172.208 60.0255C172.367 59.9845 172.534 59.9218 172.709 59.8371V56.9956H172.111V56.7336L173.086 56.4224H173.405V60.0623L173.557 60.1974L173.95 60.2384V60.5414H172.709V60.0705C172.447 60.2589 172.205 60.3981 171.982 60.4881C171.76 60.5782 171.549 60.6233 171.35 60.6233C170.987 60.6233 170.709 60.5134 170.517 60.2937ZM174.835 60.3837C174.705 60.2623 174.641 60.0405 174.641 59.7184V57.012H174.112V56.75L174.665 56.5084L175.025 55.7264H175.337V56.6189H176.614V57.012H175.337V59.223C175.337 59.586 175.387 59.8296 175.488 59.9538C175.589 60.078 175.771 60.1401 176.033 60.1401C176.123 60.1401 176.216 60.1347 176.313 60.1237C176.41 60.1128 176.51 60.0951 176.614 60.0705V60.3817C176.423 60.4417 176.235 60.4875 176.049 60.5189C175.863 60.5502 175.685 60.5659 175.513 60.5659C175.191 60.5659 174.965 60.5052 174.835 60.3837ZM177.373 55.4315C177.278 55.3387 177.231 55.2255 177.231 55.0917C177.231 54.9552 177.278 54.8399 177.373 54.7457C177.467 54.6516 177.581 54.6045 177.714 54.6045C177.851 54.6045 177.966 54.6522 178.06 54.7478C178.155 54.8433 178.202 54.9579 178.202 55.0917C178.202 55.2254 178.155 55.3387 178.06 55.4315C177.966 55.5243 177.851 55.5707 177.714 55.5707C177.581 55.5707 177.467 55.5244 177.373 55.4315ZM176.719 60.5414V60.2384L177.162 60.1974L177.305 60.0623V57.0284H176.719V56.7663L177.682 56.4674H178.009V60.0623L178.153 60.1975L178.603 60.2384V60.5414L176.719 60.5414ZM179.349 60.0296C178.985 59.6392 178.802 59.1356 178.802 58.5187C178.802 57.9018 178.983 57.3982 179.345 57.0079C179.707 56.6176 180.174 56.4224 180.747 56.4224C181.318 56.4224 181.786 56.6182 182.152 57.0099C182.517 57.4016 182.7 57.9046 182.7 58.5187C182.7 59.1329 182.517 59.6358 182.15 60.0275C181.782 60.4192 181.315 60.6151 180.747 60.6151C180.18 60.6151 179.713 60.4199 179.349 60.0296ZM181.595 59.7839C181.808 59.47 181.914 59.0483 181.914 58.5187C181.914 57.9947 181.807 57.5743 181.593 57.2577C181.379 56.941 181.097 56.7827 180.747 56.7827C180.398 56.7827 180.117 56.9403 179.906 57.2556C179.694 57.5709 179.589 57.9919 179.589 58.5187C179.589 59.0455 179.695 59.4666 179.908 59.7819C180.121 60.0971 180.401 60.2548 180.747 60.2548C181.099 60.2548 181.382 60.0978 181.595 59.7839ZM182.982 60.5414V60.2384L183.436 60.1974L183.58 60.0623V57.0284H182.982V56.7663L183.956 56.4674H184.276V56.926C184.611 56.7404 184.882 56.6101 185.086 56.535C185.291 56.4599 185.471 56.4224 185.627 56.4224C185.992 56.4224 186.272 56.5316 186.466 56.7499C186.66 56.9683 186.757 57.2849 186.757 57.6998V60.0623L186.9 60.1974L187.35 60.2384V60.5414H185.516V60.2384L185.917 60.1974L186.061 60.0623V57.8431C186.061 57.5292 185.996 57.3068 185.866 57.1758C185.737 57.0447 185.519 56.9792 185.213 56.9792C185.079 56.9792 184.935 57.0017 184.779 57.0468C184.624 57.0918 184.456 57.1607 184.276 57.2536V60.0623L184.419 60.1974L184.82 60.2384V60.5414L182.982 60.5414Z" fill="#A4A4A4"/>
<path fill-rule="evenodd" clip-rule="evenodd" d="M36 27H70.939V61.939H36V27ZM62.0039 35.9348L44.9333 35.9329V53.0051L44.9276 53.0105L44.9278 53.0117H62.0117L62.0103 35.9287L62.0039 35.9348Z" fill="#A4A4A4"/>
</svg>
