<svg width="40" height="40" viewBox="0 0 40 40" fill="none" xmlns="http://www.w3.org/2000/svg">
<path d="M38 25.7714V27.5119C38 28.2185 37.4269 28.7935 36.7225 28.7935C36.6152 28.7935 36.5202 28.8612 36.4862 28.9621C36.3834 29.267 36.2592 29.5677 36.117 29.8558C36.0694 29.952 36.0885 30.0677 36.1645 30.144C36.6628 30.6438 36.6628 31.4569 36.1648 31.9566L34.9379 33.1874C34.4396 33.687 33.6292 33.6869 33.1312 33.1874L33.129 33.1852C33.053 33.1106 32.9386 33.092 32.8438 33.1393C32.5565 33.2821 32.2567 33.4067 31.9528 33.5097C31.8522 33.5437 31.7847 33.6391 31.7847 33.7468C31.7847 34.4534 31.2116 35.0283 30.5072 35.0283H28.7722C28.0678 35.0283 27.4947 34.4535 27.4947 33.7468C27.4947 33.6391 27.4271 33.5438 27.3265 33.5097C27.0225 33.4067 26.7228 33.2821 26.4356 33.1393C26.3397 33.0918 26.2244 33.1109 26.1484 33.1871C26.1469 33.1885 26.1454 33.19 26.1439 33.1916C25.6455 33.6869 24.8382 33.6856 24.3415 33.1874L23.1145 31.9566C22.6165 31.4569 22.6165 30.6438 23.1145 30.1442C23.1908 30.0678 23.2098 29.952 23.1623 29.8558C23.02 29.5678 22.8958 29.2671 22.7931 28.9622C22.7592 28.8612 22.6642 28.7935 22.5568 28.7935C21.8524 28.7935 21.2793 28.2186 21.2793 27.5119V25.7714C21.2793 25.0647 21.8524 24.4898 22.5568 24.4898C22.6641 24.4898 22.7591 24.4221 22.7931 24.3212C22.8959 24.0163 23.0201 23.7156 23.1623 23.4275C23.2099 23.3313 23.1908 23.2155 23.1147 23.1393C22.6165 22.6395 22.6165 21.8264 23.1145 21.3267L24.3414 20.0959C24.8381 19.5976 25.6457 19.5962 26.1441 20.092C26.1456 20.0934 26.147 20.0948 26.1484 20.0962C26.2244 20.1724 26.3398 20.1917 26.4356 20.1439C26.7229 20.0011 27.0227 19.8765 27.3265 19.7736C27.4271 19.7395 27.4947 19.6442 27.4947 19.5364C27.4947 18.8298 28.0677 18.2549 28.7722 18.2549H30.5072C31.2116 18.2549 31.7847 18.8298 31.7847 19.5364C31.7847 19.6442 31.8523 19.7395 31.9528 19.7736C32.2567 19.8765 32.5564 20.0011 32.8438 20.1439C32.9388 20.1911 33.0531 20.1727 33.1291 20.098C33.1298 20.0973 33.1305 20.0966 33.1312 20.0959C33.6293 19.5964 34.4398 19.5964 34.9379 20.0959L36.1648 21.3268C36.6628 21.8264 36.6628 22.6395 36.1648 23.1392C36.0886 23.2156 36.0695 23.3313 36.1169 23.4275C36.2593 23.7156 36.3835 24.0163 36.4862 24.3212C36.5201 24.4221 36.6151 24.4899 36.7225 24.4899C37.4269 24.4899 38 25.0648 38 25.7714ZM36.973 25.7714C36.973 25.6328 36.8607 25.5201 36.7224 25.5201C36.1741 25.5201 35.6882 25.1708 35.5132 24.6508C35.4252 24.3896 35.3187 24.1319 35.1967 23.8849C34.9534 23.3923 35.0504 22.8 35.4383 22.4109C35.5363 22.3127 35.5363 22.1532 35.4385 22.0552L34.2117 20.8244C34.1147 20.7271 33.9571 20.7264 33.8592 20.8226C33.8585 20.8232 33.8578 20.824 33.8571 20.8247C33.4693 21.2136 32.8789 21.3112 32.3878 21.067C32.1416 20.9446 31.8846 20.8378 31.6242 20.7496C31.106 20.574 30.7578 20.0865 30.7578 19.5364C30.7578 19.3978 30.6454 19.285 30.5072 19.285H28.7722C28.6339 19.285 28.5215 19.3978 28.5215 19.5364C28.5215 20.0865 28.1733 20.574 27.655 20.7496C27.3946 20.8379 27.1377 20.9446 26.8915 21.067C26.402 21.3104 25.8138 21.2143 25.4259 20.8284C25.4245 20.8271 25.4232 20.8258 25.4219 20.8245C25.3242 20.7266 25.1653 20.7265 25.0675 20.8245L23.8407 22.0552C23.743 22.1532 23.743 22.3127 23.8407 22.4107C24.2287 22.7999 24.3258 23.3923 24.0826 23.8849C23.9606 24.1319 23.8541 24.3896 23.7661 24.6509C23.5911 25.1708 23.1051 25.5201 22.5568 25.5201C22.4186 25.5201 22.3062 25.6328 22.3062 25.7714V27.512C22.3062 27.6506 22.4186 27.7634 22.5568 27.7634C23.1051 27.7634 23.5911 28.1127 23.7661 28.6327C23.8541 28.8939 23.9606 29.1517 24.0826 29.3987C24.3258 29.8912 24.2287 30.4836 23.8409 30.8726C23.743 30.9708 23.743 31.1303 23.8407 31.2283L25.0676 32.4591C25.1653 32.5572 25.3243 32.5572 25.422 32.4591C25.4234 32.4577 25.4248 32.4563 25.4263 32.4549C25.6712 32.2113 25.996 32.0833 26.3253 32.0833C26.5175 32.0833 26.7111 32.1268 26.8915 32.2164C27.1377 32.3388 27.3947 32.4457 27.6551 32.5339C28.1733 32.7094 28.5216 33.197 28.5216 33.747C28.5216 33.8856 28.6339 33.9984 28.7722 33.9984H30.5072C30.6454 33.9984 30.7578 33.8856 30.7578 33.747C30.7578 33.197 31.106 32.7095 31.6243 32.5339C31.8847 32.4456 32.1416 32.3388 32.3878 32.2164C32.8789 31.9724 33.4693 32.0698 33.8572 32.4588C33.8578 32.4595 33.8585 32.4602 33.8592 32.461C33.9571 32.5571 34.1146 32.5565 34.2117 32.4591L35.4385 31.2283C35.5363 31.1303 35.5363 30.9708 35.4385 30.8728C35.0504 30.4835 34.9534 29.8912 35.1967 29.3986C35.3187 29.1517 35.4252 28.894 35.5132 28.6326C35.6882 28.1128 36.1741 27.7634 36.7225 27.7634C36.8607 27.7634 36.9731 27.6506 36.9731 27.512L36.973 25.7714Z" fill="#191919" stroke="#191919"/>
<path d="M33.5269 26.6419C33.5269 28.7922 31.783 30.5417 29.6394 30.5417C27.4959 30.5417 25.752 28.7922 25.752 26.6419C25.752 24.4916 27.4959 22.7422 29.6394 22.7422C31.783 22.7422 33.5269 24.4916 33.5269 26.6419ZM32.5 26.642C32.5 25.0598 31.2167 23.7725 29.6394 23.7725C28.0622 23.7725 26.7789 25.0598 26.7789 26.642C26.7789 28.2242 28.0621 29.5115 29.6394 29.5115C31.2167 29.5115 32.5 28.2242 32.5 26.642Z" fill="#191919" stroke="#191919"/>
<path d="M23.1712 33.8484C23.3131 34.0948 23.2288 34.4099 22.9833 34.5521L19.377 36.6407C18.55 37.1198 17.5225 37.1197 16.6956 36.6407L4.34073 29.4851C3.51372 29.0062 3 28.1135 3 27.1556V12.8444C3 11.8811 3.52343 10.9882 4.34073 10.5149L16.6956 3.35922C17.5226 2.88022 18.5501 2.88029 19.377 3.35922L31.7318 10.5149C32.5574 10.993 33.0726 11.8908 33.0726 12.8444V18.0941C33.0726 18.3786 32.8428 18.6092 32.5591 18.6092C32.2756 18.6092 32.0457 18.3786 32.0457 18.0941V12.8444C32.0457 12.7281 32.033 12.6135 32.0094 12.5019L18.5498 20.2973V35.8883C18.6578 35.853 18.7631 35.8067 18.8635 35.7486L22.4698 33.6599C22.7153 33.5176 23.0295 33.6021 23.1712 33.8484ZM17.5228 20.2973L4.06326 12.5019C4.03968 12.6135 4.02696 12.728 4.02696 12.8443V27.1556C4.02696 27.7467 4.34394 28.2974 4.85418 28.5929L17.209 35.7486C17.3095 35.8067 17.4147 35.853 17.5228 35.8883L17.5228 20.2973ZM18.0363 19.4052L31.496 11.6098C31.4115 11.5335 31.3188 11.4652 31.2184 11.407L18.8635 4.25137C18.3534 3.95588 17.7194 3.95588 17.209 4.25137L4.85419 11.4069C4.75377 11.4651 4.66121 11.5335 4.57672 11.6097L18.0363 19.4052Z" fill="#191919" stroke="#191919"/>
</svg>
