<svg width="224" height="88" viewBox="0 0 224 88" fill="none" xmlns="http://www.w3.org/2000/svg">
<rect x="0.5" y="0.5" width="223" height="87" fill="white" stroke="white"/>
<path d="M53 56.888C54.0149 56.8221 54.7464 56.6771 55.1945 56.4531C55.9854 56.0445 56.3808 55.2998 56.3808 54.219V34.2508C56.3808 33.2096 56.0051 32.4846 55.2538 32.076C54.8189 31.8388 54.0676 31.674 53 31.5818V30.5537H65.3763C70.3717 30.5537 74.1808 31.8849 76.8037 34.5474C79.1893 36.9725 80.3822 40.2281 80.3822 44.314C80.3822 47.9781 79.1827 51.0821 76.7839 53.6259C74.082 56.486 70.4178 57.9161 65.7915 57.9161H53V56.888ZM62.9248 54.1795C62.9643 55.0098 63.1159 55.6095 63.3795 55.9786C63.6563 56.3476 64.2362 56.5322 65.1193 56.5322C67.5181 56.5322 69.4886 55.6886 71.0307 54.0015C72.5728 52.3013 73.3439 49.0457 73.3439 44.2349C73.3439 41.3748 72.9287 38.9166 72.0983 36.8605C70.7539 33.5522 68.4869 31.8981 65.2973 31.8981C64.2428 31.8981 63.5575 32.1222 63.2411 32.5703C63.0302 32.8603 62.9248 33.4204 62.9248 34.2508L62.9248 54.1795Z" fill="#A4A4A4"/>
<path d="M82.5967 48.6436C82.5967 45.823 83.46 43.4703 85.1866 41.5855C86.9264 39.7007 89.1078 38.7583 91.7307 38.7583C94.4063 38.7583 96.5942 39.7205 98.2945 41.6448C100.008 43.5691 100.865 45.902 100.865 48.6436C100.865 51.3455 100.021 53.6719 98.334 55.6225C96.6469 57.5601 94.4458 58.5288 91.7307 58.5288C89.0946 58.5288 86.9132 57.5864 85.1866 55.7016C83.46 53.8036 82.5967 51.451 82.5967 48.6436ZM88.5476 48.6436C88.5476 51.4773 88.6926 53.461 88.9826 54.5945C89.4439 56.3475 90.3599 57.224 91.7307 57.224C93.0355 57.224 93.8922 56.5518 94.3008 55.2074C94.7094 53.863 94.9137 51.675 94.9137 48.6436C94.9137 45.6253 94.6962 43.4439 94.2613 42.0995C93.8395 40.7419 93.0026 40.0632 91.7504 40.0632C90.3797 40.0632 89.4636 40.9396 89.0023 42.6926C88.6992 43.8657 88.5476 45.8493 88.5476 48.6436Z" fill="#A4A4A4"/>
<path d="M102.684 56.9472C103.461 56.8549 104.002 56.6704 104.305 56.3936C104.608 56.1168 104.773 55.583 104.799 54.7922L104.839 53.606V42.5938C104.839 41.7503 104.694 41.1769 104.404 40.8738C104.114 40.5706 103.54 40.3663 102.684 40.2609V39.2724H110.374V42.4554C111.231 41.3351 112.081 40.4454 112.925 39.7864C113.768 39.1274 114.744 38.7979 115.851 38.7979C116.681 38.7979 117.426 39.0681 118.085 39.6084C118.757 40.1357 119.093 40.9133 119.093 41.9414C119.093 42.7322 118.856 43.3846 118.381 43.8986C117.92 44.4127 117.314 44.6697 116.563 44.6697C115.706 44.6697 114.961 44.2677 114.328 43.4637C113.709 42.6597 113.274 42.2577 113.024 42.2577C112.483 42.2577 111.936 42.5938 111.383 43.266C110.842 43.925 110.572 44.874 110.572 46.1129V53.7641C110.572 55.1085 110.763 55.9521 111.145 56.2948C111.541 56.6243 112.318 56.8417 113.478 56.9472V57.9159H102.684L102.684 56.9472Z" fill="#A4A4A4"/>
<path d="M120.496 56.9472C121.326 56.8813 121.92 56.6968 122.275 56.3936C122.645 56.0905 122.829 55.4578 122.829 54.4957V41.3285H120.496V39.5492H122.829V38.0466C122.829 36.1618 123.126 34.6131 123.719 33.4005C124.839 31.1335 126.908 30 129.927 30C131.535 30 132.892 30.369 133.999 31.1071C135.12 31.8321 135.68 32.7942 135.68 33.9936C135.68 34.7449 135.443 35.3512 134.968 35.8125C134.507 36.2738 133.887 36.5045 133.11 36.5045C132.464 36.5045 131.91 36.2936 131.449 35.8718C130.988 35.4501 130.757 34.9426 130.757 34.3495C130.757 33.9014 130.902 33.4335 131.192 32.9458C131.495 32.445 131.647 32.1418 131.647 32.0364C131.647 31.7069 131.528 31.496 131.291 31.4037C131.054 31.3114 130.797 31.2653 130.52 31.2653C129.861 31.2653 129.353 31.4564 128.997 31.8386C128.642 32.2209 128.464 33.0447 128.464 34.31V39.5491H131.983V41.3285H128.464V53.7641C128.464 55.1613 128.661 56.018 129.057 56.3343C129.465 56.6506 130.362 56.8549 131.746 56.9472V57.916H120.496L120.496 56.9472Z" fill="#A4A4A4"/>
<path d="M141.71 39.2725V53.013C141.71 53.8302 141.809 54.4299 142.007 54.8121C142.35 55.4843 143.029 55.8204 144.043 55.8204C144.689 55.8204 145.322 55.6161 145.941 55.2075C146.297 54.9834 146.745 54.6078 147.286 54.0806V42.5939C147.286 41.7504 147.114 41.1638 146.772 40.8343C146.442 40.4916 145.77 40.3005 144.755 40.261V39.2725H152.822V53.8433C152.822 54.6869 152.98 55.2734 153.296 55.6029C153.612 55.9192 154.232 56.1169 155.154 56.196V57.1252C152.65 57.3625 151.069 57.5404 150.41 57.659C149.764 57.7645 148.722 58.0413 147.286 58.4894V55.8204C146.324 56.6507 145.526 57.2373 144.894 57.58C143.786 58.1863 142.633 58.4894 141.434 58.4894C140.129 58.4894 138.91 58.0742 137.776 57.2439C136.656 56.4135 136.096 54.9373 136.096 52.8153V42.5939C136.096 41.7372 135.957 41.177 135.681 40.9134C135.404 40.6498 134.87 40.4324 134.079 40.261V39.2725L141.71 39.2725Z" fill="#A4A4A4"/>
<path d="M156.993 51.7871H158.12C158.515 53.7246 159.254 55.0953 160.334 55.8993C161.415 56.6902 162.522 57.0856 163.656 57.0856C164.697 57.0856 165.462 56.8549 165.949 56.3936C166.437 55.9191 166.681 55.2996 166.681 54.5352C166.681 53.8103 166.417 53.1908 165.89 52.6767C165.6 52.4 165.132 52.1034 164.486 51.7871L161.481 50.3241C159.899 49.5464 158.766 48.7029 158.081 47.7934C157.382 46.884 157.033 45.8098 157.033 44.5708C157.033 43.0024 157.58 41.6514 158.674 40.5179C159.768 39.3712 161.297 38.7979 163.26 38.7979C164.117 38.7979 165.027 38.9428 165.989 39.2328C166.951 39.5096 167.551 39.648 167.788 39.648C168.117 39.648 168.348 39.5821 168.48 39.4503C168.625 39.3053 168.743 39.1076 168.836 38.8572H169.725V44.7092H168.697C168.315 43.3385 167.689 42.2379 166.819 41.4075C165.949 40.5772 164.934 40.162 163.774 40.162C162.878 40.162 162.206 40.4124 161.758 40.9133C161.323 41.4141 161.105 41.9545 161.105 42.5345C161.105 43.009 161.303 43.4834 161.699 43.9579C162.081 44.4456 162.806 44.9465 163.873 45.4605L166.088 46.5281C167.458 47.1871 168.46 47.8264 169.093 48.4459C170.147 49.5003 170.674 50.7985 170.674 52.3406C170.674 53.8432 170.127 55.2469 169.033 56.5518C167.953 57.8434 166.325 58.4893 164.15 58.4893C163.61 58.4893 163.063 58.43 162.509 58.3113C161.969 58.2059 161.297 58.0148 160.493 57.738L159.801 57.5008C159.55 57.4085 159.392 57.3558 159.326 57.3426C159.273 57.3294 159.201 57.3228 159.109 57.3228C158.885 57.3228 158.687 57.4151 158.516 57.5996C158.357 57.771 158.173 58.0675 157.962 58.4893H156.993L156.993 51.7871Z" fill="#A4A4A4"/>
</svg>
