<svg width="182" height="26" viewBox="0 0 182 26" fill="none" xmlns="http://www.w3.org/2000/svg">
<rect opacity="0.1" x="180.332" width="1" height="25" fill="#191919"/>
<path d="M27.5945 19V10.8182H28.5479V19H27.5945ZM28.0792 9.41193C27.8839 9.41193 27.717 9.34624 27.5785 9.21484C27.44 9.0799 27.3707 8.91832 27.3707 8.73011C27.3707 8.5419 27.44 8.3821 27.5785 8.25071C27.717 8.11577 27.8839 8.04829 28.0792 8.04829C28.2745 8.04829 28.4414 8.11577 28.5799 8.25071C28.7184 8.3821 28.7876 8.5419 28.7876 8.73011C28.7876 8.91832 28.7184 9.0799 28.5799 9.21484C28.4414 9.34624 28.2745 9.41193 28.0792 9.41193ZM32.0036 13.8864V19H31.0555V10.8182H31.977V12.1019H32.0622C32.254 11.6829 32.5523 11.3473 32.9571 11.0952C33.3655 10.8395 33.8698 10.7116 34.4699 10.7116C35.0203 10.7116 35.5033 10.8271 35.9188 11.0579C36.3378 11.2852 36.6627 11.6207 36.8936 12.0646C37.1279 12.5085 37.2451 13.0536 37.2451 13.6999V19H36.297V13.7585C36.297 13.0874 36.1088 12.5565 35.7323 12.1658C35.3595 11.7752 34.8588 11.5799 34.2302 11.5799C33.8005 11.5799 33.4188 11.6722 33.085 11.8569C32.7512 12.0415 32.4866 12.3079 32.2913 12.6559C32.0995 13.0004 32.0036 13.4105 32.0036 13.8864ZM43.1085 10.8182V11.6438H39.0868V10.8182H43.1085ZM40.3439 19V9.61967C40.3439 9.17933 40.4451 8.80824 40.6475 8.50639C40.8535 8.20455 41.1216 7.9755 41.4519 7.81925C41.7821 7.663 42.1319 7.58487 42.5012 7.58487C42.7498 7.58487 42.9558 7.60618 43.1191 7.64879C43.286 7.68785 43.4174 7.72692 43.5133 7.76598L43.2363 8.59695C43.1653 8.57564 43.0783 8.55078 42.9753 8.52237C42.8723 8.49396 42.7427 8.47976 42.5865 8.47976C42.1745 8.47976 41.8567 8.59517 41.633 8.82599C41.4093 9.05682 41.2974 9.38707 41.2974 9.81676L41.2921 19H40.3439ZM47.8439 19.1705C47.1373 19.1705 46.5123 18.9911 45.9689 18.6325C45.4292 18.2738 45.0066 17.7784 44.7012 17.1463C44.3958 16.5107 44.2431 15.7773 44.2431 14.9464C44.2431 14.1083 44.3958 13.3714 44.7012 12.7358C45.0066 12.0966 45.4292 11.5994 45.9689 11.2443C46.5123 10.8857 47.1373 10.7063 47.8439 10.7063C48.5506 10.7063 49.1738 10.8857 49.7136 11.2443C50.2534 11.603 50.676 12.1001 50.9814 12.7358C51.2903 13.3714 51.4448 14.1083 51.4448 14.9464C51.4448 15.7773 51.2921 16.5107 50.9867 17.1463C50.6813 17.7784 50.2569 18.2738 49.7136 18.6325C49.1738 18.9911 48.5506 19.1705 47.8439 19.1705ZM47.8439 18.3022C48.4121 18.3022 48.8933 18.1495 49.2875 17.8441C49.6816 17.5387 49.9799 17.1321 50.1824 16.6243C50.3883 16.1165 50.4913 15.5572 50.4913 14.9464C50.4913 14.3356 50.3883 13.7745 50.1824 13.2631C49.9799 12.7518 49.6816 12.3416 49.2875 12.0327C48.8933 11.7237 48.4121 11.5692 47.8439 11.5692C47.2793 11.5692 46.7981 11.7237 46.4004 12.0327C46.0062 12.3416 45.7061 12.7518 45.5002 13.2631C45.2978 13.7745 45.1966 14.3356 45.1966 14.9464C45.1966 15.5572 45.2978 16.1165 45.5002 16.6243C45.7061 17.1321 46.0062 17.5387 46.4004 17.8441C46.7946 18.1495 47.2757 18.3022 47.8439 18.3022ZM59.5773 21.8817C58.5617 21.8817 57.6491 21.7255 56.8394 21.413C56.0297 21.1005 55.339 20.6495 54.7673 20.06C54.1991 19.4741 53.7623 18.7674 53.4569 17.94C53.1551 17.1126 53.0042 16.1875 53.0042 15.1648C53.0042 14.1634 53.1569 13.2543 53.4623 12.4375C53.7712 11.6207 54.2098 10.9194 54.778 10.3335C55.3497 9.74751 56.0315 9.29652 56.8234 8.98047C57.6189 8.66087 58.5031 8.50107 59.4761 8.50107C60.4278 8.50107 61.2801 8.66797 62.0329 9.00178C62.7858 9.33203 63.4268 9.78303 63.9559 10.3548C64.485 10.9265 64.8881 11.5781 65.165 12.3097C65.4456 13.0376 65.5858 13.7994 65.5858 14.5948C65.5858 15.0991 65.5468 15.5962 65.4687 16.0863C65.3941 16.5763 65.2645 17.0202 65.0798 17.418C64.8952 17.8157 64.6395 18.1335 64.3128 18.3714C63.9861 18.6058 63.5724 18.723 63.0716 18.723C62.8089 18.723 62.5496 18.6804 62.2939 18.5952C62.0418 18.5064 61.8252 18.3626 61.6441 18.1637C61.4665 17.9613 61.3635 17.6914 61.3351 17.354H61.2819C61.1682 17.6097 61.0084 17.8441 60.8025 18.0572C60.5965 18.2667 60.3426 18.4336 60.0407 18.5579C59.7425 18.6822 59.3962 18.739 59.002 18.7283C58.5546 18.7177 58.1515 18.6183 57.7929 18.43C57.4378 18.2418 57.1341 17.9844 56.882 17.6577C56.6334 17.331 56.4434 16.9528 56.3121 16.5231C56.1807 16.0898 56.115 15.6229 56.115 15.1222C56.115 14.6392 56.1878 14.1935 56.3334 13.7852C56.4825 13.3768 56.6867 13.0199 56.9459 12.7145C57.2087 12.4091 57.5159 12.1658 57.8675 11.9847C58.219 11.8036 58.5972 11.6989 59.002 11.6705C59.3643 11.6456 59.6981 11.6811 60.0035 11.777C60.3089 11.8693 60.5681 12.0043 60.7812 12.1818C60.9942 12.3594 61.1469 12.56 61.2393 12.7837H61.2925V11.8196H62.1608V16.7575C62.1608 17.1303 62.2336 17.4215 62.3792 17.631C62.5283 17.837 62.7627 17.94 63.0823 17.94C63.4694 17.94 63.7836 17.8139 64.0251 17.5618C64.2702 17.3061 64.4495 16.9297 64.5631 16.4325C64.6768 15.9318 64.7336 15.3157 64.7336 14.5842C64.7336 14.0302 64.6555 13.494 64.4992 12.9755C64.3465 12.4535 64.1228 11.9705 63.828 11.5266C63.5333 11.0792 63.1711 10.6886 62.7414 10.3548C62.3117 10.0174 61.8199 9.75462 61.2659 9.56641C60.7155 9.3782 60.1047 9.28409 59.4335 9.28409C58.6025 9.28409 57.8479 9.42436 57.1697 9.7049C56.4914 9.98544 55.9072 10.3867 55.4172 10.9087C54.9307 11.4308 54.556 12.054 54.2932 12.7784C54.0305 13.4993 53.8991 14.3036 53.8991 15.1914C53.8991 16.0898 54.0305 16.9013 54.2932 17.6257C54.556 18.3501 54.9342 18.9698 55.4278 19.4847C55.925 19.9996 56.5251 20.3956 57.2282 20.6726C57.9314 20.9496 58.7233 21.0881 59.604 21.0881C59.9946 21.0881 60.3781 21.049 60.7545 20.9709C61.1345 20.8963 61.479 20.804 61.7879 20.6939C62.1004 20.5838 62.3525 20.4755 62.5443 20.369L62.816 21.1147C62.5532 21.2567 62.2407 21.3864 61.8785 21.5036C61.5198 21.6207 61.1398 21.7131 60.7385 21.7805C60.3408 21.848 59.9537 21.8817 59.5773 21.8817ZM59.1139 17.892C59.5969 17.892 60.0035 17.7802 60.3337 17.5565C60.664 17.3327 60.9126 17.0114 61.0795 16.5923C61.2499 16.1733 61.3351 15.669 61.3351 15.0795C61.3351 14.4865 61.2446 13.9982 61.0635 13.6147C60.8859 13.2312 60.632 12.9471 60.3018 12.7624C59.9751 12.5742 59.588 12.4801 59.1405 12.4801C58.7073 12.4801 58.3273 12.5991 58.0006 12.837C57.6775 13.0714 57.4236 13.3857 57.2389 13.7798C57.0578 14.174 56.9672 14.6072 56.9672 15.0795C56.9672 15.5803 57.0471 16.0437 57.2069 16.4698C57.3703 16.896 57.61 17.2404 57.926 17.5032C58.2457 17.7624 58.6416 17.892 59.1139 17.892ZM70.7701 19.1705C70.0385 19.1705 69.4011 18.9876 68.8578 18.6218C68.318 18.256 67.899 17.7553 67.6007 17.1197C67.3024 16.484 67.1532 15.7596 67.1532 14.9464C67.1532 14.1261 67.3042 13.3963 67.606 12.7571C67.9114 12.1179 68.334 11.6172 68.8738 11.255C69.4135 10.8892 70.0403 10.7063 70.7541 10.7063C71.301 10.7063 71.7963 10.8129 72.2402 11.0259C72.6841 11.2354 73.0499 11.532 73.3375 11.9155C73.6287 12.2955 73.8116 12.7393 73.8862 13.2472H72.9274C72.8279 12.7855 72.5882 12.3913 72.2083 12.0646C71.8319 11.7344 71.3525 11.5692 70.7701 11.5692C70.248 11.5692 69.7864 11.7113 69.3851 11.9954C68.9838 12.2759 68.6696 12.6683 68.4423 13.1726C68.2186 13.6733 68.1067 14.2539 68.1067 14.9144C68.1067 15.5785 68.2168 16.1662 68.437 16.6776C68.6571 17.1854 68.9661 17.5831 69.3638 17.8707C69.7651 18.1584 70.2338 18.3022 70.7701 18.3022C71.1323 18.3022 71.4625 18.2347 71.7608 18.0998C72.0627 17.9613 72.3148 17.766 72.5172 17.5138C72.7232 17.2617 72.8617 16.9616 72.9327 16.6136H73.8915C73.8205 17.1072 73.6447 17.5476 73.3642 17.9347C73.0872 18.3182 72.7267 18.62 72.2828 18.8402C71.8425 19.0604 71.3382 19.1705 70.7701 19.1705ZM75.9237 19V10.8182H76.8452V12.0753H76.9144C77.0778 11.6634 77.3619 11.3313 77.7667 11.0792C78.1751 10.8235 78.6367 10.6957 79.1516 10.6957C79.2298 10.6957 79.3168 10.6974 79.4126 10.701C79.5085 10.7045 79.5884 10.7081 79.6523 10.7116V11.6758C79.6097 11.6687 79.5352 11.658 79.4286 11.6438C79.3221 11.6296 79.2067 11.6225 79.0824 11.6225C78.6563 11.6225 78.2763 11.7131 77.9425 11.8942C77.6122 12.0717 77.3512 12.3185 77.1594 12.6346C76.9677 12.9506 76.8718 13.3111 76.8718 13.7159V19H75.9237ZM81.281 19V10.8182H82.2345V19H81.281ZM81.7657 9.41193C81.5704 9.41193 81.4035 9.34624 81.265 9.21484C81.1265 9.0799 81.0573 8.91832 81.0573 8.73011C81.0573 8.5419 81.1265 8.3821 81.265 8.25071C81.4035 8.11577 81.5704 8.04829 81.7657 8.04829C81.961 8.04829 82.1279 8.11577 82.2664 8.25071C82.4049 8.3821 82.4742 8.5419 82.4742 8.73011C82.4742 8.91832 82.4049 9.0799 82.2664 9.21484C82.1279 9.34624 81.961 9.41193 81.7657 9.41193ZM87.9647 10.8182V11.6438H84.0602V10.8182H87.9647ZM85.28 8.85795H86.2335V16.864C86.2335 17.2049 86.2921 17.473 86.4093 17.6683C86.5265 17.8601 86.6792 17.9968 86.8674 18.0785C87.0556 18.1566 87.2562 18.1957 87.4693 18.1957C87.5936 18.1957 87.7001 18.1886 87.7889 18.1744C87.8777 18.1566 87.9558 18.1388 88.0233 18.1211L88.2257 18.9787C88.1333 19.0142 88.0197 19.0462 87.8848 19.0746C87.7498 19.1065 87.5829 19.1225 87.3841 19.1225C87.036 19.1225 86.7005 19.0462 86.3773 18.8935C86.0577 18.7408 85.7949 18.5135 85.589 18.2116C85.383 17.9098 85.28 17.5352 85.28 17.0877V8.85795ZM93.2101 19.1705C92.5035 19.1705 91.8785 18.9911 91.3351 18.6325C90.7954 18.2738 90.3728 17.7784 90.0674 17.1463C89.762 16.5107 89.6093 15.7773 89.6093 14.9464C89.6093 14.1083 89.762 13.3714 90.0674 12.7358C90.3728 12.0966 90.7954 11.5994 91.3351 11.2443C91.8785 10.8857 92.5035 10.7063 93.2101 10.7063C93.9168 10.7063 94.54 10.8857 95.0798 11.2443C95.6196 11.603 96.0422 12.1001 96.3476 12.7358C96.6565 13.3714 96.811 14.1083 96.811 14.9464C96.811 15.7773 96.6583 16.5107 96.3529 17.1463C96.0475 17.7784 95.6231 18.2738 95.0798 18.6325C94.54 18.9911 93.9168 19.1705 93.2101 19.1705ZM93.2101 18.3022C93.7783 18.3022 94.2595 18.1495 94.6537 17.8441C95.0479 17.5387 95.3461 17.1321 95.5486 16.6243C95.7545 16.1165 95.8575 15.5572 95.8575 14.9464C95.8575 14.3356 95.7545 13.7745 95.5486 13.2631C95.3461 12.7518 95.0479 12.3416 94.6537 12.0327C94.2595 11.7237 93.7783 11.5692 93.2101 11.5692C92.6455 11.5692 92.1643 11.7237 91.7666 12.0327C91.3724 12.3416 91.0724 12.7518 90.8664 13.2631C90.664 13.7745 90.5628 14.3356 90.5628 14.9464C90.5628 15.5572 90.664 16.1165 90.8664 16.6243C91.0724 17.1321 91.3724 17.5387 91.7666 17.8441C92.1608 18.1495 92.642 18.3022 93.2101 18.3022ZM99.6488 19.0799C99.4393 19.0799 99.2582 19.0053 99.1055 18.8562C98.9563 18.7035 98.8817 18.5224 98.8817 18.3129C98.8817 18.0998 98.9563 17.9187 99.1055 17.7695C99.2582 17.6204 99.4393 17.5458 99.6488 17.5458C99.8619 17.5458 100.043 17.6204 100.192 17.7695C100.341 17.9187 100.416 18.0998 100.416 18.3129C100.416 18.4513 100.38 18.5792 100.309 18.6964C100.242 18.8136 100.15 18.9077 100.032 18.9787C99.9187 19.0462 99.7908 19.0799 99.6488 19.0799ZM106.117 19.1705C105.385 19.1705 104.748 18.9876 104.204 18.6218C103.665 18.256 103.246 17.7553 102.947 17.1197C102.649 16.484 102.5 15.7596 102.5 14.9464C102.5 14.1261 102.651 13.3963 102.953 12.7571C103.258 12.1179 103.681 11.6172 104.22 11.255C104.76 10.8892 105.387 10.7063 106.101 10.7063C106.648 10.7063 107.143 10.8129 107.587 11.0259C108.031 11.2354 108.397 11.532 108.684 11.9155C108.975 12.2955 109.158 12.7393 109.233 13.2472H108.274C108.175 12.7855 107.935 12.3913 107.555 12.0646C107.179 11.7344 106.699 11.5692 106.117 11.5692C105.595 11.5692 105.133 11.7113 104.732 11.9954C104.331 12.2759 104.016 12.6683 103.789 13.1726C103.565 13.6733 103.453 14.2539 103.453 14.9144C103.453 15.5785 103.563 16.1662 103.784 16.6776C104.004 17.1854 104.313 17.5831 104.71 17.8707C105.112 18.1584 105.581 18.3022 106.117 18.3022C106.479 18.3022 106.809 18.2347 107.108 18.0998C107.409 17.9613 107.661 17.766 107.864 17.5138C108.07 17.2617 108.208 16.9616 108.279 16.6136H109.238C109.167 17.1072 108.991 17.5476 108.711 17.9347C108.434 18.3182 108.073 18.62 107.63 18.8402C107.189 19.0604 106.685 19.1705 106.117 19.1705ZM114.45 19.1705C113.744 19.1705 113.119 18.9911 112.575 18.6325C112.036 18.2738 111.613 17.7784 111.308 17.1463C111.002 16.5107 110.85 15.7773 110.85 14.9464C110.85 14.1083 111.002 13.3714 111.308 12.7358C111.613 12.0966 112.036 11.5994 112.575 11.2443C113.119 10.8857 113.744 10.7063 114.45 10.7063C115.157 10.7063 115.78 10.8857 116.32 11.2443C116.86 11.603 117.282 12.1001 117.588 12.7358C117.897 13.3714 118.051 14.1083 118.051 14.9464C118.051 15.7773 117.899 16.5107 117.593 17.1463C117.288 17.7784 116.863 18.2738 116.32 18.6325C115.78 18.9911 115.157 19.1705 114.45 19.1705ZM114.45 18.3022C115.019 18.3022 115.5 18.1495 115.894 17.8441C116.288 17.5387 116.586 17.1321 116.789 16.6243C116.995 16.1165 117.098 15.5572 117.098 14.9464C117.098 14.3356 116.995 13.7745 116.789 13.2631C116.586 12.7518 116.288 12.3416 115.894 12.0327C115.5 11.7237 115.019 11.5692 114.45 11.5692C113.886 11.5692 113.405 11.7237 113.007 12.0327C112.613 12.3416 112.313 12.7518 112.107 13.2631C111.904 13.7745 111.803 14.3356 111.803 14.9464C111.803 15.5572 111.904 16.1165 112.107 16.6243C112.313 17.1321 112.613 17.5387 113.007 17.8441C113.401 18.1495 113.882 18.3022 114.45 18.3022ZM120.133 19V10.8182H121.054V12.0753H121.139C121.303 11.6527 121.574 11.3207 121.954 11.0792C122.338 10.8342 122.798 10.7116 123.334 10.7116C123.899 10.7116 124.362 10.8448 124.724 11.1112C125.09 11.3739 125.363 11.7362 125.545 12.1978H125.614C125.798 11.7433 126.099 11.3828 126.514 11.1165C126.933 10.8466 127.441 10.7116 128.037 10.7116C128.797 10.7116 129.398 10.9513 129.838 11.4308C130.278 11.9066 130.498 12.6026 130.498 13.5188V19H129.55V13.5188C129.55 12.8725 129.385 12.3878 129.055 12.0646C128.725 11.7415 128.29 11.5799 127.75 11.5799C127.125 11.5799 126.644 11.7717 126.306 12.1552C125.969 12.5387 125.8 13.0252 125.8 13.6147V19H124.831V13.4336C124.831 12.8796 124.676 12.4322 124.367 12.0913C124.058 11.7504 123.623 11.5799 123.062 11.5799C122.686 11.5799 122.347 11.6722 122.045 11.8569C121.747 12.0415 121.51 12.299 121.336 12.6293C121.166 12.956 121.081 13.3324 121.081 13.7585V19H120.133Z" fill="#191919"/>
<path d="M13.0675 9.98578C13.3167 9.74692 13.7123 9.7553 13.9512 10.0045C14.1901 10.2537 14.1817 10.6493 13.9325 10.8882L13.0675 9.98578ZM17.0354 10.4447C17.0312 10.0996 17.3075 9.8163 17.6527 9.81203C17.9978 9.80776 18.2811 10.0841 18.2853 10.4293L17.0354 10.4447ZM11.8408 4.00605C12.186 4.01018 12.4624 4.29334 12.4583 4.6385C12.4542 4.98365 12.171 5.2601 11.8258 5.25596L11.8408 4.00605ZM2.99884 9.17438L1.3914 7.56694L2.27528 6.68306L3.88272 8.2905L2.99884 9.17438ZM3.88272 8.2905C5.2841 9.69188 6.29163 10.6975 7.16064 11.3606C8.01527 12.0126 8.66202 12.2741 9.33335 12.2741V13.5241C8.27877 13.5241 7.36819 13.0912 6.40242 12.3543C5.45107 11.6285 4.37524 10.5507 2.99884 9.17438L3.88272 8.2905ZM8.50001 4H10.1667V5.25H8.50001V4ZM10.1667 20.25H8.50001V19H10.1667V20.25ZM8.50001 20.25C6.95154 20.25 5.73999 20.2508 4.78041 20.1469C3.80913 20.0417 3.02214 19.8231 2.35021 19.3348L3.08494 18.3236C3.50828 18.6312 4.05012 18.8104 4.91505 18.9042C5.79168 18.9992 6.9237 19 8.50001 19V20.25ZM1.62501 12.125C1.62501 13.7013 1.62587 14.8333 1.72084 15.71C1.81455 16.5749 1.99383 17.1167 2.30141 17.5401L1.29013 18.2748C0.80194 17.6028 0.58335 16.8159 0.47811 15.8446C0.37414 14.885 0.375 13.6735 0.375 12.125H1.62501ZM2.35021 19.3348C1.94342 19.0393 1.58568 18.6816 1.29013 18.2748L2.30141 17.5401C2.51986 17.8407 2.78427 18.1052 3.08494 18.3236L2.35021 19.3348ZM18.2917 12.125C18.2917 13.6735 18.2925 14.885 18.1886 15.8446C18.0833 16.8159 17.8648 17.6028 17.3765 18.2748L16.3653 17.5401C16.6729 17.1167 16.8521 16.5749 16.9459 15.71C17.0409 14.8333 17.0417 13.7013 17.0417 12.125H18.2917ZM10.1667 19C11.743 19 12.875 18.9992 13.7517 18.9042C14.6166 18.8104 15.1584 18.6312 15.5818 18.3236L16.3165 19.3348C15.6445 19.8231 14.8576 20.0417 13.8863 20.1469C12.9267 20.2508 11.7152 20.25 10.1667 20.25V19ZM17.3765 18.2748C17.081 18.6816 16.7233 19.0393 16.3165 19.3348L15.5818 18.3236C15.8824 18.1052 16.1468 17.8407 16.3653 17.5401L17.3765 18.2748ZM8.50001 5.25C6.9237 5.25 5.79167 5.25086 4.91504 5.34583C4.05011 5.43954 3.50827 5.61882 3.08493 5.9264L2.3502 4.91513C3.02214 4.42694 3.80913 4.20835 4.78041 4.10311C5.73999 3.99914 6.95154 4 8.50001 4V5.25ZM3.08493 5.9264C2.78426 6.14485 2.51986 6.40926 2.30141 6.70993L1.29013 5.9752C1.58568 5.56842 1.94341 5.21068 2.3502 4.91513L3.08493 5.9264ZM13.9325 10.8882C12.2393 12.5111 10.9424 13.5241 9.33335 13.5241V12.2741C10.3777 12.2741 11.3358 11.6457 13.0675 9.98578L13.9325 10.8882ZM17.0417 12.125C17.0417 11.5023 17.0417 10.9467 17.0354 10.4447L18.2853 10.4293C18.2917 10.9405 18.2917 11.5044 18.2917 12.125H17.0417ZM10.1667 4C10.7786 4 11.3354 3.99999 11.8408 4.00605L11.8258 5.25596C11.3293 5.25001 10.7806 5.25 10.1667 5.25V4ZM18.2917 6.29167C18.2917 7.55732 17.2657 8.58334 16 8.58334V7.33334C16.5753 7.33334 17.0417 6.86697 17.0417 6.29167L18.2917 6.29167ZM16 8.58334C14.7343 8.58334 13.7083 7.55731 13.7083 6.29166H14.9583C14.9583 6.86696 15.4247 7.33334 16 7.33334V8.58334ZM13.7083 6.29166C13.7083 5.02601 14.7343 4 16 4V5.25C15.4247 5.25 14.9583 5.71636 14.9583 6.29166H13.7083ZM16 4C17.2657 4 18.2917 5.02602 18.2917 6.29167L17.0417 6.29167C17.0417 5.71637 16.5754 5.25 16 5.25V4ZM0.375 12.125C0.375 10.7803 0.3746 9.69271 0.44148 8.80753C0.50846 7.92088 0.64597 7.17815 0.9545 6.53788L2.08058 7.0805C1.87158 7.51424 1.75032 8.07578 1.68793 8.9017C1.62542 9.72911 1.62501 10.7623 1.62501 12.125H0.375ZM0.9545 6.53788C1.05012 6.33945 1.16129 6.15254 1.29013 5.9752L2.30141 6.70993C2.21762 6.82526 2.14458 6.94769 2.08058 7.0805L0.9545 6.53788ZM2.27528 6.68306L1.95948 6.36725L1.0756 7.25113L1.3914 7.56694L2.27528 6.68306Z" fill="#191919"/>
<path d="M3.44039 9.60735L3.88233 9.16541L3.44039 9.60735ZM1.83294 7.99991L2.27488 7.55797L1.83294 7.99991ZM2.71717 19.7042L3.08454 19.1985L2.71717 19.7042ZM1.79537 18.7823L1.28974 19.1497L1.79537 18.7823ZM16.8705 18.7823L16.3649 18.415L16.8705 18.7823ZM15.9487 19.7042L15.5814 19.1985L15.9487 19.7042ZM2.71717 6.29567L2.3498 5.79004L2.71717 6.29567ZM1.79537 7.21747L1.28974 6.8501L1.79537 7.21747ZM1.51714 7.6841L0.954102 7.41279L1.51714 7.6841Z" fill="#191919"/>
</svg>
