<svg width="224" height="88" viewBox="0 0 224 88" fill="none" xmlns="http://www.w3.org/2000/svg">
<rect x="0.5" y="0.5" width="223" height="87" fill="white" stroke="white"/>
<path fill-rule="evenodd" clip-rule="evenodd" d="M52.9634 25.1211V32.4863L32 49.8113V42.4461L52.9634 25.1211Z" fill="#A4A4A4"/>
<path fill-rule="evenodd" clip-rule="evenodd" d="M52.9634 39.5625V46.9277L32 64.2527V56.8877L52.9634 39.5625Z" fill="#A4A4A4"/>
<path fill-rule="evenodd" clip-rule="evenodd" d="M62.2817 25.1211V32.4863L41.3184 49.8113V42.4461L62.2817 25.1211Z" fill="#A4A4A4"/>
<path fill-rule="evenodd" clip-rule="evenodd" d="M62.2817 39.5625V46.9277L41.3184 64.2527V56.8877L62.2817 39.5625Z" fill="#A4A4A4"/>
<path d="M77.8046 46.8264C75.5299 44.5517 74.3926 41.5889 74.3926 37.9381C74.3926 34.3213 75.5555 31.424 77.8814 29.246C80.2072 27.068 83.2922 25.979 87.1364 25.979C88.2965 25.979 89.4936 26.0756 90.7276 26.269C91.9616 26.4623 93.2269 26.7524 94.5234 27.139V33.0759H91.9644L91.2991 29.3739L90.7702 28.7427C90.3153 28.5493 89.849 28.4072 89.3713 28.3162C88.8936 28.2252 88.3932 28.1797 87.87 28.1797C85.2541 28.1797 83.1984 29.0469 81.7028 30.7814C80.2072 32.5158 79.4594 34.9014 79.4594 37.9381C79.4594 41.0544 80.2243 43.4911 81.754 45.2483C83.2837 47.0055 85.4077 47.8841 88.1259 47.8841C88.3079 47.8841 88.5638 47.8755 88.8936 47.8585C89.2234 47.8414 89.6045 47.8158 90.0366 47.7817V40.6506L89.4907 40.1729L86.8976 40.0023V38.2793H97.0995V40.0023L95.0693 40.1729L94.5234 40.6506V48.8053C93.1472 49.283 91.8109 49.6413 90.5143 49.8801C89.2178 50.1189 87.9439 50.2384 86.6929 50.2384C83.042 50.2384 80.0793 49.101 77.8046 46.8264ZM100.345 47.6708C98.7356 46.0615 97.9309 43.9432 97.9309 41.316C97.9309 38.6205 98.7555 36.4567 100.405 34.8246C102.054 33.1925 104.243 32.3765 106.973 32.3765C109.657 32.3765 111.789 33.1868 113.37 34.8075C114.951 36.4283 115.742 38.6205 115.742 41.3842C115.742 44.0001 114.917 46.1041 113.268 47.6964C111.619 49.2887 109.429 50.0848 106.7 50.0848C104.073 50.0848 101.954 49.2802 100.345 47.6708ZM109.856 46.434C110.572 45.2284 110.931 43.511 110.931 41.2818C110.931 39.064 110.57 37.3353 109.847 36.0956C109.125 34.8559 108.121 34.236 106.836 34.236C105.562 34.236 104.567 34.8445 103.851 36.0614C103.134 37.2784 102.776 38.9844 102.776 41.1795C102.776 43.4086 103.131 45.1431 103.842 46.3828C104.553 47.6225 105.54 48.2423 106.802 48.2423C108.121 48.2423 109.139 47.6395 109.856 46.434ZM122.339 49.8119L118.467 49.7436V27.0026H115.942V25.6378L121.128 24H122.8V33.9801C123.755 33.4456 124.648 33.0504 125.478 32.7945C126.309 32.5386 127.105 32.4106 127.867 32.4106C129.88 32.4106 131.529 33.1499 132.814 34.6284C134.099 36.107 134.742 38.012 134.742 40.3435C134.742 42.368 134.273 44.1167 133.335 45.5895C132.396 47.0624 131.029 48.2025 129.232 49.01C128.595 49.283 127.79 49.4849 126.818 49.6157C125.845 49.7465 124.671 49.8119 123.295 49.8119H122.339ZM128.575 46.3231C129.57 45.2369 130.068 43.5451 130.068 41.2477C130.068 39.2801 129.63 37.7703 128.754 36.7183C127.878 35.6662 126.627 35.1402 125.001 35.1402C124.705 35.1402 124.378 35.163 124.02 35.2084C123.661 35.2539 123.255 35.3222 122.8 35.4132V47.9182C122.925 47.9296 123.067 47.9381 123.226 47.9438C123.386 47.9495 123.613 47.9523 123.909 47.9523C126.024 47.9523 127.58 47.4092 128.575 46.3231ZM138.346 47.6708C136.736 46.0615 135.932 43.9432 135.932 41.316C135.932 38.6205 136.756 36.4567 138.405 34.8246C140.054 33.1925 142.244 32.3765 144.973 32.3765C147.658 32.3765 149.79 33.1868 151.371 34.8075C152.952 36.4283 153.742 38.6205 153.742 41.3842C153.742 44.0001 152.918 46.1041 151.269 47.6964C149.619 49.2887 147.43 50.0848 144.7 50.0848C142.073 50.0848 139.955 49.2802 138.346 47.6708ZM147.857 46.434C148.573 45.2284 148.931 43.511 148.931 41.2818C148.931 39.064 148.57 37.3353 147.848 36.0956C147.126 34.8559 146.122 34.236 144.837 34.236C143.563 34.236 142.568 34.8445 141.851 36.0614C141.135 37.2784 140.777 38.9844 140.777 41.1795C140.777 43.4086 141.132 45.1431 141.843 46.3828C142.554 47.6225 143.54 48.2423 144.803 48.2423C146.122 48.2423 147.14 47.6395 147.857 46.434ZM154.71 49.8119V48.2423L156.502 48.1059L156.996 47.577V35.5155H154.608V34.1166L159.641 32.4788H161.33V34.5431C162.66 33.8038 163.809 33.2636 164.776 32.9224C165.742 32.5812 166.584 32.4106 167.301 32.4106C168.893 32.4106 170.081 32.8883 170.866 33.8436C171.651 34.799 172.043 36.2548 172.043 38.211V47.577L172.504 48.1058L174.346 48.2423V49.8119H165.799V48.2423L167.301 48.1058L167.778 47.577V39.2176C167.778 37.921 167.528 36.9685 167.028 36.36C166.527 35.7515 165.731 35.4473 164.639 35.4473C164.218 35.4473 163.732 35.4985 163.181 35.6008C162.629 35.7032 162.012 35.851 161.329 36.0444V47.577L161.807 48.1058L163.343 48.2423V49.8119L154.71 49.8119ZM176.287 48.848C175.434 48.0006 175.007 46.9116 175.007 45.581C175.007 43.9432 175.633 42.6808 176.884 41.7936C178.135 40.9065 181.052 39.9455 185.636 38.9105V37.8698C185.636 36.6074 185.368 35.6861 184.834 35.1061C184.299 34.5261 183.458 34.236 182.309 34.236C182.059 34.236 181.797 34.2531 181.524 34.2872C181.251 34.3213 180.955 34.3725 180.637 34.4408V37.7163H177.413C176.855 37.7163 176.449 37.6139 176.193 37.4092C175.937 37.2045 175.809 36.8803 175.809 36.4368C175.809 35.3449 176.543 34.3953 178.01 33.5878C179.477 32.7802 181.28 32.3765 183.418 32.3765C185.818 32.3765 187.506 32.8371 188.485 33.7584C189.463 34.6796 189.952 36.2832 189.952 38.5693V47.6111L190.412 48.1059L192.272 48.2765V49.8119H186.045L185.584 47.8158C184.402 48.6234 183.327 49.2091 182.36 49.573C181.393 49.937 180.466 50.119 179.579 50.119C178.237 50.119 177.14 49.6953 176.287 48.848ZM183.716 47.1761C184.279 46.9998 184.902 46.7354 185.584 46.3828V40.6847C183.287 41.1965 181.717 41.7538 180.876 42.3566C180.034 42.9594 179.613 43.7783 179.613 44.8133C179.613 45.6208 179.846 46.2605 180.313 46.7325C180.779 47.2045 181.41 47.4405 182.206 47.4405C182.65 47.4405 183.153 47.3524 183.716 47.1761Z" fill="#A4A4A4"/>
<path d="M75.9881 62.3901V61.9888L76.6521 61.941L76.8097 61.8025V59.7294L74.8608 56.314L74.2637 56.2184V55.8267H76.5374V56.2184L75.9785 56.2757L75.8782 56.3856L77.3782 59.075L79.0214 56.462L78.9306 56.3235L78.3335 56.2184V55.8267H80.3302V56.2184L79.7331 56.3426L77.6982 59.6004V61.8025L77.8558 61.941L78.5198 61.9888V62.3901L75.9881 62.3901ZM79.8632 61.793C79.4381 61.3376 79.2255 60.75 79.2255 60.0303C79.2255 59.3106 79.4365 58.7231 79.8584 58.2677C80.2804 57.8123 80.8258 57.5846 81.4945 57.5846C82.1601 57.5846 82.7062 57.8131 83.133 58.2701C83.5597 58.727 83.773 59.3138 83.773 60.0303C83.773 60.7468 83.5589 61.3336 83.1306 61.7906C82.7022 62.2476 82.1569 62.476 81.4945 62.476C80.8321 62.476 80.2883 62.2484 79.8632 61.793ZM82.4833 61.5064C82.7317 61.1401 82.8559 60.6481 82.8559 60.0303C82.8559 59.4189 82.7309 58.9285 82.4809 58.5591C82.2309 58.1896 81.9021 58.0049 81.4945 58.0049C81.0869 58.0049 80.7597 58.1889 80.5129 58.5567C80.2661 58.9245 80.1427 59.4157 80.1427 60.0303C80.1427 60.6449 80.2669 61.1361 80.5153 61.504C80.7636 61.8718 81.0901 62.0557 81.4945 62.0557C81.9053 62.0557 82.2349 61.8726 82.4833 61.5064ZM85.0973 62.1011C84.8728 61.8447 84.7606 61.4745 84.7606 60.9905V58.2533H84.0631V57.9476L85.2 57.5846H85.5726V60.8233C85.5726 61.1799 85.649 61.4419 85.8019 61.609C85.9548 61.7762 86.1936 61.8598 86.5184 61.8598C86.6999 61.8598 86.8839 61.8359 87.0701 61.7882C87.2564 61.7404 87.4515 61.6672 87.6553 61.5684V58.2533H86.9579V57.9476L88.0948 57.5846H88.4674V61.8312L88.6441 61.9888L89.1027 62.0366V62.39H87.6553V61.8407C87.3496 62.0604 87.0669 62.2229 86.8074 62.328C86.5479 62.433 86.3019 62.4856 86.0694 62.4856C85.6458 62.4856 85.3218 62.3574 85.0973 62.1011ZM89.3403 62.3901V62.0366L89.8609 61.9888L90.0281 61.8312V58.2916H89.3403V57.9858L90.4771 57.6371H90.8497V58.5543C91.009 58.3919 91.1754 58.2318 91.3489 58.0742C91.5225 57.9166 91.7048 57.7613 91.8959 57.6085C91.9245 57.5989 91.9556 57.5926 91.989 57.5894C92.0224 57.5862 92.0726 57.5846 92.1395 57.5846C92.2382 57.5846 92.3353 57.5949 92.4309 57.6156C92.5264 57.6363 92.6251 57.669 92.727 57.7136V58.5543H92.4165C92.3528 58.4778 92.2788 58.4197 92.1944 58.3799C92.11 58.3401 92.0169 58.3202 91.915 58.3202C91.7589 58.3202 91.5941 58.3783 91.4206 58.4946C91.247 58.6108 91.0567 58.7915 90.8497 59.0367V61.8312L91.0169 61.9888L91.7 62.0366V62.3901L89.3403 62.3901ZM96.4934 62.3901V61.9888L97.1478 61.941L97.315 61.8025V56.2757H95.8199L95.6813 56.4238L95.5428 57.3314H95.0078V55.8267H100.535V57.3314H99.9948L99.861 56.4238L99.7225 56.2757H98.2274V61.8025L98.3898 61.941L99.049 61.9888V62.3901H96.4934ZM99.9457 62.3901V62.0366L100.466 61.9888L100.634 61.8312V58.2916H99.9457V57.9858L101.083 57.6371H101.455V58.5543C101.614 58.3919 101.781 58.2318 101.954 58.0742C102.128 57.9166 102.31 57.7613 102.501 57.6085C102.53 57.5989 102.561 57.5926 102.594 57.5894C102.628 57.5862 102.678 57.5846 102.745 57.5846C102.844 57.5846 102.941 57.5949 103.036 57.6156C103.132 57.6363 103.231 57.669 103.333 57.7136V58.5543H103.022C102.958 58.4778 102.884 58.4197 102.8 58.3799C102.716 58.3401 102.622 58.3202 102.52 58.3202C102.364 58.3202 102.2 58.3783 102.026 58.4946C101.853 58.6108 101.662 58.7915 101.455 59.0367V61.8312L101.622 61.9888L102.306 62.0366V62.3901L99.9457 62.3901ZM104.351 62.1011C104.127 61.8447 104.014 61.4745 104.014 60.9905V58.2533H103.317V57.9476L104.454 57.5846H104.826V60.8233C104.826 61.1799 104.903 61.4419 105.056 61.609C105.209 61.7762 105.447 61.8598 105.772 61.8598C105.954 61.8598 106.138 61.8359 106.324 61.7882C106.51 61.7404 106.705 61.6672 106.909 61.5684V58.2533H106.212V57.9476L107.349 57.5846H107.721V61.8312L107.898 61.9888L108.356 62.0366V62.39H106.909V61.8407C106.603 62.0604 106.321 62.2229 106.061 62.328C105.802 62.433 105.556 62.4856 105.323 62.4856C104.9 62.4856 104.576 62.3574 104.351 62.1011ZM109.308 62.4259C109.093 62.3925 108.895 62.3407 108.713 62.2706V61H109.182L109.301 61.8312C109.438 61.9108 109.576 61.9697 109.714 62.0079C109.853 62.0461 109.992 62.0652 110.132 62.0652C110.409 62.0652 110.631 61.9928 110.799 61.8479C110.966 61.703 111.049 61.5127 111.049 61.2771C111.049 61.0796 110.992 60.9164 110.877 60.7874C110.763 60.6585 110.489 60.4953 110.056 60.2978C109.565 60.0781 109.232 59.8711 109.055 59.6768C108.878 59.4826 108.79 59.2421 108.79 58.9555C108.79 58.5193 108.941 58.1817 109.244 57.9428C109.546 57.704 109.973 57.5846 110.524 57.5846C110.744 57.5846 110.948 57.6029 111.138 57.6395C111.327 57.6761 111.505 57.7295 111.67 57.7995V58.9078H111.188L111.111 58.2151C110.981 58.1451 110.857 58.0925 110.739 58.0575C110.621 58.0225 110.503 58.0049 110.385 58.0049C110.131 58.0049 109.932 58.067 109.788 58.1912C109.645 58.3154 109.573 58.489 109.573 58.7119C109.573 58.8934 109.631 59.0479 109.745 59.1753C109.86 59.3026 110.08 59.4444 110.404 59.6004C110.455 59.6259 110.533 59.6625 110.638 59.7103C111.008 59.8791 111.275 60.0319 111.441 60.1688C111.562 60.2644 111.654 60.3846 111.718 60.5295C111.782 60.6744 111.814 60.8344 111.814 61.0096C111.814 61.4681 111.652 61.8272 111.329 62.0867C111.006 62.3463 110.557 62.476 109.984 62.476C109.748 62.476 109.523 62.4593 109.308 62.4259ZM112.975 62.2062C112.824 62.0644 112.749 61.8057 112.749 61.4299V58.2724H112.132V57.9667L112.777 57.6849L113.198 56.7725H113.561V57.8139H115.051V58.2724H113.561V60.8519C113.561 61.2755 113.62 61.5597 113.737 61.7046C113.855 61.8495 114.067 61.9219 114.373 61.9219C114.478 61.9219 114.587 61.9156 114.7 61.9028C114.813 61.8901 114.93 61.8694 115.051 61.8407V62.2038C114.828 62.2738 114.608 62.3272 114.392 62.3638C114.175 62.4004 113.967 62.4187 113.766 62.4187C113.39 62.4187 113.127 62.3479 112.975 62.2062ZM115.797 61.8097C115.394 61.3654 115.193 60.7867 115.193 60.0733C115.193 59.3409 115.404 58.743 115.826 58.2796C116.248 57.8163 116.79 57.5846 117.452 57.5846C117.994 57.5846 118.423 57.7574 118.74 58.1029C119.057 58.4484 119.215 58.9189 119.215 59.5144C119.215 59.594 119.214 59.6545 119.213 59.6959C119.211 59.7373 119.207 59.7772 119.201 59.8154H116.034V59.9252C116.034 60.5399 116.182 61.0263 116.478 61.3846C116.774 61.7428 117.174 61.9219 117.677 61.9219C117.909 61.9219 118.151 61.8758 118.401 61.7834C118.651 61.6911 118.922 61.5478 119.215 61.3535V61.8933C118.925 62.0844 118.624 62.2293 118.312 62.328C118 62.4267 117.687 62.4761 117.371 62.4761C116.725 62.4761 116.2 62.2539 115.797 61.8097ZM118.341 59.2517C118.341 58.8568 118.254 58.5543 118.081 58.3441C117.907 58.1339 117.655 58.0288 117.323 58.0288C116.999 58.0288 116.718 58.1586 116.48 58.4181C116.243 58.6777 116.11 59.0065 116.082 59.4045H118.341L118.341 59.2517ZM120.195 61.8336C119.84 61.4052 119.663 60.8567 119.663 60.188C119.663 59.4109 119.896 58.7812 120.363 58.2987C120.829 57.8163 121.437 57.575 122.185 57.575C122.316 57.575 122.454 57.5846 122.601 57.6037C122.747 57.6228 122.898 57.6499 123.054 57.6849V55.8458H122.304V55.5401L123.499 55.1914H123.866V61.8312L124.034 61.9888L124.502 62.0366V62.3901H123.054V61.8837C122.8 62.0875 122.551 62.2372 122.309 62.3327C122.067 62.4283 121.814 62.476 121.55 62.476C121.002 62.476 120.551 62.2619 120.195 61.8336ZM122.512 61.7762C122.689 61.7205 122.87 61.6353 123.054 61.5207V58.1626C122.876 58.1116 122.716 58.0726 122.574 58.0456C122.433 58.0185 122.306 58.005 122.195 58.005C121.695 58.005 121.291 58.1897 120.984 58.5591C120.676 58.9285 120.523 59.4157 120.523 60.0208C120.523 60.5844 120.656 61.0319 120.922 61.3631C121.187 61.6943 121.543 61.8599 121.989 61.8599C122.161 61.8599 122.335 61.832 122.512 61.7762ZM129.778 62.4092C129.497 62.3423 129.243 62.2452 129.013 62.1178C128.488 61.8184 128.075 61.4005 127.774 60.8639C127.473 60.3273 127.322 59.7405 127.322 59.1036C127.322 58.0846 127.634 57.2637 128.256 56.6412C128.879 56.0186 129.7 55.7073 130.719 55.7073C131.012 55.7073 131.32 55.7352 131.643 55.7909C131.966 55.8466 132.303 55.9302 132.653 56.0417V57.5464H132.109L131.961 56.6579L131.832 56.4811C131.644 56.3952 131.461 56.3315 131.282 56.2901C131.104 56.2487 130.922 56.228 130.738 56.228C129.999 56.228 129.413 56.4795 128.98 56.9827C128.547 57.4859 128.33 58.1705 128.33 59.0367C128.33 59.9571 128.556 60.6792 129.009 61.203C129.461 61.7269 130.087 61.9888 130.886 61.9888C131.026 61.9888 131.167 61.9785 131.309 61.9578C131.45 61.9371 131.593 61.9044 131.736 61.8598L131.889 61.707L132.128 60.6179H132.653V62.1656C132.332 62.277 132.004 62.3622 131.669 62.4211C131.335 62.48 131.005 62.5095 130.68 62.5095C130.359 62.5095 130.058 62.476 129.778 62.4092ZM134.044 62.1011C133.82 61.8447 133.708 61.4745 133.708 60.9905V58.2533H133.01V57.9476L134.147 57.5846H134.52V60.8233C134.52 61.1799 134.596 61.4419 134.749 61.609C134.902 61.7762 135.141 61.8598 135.465 61.8598C135.647 61.8598 135.831 61.8359 136.017 61.7882C136.204 61.7404 136.399 61.6672 136.602 61.5684V58.2533H135.905V57.9476L137.042 57.5846H137.414V61.8312L137.591 61.9888L138.05 62.0366V62.39H136.602V61.8407C136.297 62.0604 136.014 62.2229 135.754 62.328C135.495 62.433 135.249 62.4856 135.016 62.4856C134.593 62.4856 134.269 62.3574 134.044 62.1011ZM138.287 62.3901V62.0366L138.808 61.9888L138.975 61.8312V58.2916H138.287V57.9858L139.424 57.6371H139.797V58.5543C139.956 58.3919 140.122 58.2318 140.296 58.0742C140.47 57.9166 140.652 57.7613 140.843 57.6085C140.872 57.5989 140.903 57.5926 140.936 57.5894C140.97 57.5862 141.02 57.5846 141.087 57.5846C141.185 57.5846 141.282 57.5949 141.378 57.6156C141.473 57.6363 141.572 57.669 141.674 57.7136V58.5543H141.364C141.3 58.4778 141.226 58.4197 141.141 58.3799C141.057 58.3401 140.964 58.3202 140.862 58.3202C140.706 58.3202 140.541 58.3783 140.368 58.4946C140.194 58.6108 140.004 58.7915 139.797 59.0367V61.8312L139.964 61.9888L140.647 62.0366V62.3901L138.287 62.3901ZM141.697 62.3901V62.0366L142.217 61.9888L142.385 61.8312V58.2916H141.697V57.9858L142.834 57.6371H143.206V58.5543C143.365 58.3919 143.532 58.2318 143.705 58.0742C143.879 57.9166 144.061 57.7613 144.252 57.6085C144.281 57.5989 144.312 57.5926 144.345 57.5894C144.379 57.5862 144.429 57.5846 144.496 57.5846C144.595 57.5846 144.692 57.5949 144.787 57.6156C144.883 57.6363 144.982 57.669 145.083 57.7136V58.5543H144.773C144.709 58.4778 144.635 58.4197 144.551 58.3799C144.466 58.3401 144.373 58.3202 144.271 58.3202C144.115 58.3202 143.951 58.3783 143.777 58.4946C143.603 58.6108 143.413 58.7915 143.206 59.0367V61.8312L143.373 61.9888L144.056 62.0366V62.3901L141.697 62.3901ZM145.921 56.4286C145.811 56.3203 145.756 56.1882 145.756 56.0321C145.756 55.8729 145.811 55.7384 145.921 55.6285C146.03 55.5186 146.163 55.4637 146.319 55.4637C146.479 55.4637 146.613 55.5194 146.723 55.6309C146.833 55.7423 146.888 55.8761 146.888 56.0321C146.888 56.1882 146.833 56.3203 146.723 56.4286C146.613 56.5369 146.479 56.591 146.319 56.591C146.163 56.591 146.03 56.5369 145.921 56.4286ZM145.159 62.3901V62.0366L145.675 61.9888L145.842 61.8312V58.2916H145.159V57.9858L146.281 57.6371H146.663V61.8312L146.831 61.9888L147.356 62.0366V62.3901L145.159 62.3901ZM148.193 61.8097C147.79 61.3654 147.589 60.7867 147.589 60.0733C147.589 59.3409 147.8 58.743 148.222 58.2796C148.644 57.8163 149.186 57.5846 149.848 57.5846C150.39 57.5846 150.819 57.7574 151.136 58.1029C151.452 58.4484 151.611 58.9189 151.611 59.5144C151.611 59.594 151.61 59.6545 151.608 59.6959C151.607 59.7373 151.603 59.7772 151.596 59.8154H148.429V59.9252C148.429 60.5399 148.578 61.0263 148.874 61.3846C149.17 61.7428 149.57 61.9219 150.073 61.9219C150.305 61.9219 150.546 61.8758 150.796 61.7834C151.046 61.6911 151.318 61.5478 151.611 61.3535V61.8933C151.321 62.0844 151.02 62.2293 150.708 62.328C150.396 62.4267 150.082 62.4761 149.767 62.4761C149.121 62.4761 148.596 62.2539 148.193 61.8097ZM150.737 59.2517C150.737 58.8568 150.65 58.5543 150.476 58.3441C150.303 58.1339 150.05 58.0288 149.719 58.0288C149.394 58.0288 149.113 58.1586 148.876 58.4181C148.639 58.6777 148.506 59.0065 148.477 59.4045H150.737L150.737 59.2517ZM151.996 62.3901V62.0366L152.517 61.9888L152.684 61.8312V58.2916H151.996V57.9858L153.133 57.6371H153.506V58.5543C153.665 58.3919 153.832 58.2318 154.005 58.0742C154.179 57.9166 154.361 57.7613 154.552 57.6085C154.581 57.5989 154.612 57.5926 154.645 57.5894C154.679 57.5862 154.729 57.5846 154.796 57.5846C154.894 57.5846 154.992 57.5949 155.087 57.6156C155.183 57.6363 155.281 57.669 155.383 57.7136V58.5543H155.073C155.009 58.4778 154.935 58.4197 154.851 58.3799C154.766 58.3401 154.673 58.3202 154.571 58.3202C154.415 58.3202 154.25 58.3783 154.077 58.4946C153.903 58.6108 153.713 58.7915 153.506 59.0367V61.8312L153.673 61.9888L154.356 62.0366V62.3901L151.996 62.3901Z" fill="#A4A4A4"/>
</svg>
