<svg width="224" height="88" viewBox="0 0 224 88" fill="none" xmlns="http://www.w3.org/2000/svg">
<rect x="0.5" y="0.5" width="223" height="87" fill="white" stroke="white"/>
<path d="M89.3633 49.2245V25.5752H94.9774C96.7148 25.5752 98.0978 26.1241 99.1264 27.2218C100.086 28.2677 100.566 29.5989 100.566 31.2153V34.6512C100.566 36.207 100.021 37.5382 98.9319 38.6446C97.8428 39.751 96.5246 40.3042 94.9774 40.3042H92.9159V49.2245L89.3633 49.2245ZM96.5138 36.1746C96.9071 35.7727 97.1038 35.2908 97.1038 34.7289V31.2801C97.1038 30.6577 96.9201 30.1585 96.5527 29.7825C96.1854 29.4065 95.6905 29.2185 95.0682 29.2185H92.9159V36.7775H95.0682C95.6387 36.7775 96.1205 36.5765 96.5138 36.1746ZM102.521 49.2245L106.527 25.5752H111.441L115.396 49.2245H111.661L110.819 43.7919H107.098L106.229 49.2245H102.521ZM108.965 30.9948L107.642 40.3171H110.287L108.965 30.9948ZM119.801 49.2245V25.5752H125.415C127.153 25.5752 128.536 26.1241 129.564 27.2218C130.524 28.2677 131.003 29.5989 131.003 31.2153V34.6512C131.003 36.207 130.459 37.5382 129.37 38.6446C128.281 39.751 126.963 40.3042 125.415 40.3042H123.354V49.2245L119.801 49.2245ZM126.952 36.1746C127.345 35.7727 127.542 35.2908 127.542 34.7289V31.2801C127.542 30.6577 127.358 30.1585 126.991 29.7825C126.623 29.4065 126.128 29.2185 125.506 29.2185H123.354V36.7775H125.506C126.077 36.7775 126.558 36.5765 126.952 36.1746ZM135.253 49.2245V25.5752H145.393V29.1407H138.806V35.6106H143.616V39.1891H138.806V45.659H145.393V49.2245L135.253 49.2245ZM149.254 49.2245V25.5752H154.868C156.856 25.5752 158.312 26.1241 159.237 27.2218C160.058 28.1813 160.469 29.5124 160.469 31.2153V34.6512C160.469 36.328 159.834 37.7413 158.563 38.8909L161.208 49.2245H157.357L155.179 40.2912C155.075 40.2999 154.967 40.3042 154.855 40.3042H152.806V49.2245L149.254 49.2245ZM156.404 36.1746C156.797 35.7727 156.994 35.2908 156.994 34.7289V31.2801C156.994 29.9057 156.316 29.2185 154.959 29.2185H152.806V36.7775H154.959C155.529 36.7775 156.011 36.5765 156.404 36.1746ZM165.458 49.2245V45.6849L172.032 29.1407H165.458V25.5752H175.856V29.1407L169.296 45.6849H175.856V49.2245H165.458Z" fill="#A4A4A4"/>
<path d="M88.793 61.3368V55.618H89.4219V60.8169H91.9962V61.3368L88.793 61.3368ZM93.3546 61.2026C93.0583 61.0238 92.8263 60.775 92.6586 60.4563C92.4909 60.1377 92.4071 59.7771 92.4071 59.3746C92.4071 58.9721 92.4895 58.6116 92.6544 58.2929C92.8193 57.9743 93.0485 57.7255 93.342 57.5466C93.6355 57.3677 93.9695 57.2783 94.3441 57.2783C94.6963 57.2783 95.0149 57.3649 95.3 57.5382C95.5851 57.7115 95.8087 57.9477 95.9708 58.2468C96.133 58.5459 96.214 58.8799 96.214 59.2489C96.214 59.3551 96.2112 59.4361 96.2056 59.492H92.9773C92.9996 59.8945 93.131 60.2383 93.3714 60.5234C93.6118 60.8085 93.9388 60.9511 94.3525 60.9511C94.6879 60.9511 94.966 60.8882 95.1868 60.7624C95.4076 60.6366 95.5851 60.4619 95.7193 60.2383L96.1721 60.5402C95.9876 60.8309 95.7444 61.0587 95.4426 61.2236C95.1407 61.3885 94.7829 61.471 94.3692 61.471C93.9891 61.471 93.6509 61.3815 93.3546 61.2026ZM95.2329 58.1043C95.0149 57.9002 94.7186 57.7982 94.3441 57.7982C93.9807 57.7982 93.683 57.9142 93.451 58.1462C93.219 58.3782 93.0723 58.6703 93.0108 59.0225H95.6438C95.5879 58.6144 95.4509 58.3083 95.2329 58.1043ZM97.7569 61.2026C97.4606 61.0238 97.2286 60.775 97.0609 60.4563C96.8932 60.1377 96.8094 59.7743 96.8094 59.3662C96.8094 58.9637 96.8918 58.6046 97.0567 58.2887C97.2216 57.9729 97.4508 57.7255 97.7443 57.5466C98.0378 57.3677 98.3718 57.2783 98.7464 57.2783C99.0315 57.2783 99.2928 57.3412 99.5304 57.467C99.768 57.5927 99.9679 57.7702 100.13 57.9994V57.4124H100.7V61.3368H100.13V60.7582C99.9678 60.9818 99.7694 61.1565 99.5346 61.2823C99.2998 61.4081 99.0427 61.471 98.7632 61.471C98.3886 61.471 98.0532 61.3815 97.7569 61.2026ZM99.4633 60.7498C99.673 60.6157 99.8365 60.4284 99.9539 60.188C100.071 59.9476 100.13 59.6765 100.13 59.3746C100.13 59.0728 100.071 58.8016 99.9539 58.5613C99.8365 58.3209 99.673 58.1336 99.4633 57.9994C99.2537 57.8653 99.0147 57.7982 98.7464 57.7982C98.4836 57.7982 98.2489 57.8653 98.042 57.9994C97.8352 58.1336 97.6731 58.3195 97.5557 58.5571C97.4383 58.7947 97.3796 59.0644 97.3796 59.3663C97.3796 59.6737 97.4383 59.9476 97.5557 60.188C97.6731 60.4284 97.8352 60.6157 98.042 60.7499C98.2489 60.884 98.4836 60.9511 98.7464 60.9511C99.0147 60.9511 99.2537 60.884 99.4633 60.7498ZM102.461 61.2026C102.165 61.0238 101.933 60.775 101.765 60.4563C101.597 60.1377 101.514 59.7743 101.514 59.3662C101.514 58.9637 101.596 58.6046 101.761 58.2887C101.926 57.9729 102.155 57.7255 102.449 57.5466C102.742 57.3677 103.076 57.2783 103.451 57.2783C103.736 57.2783 103.997 57.3412 104.235 57.467C104.472 57.5927 104.672 57.7702 104.834 57.9994V55.249H105.404V61.3368H104.834V60.7582C104.672 60.9818 104.474 61.1565 104.239 61.2823C104.004 61.4081 103.747 61.471 103.467 61.471C103.093 61.471 102.757 61.3815 102.461 61.2026ZM104.168 60.7498C104.377 60.6157 104.541 60.4284 104.658 60.188C104.775 59.9476 104.834 59.6765 104.834 59.3746C104.834 59.0728 104.775 58.8016 104.658 58.5613C104.541 58.3209 104.377 58.1336 104.168 57.9994C103.958 57.8653 103.719 57.7982 103.451 57.7982C103.188 57.7982 102.953 57.8653 102.746 57.9994C102.539 58.1336 102.377 58.3195 102.26 58.5571C102.142 58.7947 102.084 59.0644 102.084 59.3663C102.084 59.6737 102.142 59.9476 102.26 60.188C102.377 60.4284 102.539 60.6157 102.746 60.7499C102.953 60.884 103.188 60.9511 103.451 60.9511C103.719 60.9511 103.958 60.884 104.168 60.7498ZM106.733 56.5152C106.647 56.4258 106.603 56.3168 106.603 56.1882C106.603 56.0652 106.647 55.9604 106.733 55.8738C106.82 55.7871 106.928 55.7438 107.056 55.7438C107.179 55.7438 107.285 55.7871 107.375 55.8738C107.464 55.9604 107.509 56.068 107.509 56.1966C107.509 56.3196 107.464 56.4258 107.375 56.5152C107.285 56.6047 107.179 56.6494 107.056 56.6494C106.928 56.6494 106.82 56.6047 106.733 56.5152ZM106.771 61.3368V57.4125H107.341V61.3368H106.771ZM108.708 61.3368V57.4125H109.278V58.0665C109.413 57.815 109.59 57.6207 109.811 57.4837C110.032 57.3468 110.287 57.2783 110.578 57.2783C110.852 57.2783 111.105 57.3342 111.337 57.446C111.569 57.5578 111.753 57.7227 111.89 57.9407C112.027 58.1588 112.096 58.4159 112.096 58.7122V61.3368H111.526V58.9637C111.526 58.1867 111.179 57.7982 110.486 57.7982C110.083 57.7982 109.782 57.9407 109.58 58.2258C109.379 58.5109 109.278 58.8939 109.278 59.3746V61.3368L108.708 61.3368ZM113.505 63.0139V62.494H115.131C115.472 62.494 115.751 62.371 115.966 62.125C116.181 61.8791 116.289 61.566 116.289 61.1859V60.7582C116.126 60.9818 115.928 61.1565 115.693 61.2823C115.458 61.4081 115.201 61.471 114.922 61.471C114.547 61.471 114.212 61.3815 113.915 61.2026C113.619 61.0238 113.387 60.775 113.22 60.4563C113.052 60.1377 112.968 59.7743 112.968 59.3662C112.968 58.9637 113.05 58.6046 113.215 58.2887C113.38 57.9729 113.609 57.7255 113.903 57.5466C114.196 57.3677 114.53 57.2783 114.905 57.2783C115.19 57.2783 115.451 57.3412 115.689 57.467C115.927 57.5927 116.126 57.7702 116.289 57.9994V57.4124H116.859V61.1859C116.859 61.538 116.786 61.8525 116.641 62.1292C116.495 62.4059 116.291 62.6225 116.029 62.7791C115.766 62.9356 115.467 63.0139 115.131 63.0139L113.505 63.0139ZM115.622 60.7498C115.832 60.6157 115.995 60.4284 116.112 60.188C116.23 59.9476 116.289 59.6765 116.289 59.3746C116.289 59.0728 116.23 58.8016 116.112 58.5613C115.995 58.3209 115.832 58.1336 115.622 57.9994C115.412 57.8653 115.173 57.7982 114.905 57.7982C114.642 57.7982 114.407 57.8653 114.201 57.9994C113.994 58.1336 113.832 58.3195 113.714 58.5571C113.597 58.7947 113.538 59.0644 113.538 59.3663C113.538 59.6737 113.597 59.9476 113.714 60.188C113.832 60.4284 113.994 60.6157 114.201 60.7499C114.407 60.884 114.642 60.9511 114.905 60.9511C115.173 60.9511 115.412 60.884 115.622 60.7498ZM119.928 61.3368V55.618H121.84C122.354 55.618 122.765 55.7745 123.072 56.0876C123.38 56.4006 123.534 56.8339 123.534 57.3873C123.534 57.9351 123.373 58.3656 123.051 58.6786C122.73 58.9917 122.304 59.1482 121.773 59.1482H120.557V61.3368L119.928 61.3368ZM122.611 58.3139C122.807 58.1043 122.905 57.7954 122.905 57.3873C122.905 56.9792 122.807 56.669 122.611 56.4565C122.415 56.2441 122.13 56.1379 121.756 56.1379H120.557V58.6283H121.756C122.13 58.6283 122.415 58.5235 122.611 58.3139ZM124.976 61.2026C124.68 61.0238 124.448 60.775 124.28 60.4563C124.112 60.1377 124.028 59.7743 124.028 59.3662C124.028 58.9637 124.111 58.6046 124.276 58.2887C124.441 57.9729 124.67 57.7255 124.963 57.5466C125.257 57.3677 125.591 57.2783 125.965 57.2783C126.25 57.2783 126.512 57.3412 126.749 57.467C126.987 57.5927 127.187 57.7702 127.349 57.9994V57.4124H127.919V61.3368H127.349V60.7582C127.187 60.9818 126.988 61.1565 126.753 61.2823C126.519 61.4081 126.262 61.471 125.982 61.471C125.607 61.471 125.272 61.3815 124.976 61.2026ZM126.682 60.7498C126.892 60.6157 127.055 60.4284 127.173 60.188C127.29 59.9476 127.349 59.6765 127.349 59.3746C127.349 59.0728 127.29 58.8016 127.173 58.5613C127.055 58.3209 126.892 58.1336 126.682 57.9994C126.473 57.8653 126.234 57.7982 125.965 57.7982C125.703 57.7982 125.468 57.8653 125.261 57.9994C125.054 58.1336 124.892 58.3195 124.775 58.5571C124.657 58.7947 124.598 59.0644 124.598 59.3663C124.598 59.6737 124.657 59.9476 124.775 60.188C124.892 60.4284 125.054 60.6157 125.261 60.7499C125.468 60.884 125.703 60.9511 125.965 60.9511C126.234 60.9511 126.473 60.884 126.682 60.7498ZM128.984 63.0139V57.4125H129.554V57.9911C129.716 57.7674 129.915 57.5928 130.15 57.467C130.384 57.3412 130.641 57.2783 130.921 57.2783C131.296 57.2783 131.631 57.3677 131.927 57.5466C132.224 57.7255 132.456 57.9743 132.623 58.2929C132.791 58.6116 132.875 58.9749 132.875 59.383C132.875 59.7855 132.792 60.1447 132.627 60.4606C132.463 60.7764 132.233 61.0238 131.94 61.2027C131.646 61.3815 131.312 61.471 130.938 61.471C130.653 61.471 130.391 61.4081 130.154 61.2823C129.916 61.1565 129.716 60.979 129.554 60.7498V63.0139L128.984 63.0139ZM131.642 60.7498C131.849 60.6157 132.011 60.4298 132.128 60.1922C132.246 59.9546 132.305 59.6849 132.305 59.383C132.305 59.0756 132.246 58.8016 132.128 58.5613C132.011 58.3209 131.849 58.1336 131.642 57.9994C131.435 57.8653 131.201 57.7982 130.938 57.7982C130.669 57.7982 130.43 57.8653 130.221 57.9994C130.011 58.1336 129.848 58.3209 129.73 58.5613C129.613 58.8016 129.554 59.0728 129.554 59.3746C129.554 59.6765 129.613 59.9476 129.73 60.188C129.848 60.4284 130.011 60.6157 130.221 60.7498C130.43 60.884 130.669 60.9511 130.938 60.9511C131.201 60.9511 131.435 60.884 131.642 60.7498ZM134.384 61.2026C134.088 61.0238 133.856 60.775 133.688 60.4563C133.52 60.1377 133.437 59.7771 133.437 59.3746C133.437 58.9721 133.519 58.6116 133.684 58.2929C133.849 57.9743 134.078 57.7255 134.372 57.5466C134.665 57.3677 134.999 57.2783 135.374 57.2783C135.726 57.2783 136.044 57.3649 136.33 57.5382C136.615 57.7115 136.838 57.9477 137 58.2468C137.163 58.5459 137.244 58.8799 137.244 59.2489C137.244 59.3551 137.241 59.4361 137.235 59.492H134.007C134.029 59.8945 134.161 60.2383 134.401 60.5234C134.641 60.8085 134.968 60.9511 135.382 60.9511C135.717 60.9511 135.996 60.8882 136.216 60.7624C136.437 60.6366 136.615 60.4619 136.749 60.2383L137.202 60.5402C137.017 60.8309 136.774 61.0587 136.472 61.2236C136.17 61.3885 135.812 61.471 135.399 61.471C135.019 61.471 134.68 61.3815 134.384 61.2026ZM136.262 58.1043C136.044 57.9002 135.748 57.7982 135.374 57.7982C135.01 57.7982 134.713 57.9142 134.481 58.1462C134.249 58.3782 134.102 58.6703 134.04 59.0225H136.673C136.617 58.6144 136.481 58.3083 136.262 58.1043ZM138.082 61.3368V57.4125H138.652V58.2007C138.803 57.91 138.995 57.6836 139.227 57.5215C139.459 57.3594 139.72 57.2783 140.011 57.2783C140.145 57.2783 140.273 57.2979 140.396 57.337V57.8569C140.279 57.801 140.151 57.773 140.011 57.773C139.77 57.773 139.547 57.8401 139.34 57.9743C139.133 58.1085 138.967 58.3027 138.841 58.5571C138.715 58.8114 138.652 59.1119 138.652 59.4585V61.3368L138.082 61.3368ZM143.814 61.1146C143.464 60.877 143.196 60.536 143.009 60.0916C142.821 59.6472 142.728 59.1147 142.728 58.4942C142.728 57.8681 142.818 57.33 143 56.88C143.182 56.43 143.442 56.0862 143.78 55.8486C144.118 55.611 144.519 55.4922 144.983 55.4922C145.458 55.4922 145.865 55.597 146.203 55.8067C146.542 56.0163 146.806 56.3112 146.996 56.6913L146.493 56.9848C146.314 56.655 146.104 56.4188 145.864 56.2763C145.623 56.1337 145.33 56.0624 144.983 56.0624C144.486 56.0624 144.096 56.2763 143.814 56.7039C143.531 57.1316 143.39 57.7255 143.39 58.4858C143.39 58.9833 143.454 59.4138 143.583 59.7772C143.711 60.1405 143.896 60.4186 144.136 60.6115C144.377 60.8044 144.656 60.9008 144.975 60.9008C145.372 60.9008 145.681 60.8127 145.901 60.6367C146.122 60.4606 146.328 60.1852 146.518 59.8107L147.046 60.1293C146.845 60.5654 146.578 60.898 146.245 61.1272C145.913 61.3564 145.517 61.471 145.059 61.471C144.578 61.471 144.163 61.3522 143.814 61.1146ZM148.572 61.2026C148.276 61.0238 148.044 60.7736 147.876 60.4522C147.708 60.1307 147.625 59.7687 147.625 59.3663C147.625 58.9638 147.707 58.6046 147.872 58.2887C148.037 57.9729 148.266 57.7255 148.56 57.5466C148.853 57.3677 149.187 57.2783 149.562 57.2783C149.936 57.2783 150.272 57.3677 150.568 57.5466C150.864 57.7255 151.096 57.9743 151.264 58.2929C151.432 58.6116 151.515 58.9721 151.515 59.3746C151.515 59.7771 151.433 60.1377 151.268 60.4563C151.103 60.775 150.874 61.0238 150.58 61.2026C150.287 61.3815 149.953 61.471 149.578 61.471C149.204 61.471 148.868 61.3815 148.572 61.2026ZM150.279 60.7498C150.488 60.6157 150.652 60.4284 150.769 60.188C150.887 59.9476 150.945 59.6765 150.945 59.3746C150.945 59.0728 150.887 58.8016 150.769 58.5613C150.652 58.3209 150.488 58.1336 150.279 57.9994C150.069 57.8653 149.83 57.7982 149.562 57.7982C149.299 57.7982 149.064 57.8653 148.857 57.9994C148.65 58.1336 148.488 58.3195 148.371 58.5571C148.254 58.7947 148.195 59.0644 148.195 59.3663C148.195 59.6737 148.254 59.9476 148.371 60.188C148.488 60.4284 148.65 60.6157 148.857 60.7499C149.064 60.884 149.299 60.9511 149.562 60.9511C149.83 60.9511 150.069 60.884 150.279 60.7498ZM152.32 61.3368V57.4125H152.891V58.0246C153.019 57.7842 153.183 57.5997 153.381 57.4712C153.58 57.3426 153.807 57.2783 154.065 57.2783C154.35 57.2783 154.598 57.3552 154.811 57.5089C155.023 57.6626 155.171 57.8821 155.255 58.1672C155.378 57.8876 155.546 57.6696 155.758 57.5131C155.971 57.3566 156.217 57.2783 156.496 57.2783C156.86 57.2783 157.162 57.4055 157.402 57.6598C157.642 57.9142 157.763 58.265 157.763 58.7122V61.3368H157.192V58.9638C157.192 58.5501 157.114 58.2524 156.958 58.0707C156.801 57.889 156.597 57.7982 156.345 57.7982C156.038 57.7982 155.799 57.917 155.628 58.1546C155.458 58.3922 155.359 58.715 155.331 59.1231V61.3368H154.761V58.9638C154.761 58.5501 154.682 58.2524 154.526 58.0707C154.369 57.889 154.165 57.7982 153.914 57.7982C153.573 57.7982 153.317 57.9407 153.146 58.2258C152.976 58.5109 152.891 58.8939 152.891 59.3746V61.3368L152.32 61.3368ZM158.786 63.0139V57.4125H159.356V57.9911C159.518 57.7674 159.716 57.5928 159.951 57.467C160.186 57.3412 160.443 57.2783 160.723 57.2783C161.097 57.2783 161.433 57.3677 161.729 57.5466C162.025 57.7255 162.257 57.9743 162.425 58.2929C162.593 58.6116 162.676 58.9749 162.676 59.383C162.676 59.7855 162.594 60.1447 162.429 60.4606C162.264 60.7764 162.035 61.0238 161.741 61.2027C161.448 61.3815 161.114 61.471 160.739 61.471C160.454 61.471 160.193 61.4081 159.955 61.2823C159.718 61.1565 159.518 60.979 159.356 60.7498V63.0139L158.786 63.0139ZM161.444 60.7498C161.651 60.6157 161.813 60.4298 161.93 60.1922C162.047 59.9546 162.106 59.6849 162.106 59.383C162.106 59.0756 162.047 58.8016 161.93 58.5613C161.813 58.3209 161.651 58.1336 161.444 57.9994C161.237 57.8653 161.002 57.7982 160.739 57.7982C160.471 57.7982 160.232 57.8653 160.022 57.9994C159.813 58.1336 159.649 58.3209 159.532 58.5613C159.414 58.8016 159.356 59.0728 159.356 59.3746C159.356 59.6765 159.414 59.9476 159.532 60.188C159.649 60.4284 159.813 60.6157 160.022 60.7498C160.232 60.884 160.471 60.9511 160.739 60.9511C161.002 60.9511 161.237 60.884 161.444 60.7498ZM164.186 61.2026C163.889 61.0238 163.657 60.775 163.49 60.4563C163.322 60.1377 163.238 59.7743 163.238 59.3662C163.238 58.9637 163.321 58.6046 163.486 58.2887C163.65 57.9729 163.88 57.7255 164.173 57.5466C164.467 57.3677 164.801 57.2783 165.175 57.2783C165.46 57.2783 165.722 57.3412 165.959 57.467C166.197 57.5927 166.397 57.7702 166.559 57.9994V57.4124H167.129V61.3368H166.559V60.7582C166.397 60.9818 166.198 61.1565 165.963 61.2823C165.729 61.4081 165.471 61.471 165.192 61.471C164.817 61.471 164.482 61.3815 164.186 61.2026ZM165.892 60.7498C166.102 60.6157 166.265 60.4284 166.383 60.188C166.5 59.9476 166.559 59.6765 166.559 59.3746C166.559 59.0728 166.5 58.8016 166.383 58.5613C166.265 58.3209 166.102 58.1336 165.892 57.9994C165.683 57.8653 165.444 57.7982 165.175 57.7982C164.912 57.7982 164.678 57.8653 164.471 57.9994C164.264 58.1336 164.102 58.3195 163.984 58.5571C163.867 58.7947 163.808 59.0644 163.808 59.3663C163.808 59.6737 163.867 59.9476 163.984 60.188C164.102 60.4284 164.264 60.6157 164.471 60.7499C164.678 60.884 164.912 60.9511 165.175 60.9511C165.444 60.9511 165.683 60.884 165.892 60.7498ZM168.186 61.3368V57.4125H168.756V58.0665C168.89 57.815 169.067 57.6207 169.288 57.4837C169.509 57.3468 169.765 57.2783 170.055 57.2783C170.329 57.2783 170.582 57.3342 170.814 57.446C171.046 57.5578 171.231 57.7227 171.368 57.9407C171.505 58.1588 171.573 58.4159 171.573 58.7122V61.3368H171.003V58.9637C171.003 58.1867 170.656 57.7982 169.963 57.7982C169.561 57.7982 169.259 57.9407 169.058 58.2258C168.856 58.5109 168.756 58.8939 168.756 59.3746V61.3368L168.186 61.3368ZM173.234 63.0139L173.854 61.4123L172.244 57.4125H172.839L174.139 60.666L175.389 57.4125H175.925L173.804 63.0139H173.234Z" fill="#A4A4A4"/>
<path fill-rule="evenodd" clip-rule="evenodd" d="M69.0317 31.0557V58.2607C66.879 59.5864 64.3163 60.6785 61.4845 61.3953C59.1464 61.9879 56.8488 62.2678 54.7011 62.2678C52.6304 62.2678 50.6992 62.0079 49 61.5151V34.3102C49.0009 34.3102 49.0025 34.3109 49.0034 34.3109C49.6361 34.494 50.3008 34.6452 50.9935 34.7627C51.6344 34.8716 52.2991 34.9517 52.9836 35.001C53.5435 35.0428 54.1166 35.0637 54.7011 35.0637C56.8497 35.0637 59.1464 34.7828 61.4845 34.1909C64.3162 33.4732 66.879 32.382 69.0317 31.0557ZM65.051 37.3011C64.8827 37.3584 64.7136 37.4145 64.5436 37.4693L65.051 37.4691L65.051 37.3011Z" fill="#A4A4A4"/>
<path fill-rule="evenodd" clip-rule="evenodd" d="M76.486 25V55.0474C74.083 56.5116 71.2222 57.7178 68.0612 58.5094C65.4513 59.164 62.8864 59.4731 60.489 59.4731C58.1776 59.4731 56.0218 59.186 54.125 58.6417V28.5946C54.126 28.5946 54.1278 28.5953 54.1288 28.5953C54.8351 28.7975 55.577 28.9645 56.3503 29.0943C57.0658 29.2147 57.8077 29.3031 58.5719 29.3576C59.1968 29.4037 59.8366 29.4268 60.489 29.4268C62.8874 29.4268 65.4513 29.1166 68.0612 28.4628C71.2222 27.6702 74.083 26.465 76.486 25Z" fill="#A4A4A4"/>
</svg>
