<svg width="60" height="60" viewBox="0 0 60 60" fill="none" xmlns="http://www.w3.org/2000/svg">
<circle cx="30" cy="30" r="29.5" fill="white" stroke="#191919"/>
<rect x="14" y="14" width="32" height="32" fill="white"/>
<path d="M42.9136 26.4379C43.0302 26.8068 43.0288 27.2045 42.9094 27.5724L38.6272 40.7727C38.5126 41.1295 38.2919 41.4401 37.9963 41.6604C37.7007 41.8807 37.3452 41.9995 36.9804 42H23.0201C22.6552 41.9995 22.2997 41.8807 22.0041 41.6603C21.7084 41.4399 21.4877 41.1292 21.3733 40.7723L17.0902 27.5719C16.9711 27.2037 16.9699 26.8058 17.087 26.4368C17.204 26.0679 17.433 25.7475 17.7403 25.5228L29.0015 17.3302C29.2932 17.1154 29.6428 17 30.0013 17C30.3599 17 30.7094 17.1154 31.0011 17.3302L42.2615 25.5237C42.5683 25.7486 42.7969 26.0691 42.9136 26.4379ZM30.4988 18.0596C30.4772 18.0449 30.4551 18.0391 30.4338 18.0262V25.2491L34.4209 28.1255L41.8095 26.3014C41.7922 26.2866 41.7805 26.2666 41.7623 26.2536L30.4988 18.0596ZM33.8142 28.776L30.0005 26.0268L26.1868 28.776L27.7036 33.0712H32.2974L33.8142 28.776ZM18.2395 26.2527C18.2209 26.2661 18.2092 26.2862 18.1914 26.3014L25.58 28.1255L29.5671 25.2491V18.0239C29.5472 18.0364 29.5233 18.0422 29.5038 18.0565L18.2395 26.2527ZM22.1949 40.4892C22.2001 40.5058 22.2114 40.5178 22.2175 40.5339L26.917 33.4547L25.3391 28.9849L17.8898 27.1451C17.8936 27.193 17.9012 27.2405 17.9123 27.2871L22.1949 40.4892ZM36.9804 41.1071C37.0211 41.1036 37.0616 41.0969 37.1013 41.087L32.3723 33.9641H27.6286L22.8996 41.087C22.9393 41.0969 22.9798 41.1036 23.0205 41.1071H36.9804ZM42.0886 27.2871C42.0998 27.2405 42.1073 27.193 42.1111 27.1451L34.6619 28.9849L33.0839 33.4547L37.7848 40.5343C37.7908 40.5183 37.8017 40.5058 37.8069 40.4897L42.089 27.2885L42.0886 27.2871Z" fill="#191919" stroke="#191919" stroke-width="0.5"/>
</svg>
