<svg width="60" height="60" viewBox="0 0 60 60" fill="none" xmlns="http://www.w3.org/2000/svg">
<circle cx="30" cy="30" r="29.5" fill="white" stroke="#191919"/>
<rect x="14" y="14" width="32" height="32" fill="white"/>
<path d="M33.1932 34.9398C31.6873 36.5151 29.6852 37.3826 27.5557 37.3826C27.3453 37.3826 27.1748 37.2042 27.1748 36.9842C27.1748 36.7642 27.3453 36.5858 27.5557 36.5858C29.4818 36.5858 31.2926 35.8011 32.6545 34.3764C33.8613 33.1139 34.526 31.4353 34.526 29.6499C34.526 29.4299 34.6964 29.2515 34.9068 29.2515C35.1172 29.2515 35.2877 29.4299 35.2877 29.6499C35.2877 31.6482 34.5438 33.5269 33.1932 34.9398Z" fill="#191919" stroke="#191919" stroke-width="0.5"/>
<path d="M17.4351 29.001H18.9978C19.2082 29.001 19.3787 29.1794 19.3787 29.3994C19.3787 29.6195 19.2082 29.7978 18.9978 29.7978H17.7617V42.2022H21.2064V29.7978H20.7753C20.5649 29.7978 20.3944 29.6195 20.3944 29.3994C20.3944 29.1794 20.5649 29.001 20.7753 29.001H23.6362C23.8761 29.001 24.0713 29.2052 24.0713 29.4562V29.7348H24.5197C24.9236 29.7348 25.3221 29.5825 25.6417 29.306C26.3153 28.7231 27.0731 28.2742 27.8941 27.9717C28.893 27.6037 29.6944 26.7405 30.0378 25.6627L32.3809 18.3093C32.4398 18.1243 32.6046 18 32.7911 18C34.5545 18 35.9891 19.5008 35.9891 21.3456V23.0141C35.9891 23.2342 35.8187 23.4125 35.6083 23.4125C35.3979 23.4125 35.2274 23.2342 35.2274 23.0141V21.3456C35.2274 20.0226 34.2591 18.9319 33.0248 18.8085L30.7605 25.9148C30.3432 27.2243 29.3663 28.2742 28.1471 28.7234C27.411 28.9946 26.7314 29.3972 26.1272 29.9201C25.6713 30.3145 25.1004 30.5317 24.5197 30.5317H24.0713V36.0718C24.0713 36.2918 23.9008 36.4702 23.6905 36.4702C23.4801 36.4702 23.3096 36.2918 23.3096 36.0718V29.7978H21.9682V40.7354H23.3095V37.9311C23.3095 37.7111 23.48 37.5327 23.6904 37.5327C23.9008 37.5327 24.0713 37.7111 24.0713 37.9311V40.0029H24.5197C25.1004 40.0029 25.6713 40.2201 26.1273 40.6146C27.3111 41.639 28.8108 42.2031 30.35 42.2031H36.8374C36.7055 41.9665 36.6298 41.6915 36.6298 41.3985V40.1375C36.6298 39.6587 36.8318 39.2283 37.1512 38.9345C36.8316 38.6408 36.6296 38.2103 36.6296 37.7313V36.4704C36.6296 35.9914 36.8316 35.561 37.1511 35.2673C36.8316 34.9735 36.6296 34.5431 36.6296 34.0642V32.8032C36.6296 32.3243 36.8316 31.8939 37.1511 31.6001C36.8316 31.3064 36.6296 30.876 36.6296 30.3971V28.842C36.6296 28.6527 36.6683 28.4727 36.7378 28.31C35.8837 28.1734 35.2274 27.3997 35.2274 26.4686V24.8735C35.2274 24.6535 35.3978 24.4751 35.6082 24.4751C35.8186 24.4751 35.9891 24.6535 35.9891 24.8735V26.4686C35.9891 27.0564 36.4462 27.5346 37.0081 27.5346C37.4809 27.5346 41.0163 27.5346 41.4692 27.5346C42.3133 27.5345 43 28.253 43 29.1361V30.3971C43 30.876 42.798 31.3064 42.4785 31.6001C42.7981 31.8939 43 32.3243 43 32.8032V34.0642C43 34.5431 42.798 34.9736 42.4785 35.2673C42.7981 35.561 43 35.9915 43 36.4704V37.7314C43 38.4095 42.595 38.9905 42.0249 39.2237C42.1977 39.483 42.2992 39.798 42.2992 40.1375V41.3985C42.2992 42.2816 41.6124 43 40.7683 43H30.3501C28.634 43 26.9619 42.3709 25.6418 41.2286C25.3221 40.952 24.9236 40.7997 24.5197 40.7997H24.0713V41.077C24.0713 41.328 23.8761 41.5322 23.6362 41.5322H21.9681V42.5438C21.9681 42.7948 21.7729 42.9989 21.533 42.9989H17.4351C17.1952 42.9989 17 42.7947 17 42.5438V29.4562C17 29.2052 17.1952 29.001 17.4351 29.001ZM42.2383 30.3971V29.1361C42.2383 28.6924 41.8933 28.3315 41.4692 28.3315H37.8771C37.6091 28.3327 37.3913 28.5613 37.3913 28.842V30.397C37.3913 30.8408 37.7363 31.2017 38.1604 31.2017H41.4692C41.8933 31.2017 42.2383 30.8408 42.2383 30.3971ZM42.2383 34.0643V32.8032C42.2383 32.3595 41.8933 31.9986 41.4692 31.9986H38.1605C37.7363 31.9986 37.3913 32.3596 37.3913 32.8033V34.0642C37.3913 34.5079 37.7364 34.8689 38.1605 34.8689H41.4692C41.8933 34.8689 42.2383 34.5079 42.2383 34.0643ZM42.2383 36.4704C42.2383 36.0267 41.8933 35.6658 41.4692 35.6658H38.1605C37.7363 35.6658 37.3913 36.0267 37.3913 36.4704V37.7314C37.3913 38.1751 37.7364 38.536 38.1605 38.536H41.4692C41.8933 38.536 42.2383 38.1751 42.2383 37.7314V36.4704ZM41.5375 41.3985V40.1375C41.5375 39.6938 41.1924 39.3329 40.7683 39.3329H38.1607C37.7365 39.3329 37.3915 39.6939 37.3915 40.1375V41.3985C37.3915 41.8422 37.7366 42.2031 38.1607 42.2031H40.7683C41.1924 42.2032 41.5375 41.8422 41.5375 41.3985Z" fill="#191919" stroke="#191919" stroke-width="0.5"/>
<path d="M19.4843 41.5323C18.8877 41.5323 18.4023 41.0245 18.4023 40.4004C18.4023 39.7763 18.8877 39.2686 19.4843 39.2686C20.0809 39.2686 20.5662 39.7763 20.5662 40.4004C20.5662 41.0245 20.0809 41.5323 19.4843 41.5323ZM19.4843 40.0655C19.3077 40.0655 19.1641 40.2157 19.1641 40.4005C19.1641 40.5852 19.3077 40.7355 19.4843 40.7355C19.6609 40.7355 19.8045 40.5852 19.8045 40.4005C19.8045 40.2157 19.6609 40.0655 19.4843 40.0655Z" fill="#191919" stroke="#191919" stroke-width="0.5"/>
<path d="M42.0573 22.4748L41.6112 22.7081C41.1031 22.9739 40.6834 23.4129 40.4295 23.9444L40.2063 24.4113C40.1317 24.5672 39.9818 24.6641 39.8151 24.6641C39.6485 24.6641 39.4986 24.5672 39.4239 24.4111L39.2008 23.9444C38.9468 23.413 38.5271 22.9739 38.019 22.7081L37.5729 22.4748C37.4237 22.3968 37.3311 22.2399 37.3311 22.0654C37.3311 21.891 37.4237 21.7341 37.5729 21.6561L38.019 21.4227C38.5271 21.157 38.9468 20.7179 39.2008 20.1865L39.4239 19.7196C39.4986 19.5636 39.6485 19.4668 39.8151 19.4668C39.9818 19.4668 40.1317 19.5636 40.2064 19.7198L40.4295 20.1865C40.6835 20.7179 41.1032 21.157 41.6112 21.4227L42.0574 21.6561C42.2065 21.7341 42.2992 21.8909 42.2992 22.0654C42.2991 22.2399 42.2065 22.3967 42.0573 22.4748ZM39.8151 20.6757C39.5068 21.2568 39.0422 21.7428 38.4866 22.0654C39.0422 22.388 39.5068 22.874 39.8151 23.4551C40.1234 22.874 40.588 22.388 41.1435 22.0654C40.588 21.7429 40.1234 21.2568 39.8151 20.6757Z" fill="#191919" stroke="#191919" stroke-width="0.5"/>
<path d="M28.7423 25.0328L28.3706 25.2273C27.9594 25.4423 27.6198 25.7977 27.4141 26.2278L27.2283 26.6165C27.1554 26.7693 27.0087 26.8643 26.8454 26.8643C26.6821 26.8643 26.5354 26.7694 26.4626 26.6168L26.2767 26.2278C26.0711 25.7977 25.7315 25.4424 25.3203 25.2273L24.9485 25.0328C24.8026 24.9565 24.7119 24.803 24.7119 24.6323C24.7119 24.4616 24.8026 24.3082 24.9485 24.2318L25.3203 24.0373C25.7315 23.8223 26.0711 23.4669 26.2767 23.0368L26.4625 22.6482C26.5354 22.4954 26.6821 22.4004 26.8454 22.4004C27.0087 22.4004 27.1554 22.4953 27.2282 22.6479L27.4141 23.0368C27.6198 23.467 27.9594 23.8223 28.3706 24.0373L28.7423 24.2318C28.8883 24.3082 28.9789 24.4616 28.9789 24.6323C28.979 24.803 28.8883 24.9565 28.7423 25.0328ZM26.8454 23.6064C26.6031 24.0243 26.2643 24.3788 25.8648 24.6323C26.2642 24.8858 26.6031 25.2403 26.8454 25.6582C27.0877 25.2403 27.4266 24.8858 27.8261 24.6323C27.4266 24.3788 27.0877 24.0243 26.8454 23.6064Z" fill="#191919" stroke="#191919" stroke-width="0.5"/>
</svg>
