<svg width="931" height="318" viewBox="0 0 931 318" fill="none" xmlns="http://www.w3.org/2000/svg">
<path d="M1265.66 133.655C1261.42 127.744 1257.18 121.902 1252.87 116.061C1235.76 93.043 1217.19 70.6508 1194.03 53.5438C1170.25 35.8804 1141.6 25.6579 1111.77 27.3269C1096.26 28.2309 1080.96 32.0557 1066.91 38.662C1052.87 45.338 1040.56 55.0041 1028.87 65.0876C1017.12 75.171 1005.86 85.8803 993.061 94.6424C980.265 103.405 966.079 109.594 951.058 113.279C920.321 120.859 888.193 118.912 856.9 118.356C827.067 117.799 797.304 118.634 768.305 126.701C715.941 141.235 670.809 173.224 627.068 204.239C582.631 235.81 537.36 268.564 484.648 284.697C481.936 285.462 481.032 289.635 483.813 291.026C486.178 292.208 488.473 293.321 490.837 294.503C494.801 296.519 498.348 290.539 494.314 288.522C491.95 287.34 489.655 286.227 487.291 285.045C487.012 287.131 486.734 289.287 486.456 291.373C492.784 289.496 498.973 287.34 505.093 284.976C555.649 265.365 599.182 232.264 643.201 201.318C686.455 170.929 732.074 140.748 784.717 129.9C815.036 123.641 846.052 125.171 876.789 125.727C906.9 126.283 938.054 126.144 966.775 115.852C980.891 110.776 993.617 103.265 1005.44 94.086C1017.4 84.7676 1028.39 74.2669 1040.07 64.6007C1052.31 54.5869 1065.45 45.7552 1080.47 40.5396C1095.15 35.4631 1110.72 33.3769 1126.16 34.42C1187.01 38.5925 1227 91.6521 1259.61 137.132C1262.25 140.748 1268.23 137.271 1265.66 133.655Z" fill="white"/>
<path d="M1268.86 83.3759C1262.39 75.7264 1255.51 68.4246 1248.14 61.6791C1187.43 5.97693 1100.36 -13.6336 1021.78 11.0534C981.032 23.8489 947.026 47.7014 917.054 77.6735C885.831 108.897 857.458 143.39 818.515 165.504C733.675 213.626 632.285 204.655 538.822 199.579C444.942 194.433 351.618 200.135 259.824 220.302C169.769 240.051 82.5645 272.527 1.47998 316.546C0.993164 316.824 1.4104 317.589 1.89722 317.311C11.8416 311.887 21.8553 306.671 32.0083 301.595C114.414 260.427 202.731 231.081 293.343 214.391C339.031 205.976 385.276 200.83 431.659 198.953C479.99 197.075 528.043 199.857 576.304 202.499C663.856 207.228 759.892 207.854 835.205 156.046C870.045 132.054 896.331 98.2576 926.79 69.3286C958.848 38.8698 996.887 16.8253 1040.21 6.95047C1124.01 -12.1037 1213.02 18.3552 1268.31 84.0017C1268.65 84.419 1269.28 83.7931 1268.86 83.3759Z" fill="white" stroke="white"/>
</svg>
