<svg width="41" height="40" viewBox="0 0 41 40" fill="none" xmlns="http://www.w3.org/2000/svg">
<path d="M10.7504 14.1086C10.6793 14.1098 10.6086 14.0973 10.5424 14.0718C10.4762 14.0464 10.4158 14.0084 10.3647 13.9602C10.2613 13.8627 10.2018 13.7292 10.1993 13.5889C10.1968 13.4487 10.2514 13.3132 10.3512 13.2122C10.451 13.1113 10.5878 13.0532 10.7315 13.0508C13.3892 13.0218 16.0412 12.8026 18.6662 12.395C18.7128 12.3855 18.7606 12.3823 18.8081 12.3855C19.466 12.4194 20.1044 12.616 20.6633 12.9567C20.7556 13.0221 20.8243 13.1144 20.8598 13.2202C20.8952 13.3261 20.8955 13.4402 20.8606 13.5463C20.8257 13.6523 20.7574 13.7449 20.6655 13.8108C20.5735 13.8767 20.4626 13.9126 20.3486 13.9134C20.221 13.9134 20.0973 13.8706 19.9981 13.7923C19.633 13.5879 19.224 13.4697 18.8038 13.4469C16.1437 13.855 13.457 14.0761 10.7645 14.1086L10.7504 14.1086Z" fill="#F94D1C" stroke="#191919"/>
<path d="M30.5637 26.6906C30.1016 26.6912 29.6512 26.5486 29.2773 26.2834L29.1609 26.2046C29.1457 26.1945 29.1202 26.1744 29.0964 26.1517L22.7206 21.6684C22.661 21.6287 22.6102 21.5778 22.5711 21.5187C22.532 21.4596 22.5053 21.3935 22.4927 21.3242C22.48 21.255 22.4817 21.1839 22.4975 21.1153C22.5134 21.0466 22.5431 20.9817 22.5849 20.9245C22.6268 20.8672 22.6799 20.8186 22.7412 20.7816C22.8025 20.7446 22.8708 20.7199 22.942 20.709C23.0132 20.6981 23.0859 20.7012 23.1558 20.7181C23.2258 20.735 23.2916 20.7653 23.3494 20.8073L23.7827 21.1088L29.7491 25.3097C29.7669 25.3222 29.7839 25.3358 29.8 25.3504L29.9035 25.4208C30.1384 25.5852 30.429 25.6553 30.7153 25.6166C31.0017 25.5779 31.2619 25.4334 31.4423 25.2129C31.553 25.0765 31.6284 24.9161 31.6623 24.7453C31.6961 24.5744 31.6874 24.3982 31.6368 24.2313C31.5759 24.0211 31.4501 23.8344 31.2766 23.6966L22.7487 16.9126C19.4831 18.6051 17.1697 17.7345 16.0652 17.0454C15.8827 16.9294 15.7345 16.7687 15.6354 16.5794C15.5364 16.39 15.4898 16.1786 15.5005 15.9662C15.5112 15.7538 15.5787 15.5479 15.6963 15.3689C15.814 15.19 15.9776 15.0442 16.1709 14.9463L21.0523 12.415C21.3638 12.2559 21.7046 12.1585 22.0549 12.1286C22.4052 12.0986 22.758 12.1367 23.0932 12.2405L25.9808 13.1555C26.8309 13.4285 27.7529 13.396 28.5807 13.064L29.8385 12.561C29.9043 12.5347 29.9748 12.5212 30.0459 12.5215C30.1171 12.5217 30.1875 12.5356 30.2531 12.5625C30.3188 12.5893 30.3784 12.6284 30.4285 12.6777C30.4786 12.727 30.5183 12.7855 30.5453 12.8498C30.5723 12.9141 30.5861 12.9829 30.5858 13.0524C30.5856 13.1218 30.5713 13.1906 30.5438 13.2547C30.5164 13.3188 30.4763 13.377 30.4258 13.4259C30.3753 13.4749 30.3154 13.5136 30.2496 13.54L28.9929 14.0424C27.927 14.4708 26.7393 14.5129 25.6444 14.1609L22.7596 13.2464C22.562 13.1858 22.3541 13.164 22.1478 13.1821C21.9415 13.2003 21.7409 13.2581 21.5576 13.3522L16.6751 15.884C16.648 15.8965 16.6249 15.9161 16.6084 15.9407C16.592 15.9652 16.5828 15.9937 16.582 16.0231C16.5797 16.0496 16.585 16.0762 16.5972 16.1C16.6095 16.1238 16.6282 16.1438 16.6513 16.1579C17.7888 16.8677 19.7415 17.3881 22.5369 15.82C22.632 15.7666 22.7414 15.7427 22.8507 15.7514C22.96 15.7601 23.064 15.801 23.149 15.8686L31.9563 22.8763C32.3017 23.1484 32.5529 23.5177 32.6756 23.9341C32.7729 24.2618 32.7893 24.6074 32.7234 24.9424C32.6575 25.2775 32.5112 25.5926 32.2965 25.8618C32.092 26.1203 31.8294 26.3295 31.5289 26.4732C31.2285 26.6169 30.8983 26.6913 30.5637 26.6906Z" fill="#F94D1C" stroke="#191919"/>
<path d="M28.3228 29.1416C27.8638 29.1421 27.4161 29.0029 27.0418 28.7434L21.1865 24.6869C21.0721 24.6047 20.9953 24.4819 20.9727 24.345C20.9501 24.2081 20.9835 24.068 21.0657 23.9548C21.1479 23.8417 21.2723 23.7647 21.4121 23.7402C21.5519 23.7158 21.696 23.746 21.8132 23.8243L27.6685 27.8803C27.9142 28.0369 28.2123 28.0949 28.5007 28.0419C28.7891 27.989 29.0453 27.8293 29.216 27.5962C29.3866 27.3631 29.4583 27.0747 29.4163 26.7911C29.3742 26.5076 29.2215 26.2509 28.9902 26.0747L23.1544 21.9679C23.0468 21.8829 22.9766 21.761 22.9582 21.6271C22.9398 21.4932 22.9745 21.3575 23.0553 21.2479C23.1361 21.1382 23.2568 21.0629 23.3927 21.0374C23.5285 21.0118 23.6692 21.038 23.7859 21.1106L29.6234 25.2179C30.0033 25.4865 30.2864 25.8657 30.4321 26.3011C30.5777 26.7365 30.5784 27.2057 30.434 27.6415C30.2897 28.0774 30.0077 28.4573 29.6285 28.727C29.2494 28.9967 28.7925 29.1422 28.3234 29.1427L28.3228 29.1416Z" fill="#F94D1C" stroke="#191919"/>
<path d="M25.7954 31.261C25.3594 31.2609 24.9339 31.1304 24.5761 30.8871L19.3291 27.3383C19.211 27.2584 19.1301 27.136 19.1044 26.9979C19.0787 26.8599 19.1103 26.7175 19.1921 26.6021C19.2739 26.4867 19.3993 26.4078 19.5407 26.3827C19.6821 26.3576 19.8279 26.3884 19.9461 26.4683L25.1931 30.0171C25.3083 30.0949 25.4381 30.1498 25.575 30.1786C25.712 30.2075 25.8534 30.2097 25.9913 30.1851C26.1291 30.1605 26.2606 30.1097 26.3783 30.0355C26.496 29.9613 26.5976 29.8652 26.6772 29.7526C26.8357 29.527 26.8973 29.2497 26.8487 28.9802C26.8001 28.7107 26.6452 28.4706 26.4172 28.3114L21.1957 24.695C21.1363 24.6553 21.0856 24.6045 21.0465 24.5456C21.0075 24.4866 20.9809 24.4206 20.9682 24.3515C20.9555 24.2824 20.9571 24.2115 20.9728 24.143C20.9885 24.0744 21.018 24.0096 21.0596 23.9524C21.1012 23.8951 21.1541 23.8465 21.2151 23.8094C21.2762 23.7723 21.3442 23.7474 21.4152 23.7362C21.4862 23.7251 21.5588 23.7278 21.6287 23.7443C21.6986 23.7608 21.7644 23.7907 21.8224 23.8323L27.0439 27.4488C27.5035 27.7696 27.816 28.2535 27.9141 28.7967C28.0122 29.3399 27.8883 29.8991 27.5688 30.354C27.4091 30.5813 27.2049 30.7755 26.9679 30.9253C26.7309 31.0751 26.4659 31.1775 26.1881 31.2266C26.0585 31.2497 25.9271 31.2612 25.7954 31.261Z" fill="#F94D1C" stroke="#191919"/>
<path d="M22.7 32.9999C22.3211 32.9981 21.9492 32.8992 21.6216 32.7132L18.7091 31.0737C18.5857 31.0031 18.496 30.8876 18.4594 30.7526C18.4228 30.6176 18.4425 30.4739 18.514 30.353C18.5855 30.232 18.7031 30.1436 18.8412 30.107C18.9792 30.0704 19.1264 30.0886 19.2508 30.1577L22.1627 31.7972C22.4089 31.9329 22.6996 31.9692 22.9729 31.8985C23.2461 31.8277 23.4802 31.6555 23.6252 31.4185C23.7629 31.1914 23.8067 30.9215 23.7476 30.6639C23.6885 30.4063 23.531 30.1804 23.3072 30.0323L19.5861 27.5154C19.5276 27.4758 19.4777 27.4254 19.4392 27.367C19.4006 27.3086 19.3743 27.2434 19.3616 27.1751C19.3489 27.1067 19.3501 27.0366 19.3651 26.9687C19.3802 26.9009 19.4088 26.8365 19.4493 26.7794C19.4898 26.7224 19.5414 26.6736 19.6012 26.636C19.661 26.5984 19.7278 26.5727 19.7978 26.5603C19.8678 26.5479 19.9396 26.549 20.0091 26.5637C20.0787 26.5784 20.1445 26.6064 20.203 26.6459L23.9236 29.1623C24.3013 29.4176 24.5857 29.784 24.7353 30.2081C24.8849 30.6322 24.8919 31.0919 24.7552 31.5202C24.6186 31.9484 24.3456 32.3229 23.9758 32.5891C23.606 32.8552 23.1594 32.9991 22.7 32.9999Z" fill="#F94D1C" stroke="#191919"/>
<path d="M16.5665 32.6845C16.1234 32.6851 15.6906 32.5538 15.3259 32.3079C14.9613 32.0621 14.6822 31.7134 14.5258 31.3086C14.3694 30.9037 14.3433 30.4619 14.4509 30.0422C14.5585 29.6225 14.7946 29.2448 15.1279 28.9596L16.5746 27.722C16.7896 27.5377 17.0397 27.3965 17.3106 27.3066C17.5814 27.2167 17.8678 27.1797 18.1532 27.1978C18.4387 27.216 18.7178 27.2888 18.9744 27.4122C19.2311 27.5356 19.4603 27.7072 19.6491 27.9171C19.8378 28.1271 19.9823 28.3713 20.0744 28.6358C20.1664 28.9003 20.2042 29.1799 20.1856 29.4586C20.167 29.7374 20.0923 30.0098 19.9659 30.2604C19.8394 30.511 19.6637 30.7348 19.4486 30.9191L18.0019 32.1593C17.6048 32.499 17.0945 32.6857 16.5665 32.6845ZM18.0111 28.2509C17.7455 28.2502 17.4887 28.3442 17.2891 28.5153L15.8418 29.7545C15.7336 29.8471 15.6453 29.9596 15.5817 30.0856C15.5181 30.2115 15.4805 30.3485 15.4711 30.4886C15.4618 30.6288 15.4807 30.7693 15.527 30.9023C15.5733 31.0353 15.6459 31.1581 15.7407 31.2636C15.9323 31.4769 16.2028 31.607 16.4926 31.6255C16.6362 31.6347 16.7801 31.6161 16.9163 31.571C17.0525 31.5258 17.1782 31.4549 17.2864 31.3623L18.7331 30.122C18.9 29.9786 19.0182 29.789 19.072 29.5783C19.1258 29.3677 19.1126 29.146 19.0342 28.9429C18.9558 28.7397 18.8159 28.5647 18.6332 28.4411C18.4504 28.3175 18.2334 28.2511 18.0111 28.2509Z" fill="#F94D1C" stroke="#191919"/>
<path d="M13.2873 31.2435C13.2391 31.2435 13.1909 31.2435 13.1426 31.2393C12.857 31.2218 12.5777 31.1493 12.3209 31.0258C12.0641 30.9024 11.8349 30.7305 11.6466 30.52C11.4553 30.31 11.3083 30.0653 11.2141 29.7997C11.1199 29.5341 11.0804 29.253 11.0977 28.9724C11.1151 28.6919 11.189 28.4175 11.3153 28.1649C11.4415 27.9123 11.6176 27.6866 11.8335 27.5006L14.2503 25.429C14.4653 25.2447 14.7154 25.1036 14.9863 25.0136C15.2571 24.9237 15.5435 24.8868 15.8289 24.9049C16.1144 24.923 16.3935 24.9958 16.6501 25.1193C16.9068 25.2427 17.136 25.4143 17.3248 25.6242L16.9331 25.9907L17.3399 25.6416C17.5287 25.8515 17.6733 26.0957 17.7655 26.3602C17.8576 26.6246 17.8955 26.9043 17.8769 27.183C17.8584 27.4618 17.7838 27.7343 17.6573 27.9849C17.5309 28.2355 17.3551 28.4593 17.1401 28.6436L14.721 30.7152C14.3252 31.0564 13.8152 31.2443 13.2873 31.2435ZM15.6841 25.9579C15.4188 25.9572 15.1624 26.0512 14.9631 26.2223L12.5463 28.294C12.3845 28.4366 12.2692 28.6226 12.2148 28.8287C12.1604 29.0348 12.1693 29.252 12.2404 29.4533C12.3114 29.6545 12.4415 29.8309 12.6145 29.9605C12.7874 30.0901 12.9956 30.1671 13.2131 30.1821C13.3567 30.1917 13.5008 30.1732 13.6371 30.1278C13.7733 30.0824 13.8989 30.011 14.0066 29.9176L16.4235 27.846C16.5316 27.7534 16.62 27.6408 16.6836 27.5148C16.7472 27.3888 16.7847 27.2518 16.7941 27.1117C16.8034 26.9715 16.7844 26.8309 16.7381 26.6979C16.6918 26.5649 16.6191 26.4421 16.5242 26.3366L16.5085 26.3191C16.414 26.2139 16.2991 26.1281 16.1704 26.0664C16.0417 26.0048 15.9019 25.9686 15.7588 25.96C15.7334 25.9589 15.7085 25.9579 15.6841 25.9579Z" fill="#F94D1C" stroke="#191919"/>
<path d="M10.5546 29.3022C10.5069 29.3022 10.4587 29.3022 10.4099 29.298C10.1243 29.2806 9.84499 29.208 9.5882 29.0845C9.33142 28.9611 9.10223 28.7892 8.91388 28.5787L8.85484 28.51C8.47412 28.0859 8.28142 27.5316 8.3191 26.9689C8.35678 26.4062 8.62176 25.8811 9.0558 25.5091L11.8578 23.1075C12.0727 22.9231 12.3228 22.7819 12.5937 22.6919C12.8645 22.602 13.1509 22.565 13.4364 22.5831C13.7219 22.6012 14.001 22.6741 14.2576 22.7975C14.5143 22.921 14.7435 23.0926 14.9322 23.3026L14.9934 23.3708C15.3743 23.7948 15.5671 24.3492 15.5294 24.9119C15.4917 25.4747 15.2266 25.9998 14.7925 26.3717L11.9905 28.7734C11.5942 29.1152 11.0833 29.3033 10.5546 29.3022ZM13.2915 23.6369C13.0262 23.6362 12.7698 23.7303 12.5706 23.9013L9.76863 26.303C9.55008 26.4902 9.41663 26.7545 9.39764 27.0377C9.37865 27.321 9.47566 27.6 9.66734 27.8134L9.72855 27.8817C9.92037 28.0945 10.1909 28.2243 10.4806 28.2425C10.7703 28.2608 11.0557 28.166 11.2739 27.979L14.0759 25.5773C14.184 25.4847 14.2724 25.3722 14.336 25.2462C14.3996 25.1202 14.4371 24.9832 14.4465 24.843C14.4558 24.7028 14.4368 24.5622 14.3905 24.4292C14.3442 24.2963 14.2715 24.1735 14.1766 24.0679L14.1165 24.0007C14.0219 23.8951 13.9068 23.8089 13.7779 23.747C13.6489 23.685 13.5086 23.6487 13.3652 23.6401C13.3398 23.6379 13.3159 23.6369 13.2915 23.6369Z" fill="#F94D1C" stroke="#191919"/>
<path d="M8.2003 26.948C8.15263 26.948 8.10389 26.948 8.05568 26.9432C7.623 26.9166 7.20811 26.7653 6.86346 26.5085C6.51881 26.2517 6.25986 25.9009 6.11934 25.5005C5.97882 25.1 5.96304 24.6679 6.074 24.2586C6.18495 23.8494 6.41766 23.4815 6.74271 23.2014L8.49713 21.6978C8.71209 21.5134 8.96215 21.3722 9.23302 21.2823C9.50389 21.1923 9.79025 21.1553 10.0758 21.1734C10.3613 21.1915 10.6403 21.2644 10.897 21.3879C11.1536 21.5113 11.3829 21.683 11.5716 21.8929L11.5905 21.9141C11.7793 22.124 11.924 22.3682 12.0161 22.6326C12.1083 22.8971 12.1461 23.1767 12.1276 23.4555C12.109 23.7343 12.0344 24.0068 11.9079 24.2574C11.7815 24.508 11.6057 24.7318 11.3907 24.916L9.63624 26.4196C9.23987 26.7613 8.72901 26.9493 8.2003 26.948ZM9.93359 22.2267C9.66829 22.226 9.41189 22.3201 9.21265 22.4911L7.45823 23.9947C7.35009 24.0874 7.2617 24.1999 7.1981 24.3259C7.13451 24.4519 7.09696 24.5889 7.08761 24.729C7.07825 24.8692 7.09727 25.0098 7.14358 25.1428C7.18989 25.2758 7.26257 25.3986 7.35748 25.5041C7.45164 25.613 7.567 25.7026 7.69688 25.7676C7.82675 25.8326 7.96856 25.8718 8.11406 25.883C8.25957 25.8941 8.40589 25.8769 8.54454 25.8324C8.68319 25.7879 8.81142 25.7169 8.92178 25.6237L10.6762 24.12C10.7843 24.0274 10.8727 23.9149 10.9363 23.7889C10.9999 23.6629 11.0375 23.5259 11.0468 23.3857C11.0562 23.2455 11.0372 23.1049 10.9909 22.9719C10.9445 22.839 10.8719 22.7162 10.777 22.6106L10.758 22.5895C10.6634 22.4837 10.5482 22.3973 10.4192 22.3353C10.2901 22.2733 10.1497 22.2369 10.0062 22.2282C9.97964 22.2277 9.95526 22.2266 9.93089 22.2266L9.93359 22.2267Z" fill="#F94D1C" stroke="#191919"/>
<path d="M7.2177 24.026C7.10046 24.0263 6.98635 23.9891 6.89271 23.9202L5.04187 22.5452C4.98525 22.5031 4.93767 22.4506 4.90184 22.3906C4.86601 22.3305 4.84264 22.2642 4.83306 22.1954C4.82348 22.1266 4.82787 22.0566 4.846 21.9894C4.86412 21.9222 4.89562 21.8592 4.93869 21.8039C5.02567 21.6923 5.15452 21.6189 5.29689 21.6C5.36738 21.5907 5.43907 21.595 5.50786 21.6127C5.57665 21.6304 5.6412 21.6611 5.69782 21.7032L7.54866 23.0783C7.63983 23.145 7.70712 23.2382 7.74094 23.3444C7.77476 23.4507 7.77339 23.5647 7.73703 23.6701C7.70067 23.7756 7.63116 23.8672 7.53841 23.9318C7.44566 23.9965 7.33438 24.0309 7.22042 24.0302L7.2177 24.026Z" fill="#F94D1C" stroke="#191919"/>
<path d="M32.1558 24.6122C32.0487 24.6121 31.944 24.5811 31.8549 24.523C31.7659 24.4649 31.6965 24.3823 31.6555 24.2857C31.6145 24.189 31.6038 24.0827 31.6247 23.9801C31.6455 23.8775 31.6971 23.7833 31.7728 23.7094L34.8121 20.7407C34.9142 20.6444 35.0511 20.5911 35.1931 20.5923C35.3351 20.5935 35.471 20.6491 35.5714 20.7472C35.6718 20.8453 35.7288 20.9779 35.73 21.1166C35.7312 21.2552 35.6766 21.3888 35.578 21.4886L32.5387 24.4561C32.4886 24.5054 32.4289 24.5446 32.3632 24.5714C32.2975 24.5981 32.227 24.612 32.1558 24.6122Z" fill="#F94D1C" stroke="#191919"/>
<path d="M36.3002 23.5145C36.2076 23.5146 36.1165 23.4916 36.0356 23.4475C35.9547 23.4034 35.8868 23.3398 35.8382 23.2628L29.2246 12.7592C29.1547 12.6481 29.1294 12.5157 29.1533 12.3874C29.1773 12.2591 29.249 12.1441 29.3546 12.0642L35.9048 7.11074C35.9767 7.05637 36.0615 7.02054 36.1513 7.00658C36.2411 6.99261 36.3331 7.00095 36.4187 7.03083C36.5044 7.06071 36.5809 7.11116 36.6414 7.17753C36.7018 7.2439 36.7441 7.32406 36.7644 7.41061L39.9857 21.1335C40.0124 21.2452 40.0012 21.3623 39.9538 21.4672C39.9065 21.5722 39.8254 21.6592 39.723 21.7153L36.5646 23.4484C36.4837 23.4922 36.3927 23.515 36.3002 23.5145ZM30.4022 12.609L36.4882 22.2743L38.8395 20.9838L35.8983 8.45357L30.4022 12.609Z" fill="#F94D1C" stroke="#191919"/>
<path d="M4.70017 23.7023C4.6074 23.7023 4.5162 23.679 4.4353 23.6346L1.27691 21.9041C1.17444 21.8481 1.09341 21.761 1.04603 21.6561C0.998654 21.5511 0.987484 21.434 1.01421 21.3223L4.23598 7.60104C4.25632 7.51449 4.29864 7.43433 4.35906 7.36796C4.41948 7.30159 4.49604 7.25114 4.58168 7.22126C4.66732 7.19138 4.75929 7.18304 4.84911 7.19701C4.93892 7.21098 5.02369 7.2468 5.09559 7.30117L11.6464 12.2541C11.752 12.334 11.8236 12.4491 11.8476 12.5773C11.8716 12.7056 11.8463 12.838 11.7764 12.9491L5.16221 23.4527C5.11341 23.5293 5.04533 23.5925 4.96446 23.6362C4.88359 23.6799 4.7926 23.7026 4.70017 23.7023ZM2.16089 21.1753L4.51222 22.4653L10.5983 12.7994L5.10208 8.644L2.16089 21.1753Z" fill="#F94D1C" stroke="#191919"/>
</svg>
