<svg width="60" height="60" viewBox="0 0 60 60" fill="none" xmlns="http://www.w3.org/2000/svg">
<circle cx="30" cy="30" r="29.5" fill="white" stroke="#191919"/>
<rect x="14" y="14" width="32" height="32" fill="white"/>
<path d="M24.4493 17.5651C28.6136 16.2575 32.8879 17.2488 35.8769 20.231C37.4158 21.7748 38.46 23.7025 38.8913 25.8115C39.2379 27.4903 39.9651 29.1691 41.0601 30.7931L41.8887 32.0248C42.024 32.2273 42.0367 32.4888 41.9226 32.7039C41.8084 32.919 41.5843 33.054 41.3391 33.054H39.1153V36.4116C39.1153 37.3902 38.3163 38.1917 37.3312 38.1917H35.7247C35.6697 38.1917 35.6274 38.2338 35.6274 38.2887V44H25.6838L25.6415 43.6246C25.5105 42.4646 25.1934 41.3932 24.6987 40.4441C24.0096 39.1112 22.9992 37.9639 21.7773 37.1203C18.7841 35.0576 17 31.662 17 28.0387C17 23.2596 20.0609 18.9571 24.4493 17.5651ZM17.8455 28.0345C17.8455 31.3879 19.4944 34.5219 22.2593 36.4285C23.5911 37.348 24.6945 38.605 25.447 40.0561C25.9332 40.9925 26.263 42.0344 26.4321 43.1522H34.7819V38.2845C34.7819 37.7656 35.2047 37.3438 35.7247 37.3438H37.3312C37.847 37.3438 38.2698 36.9262 38.2698 36.4074V32.8642C38.2698 32.5014 38.5657 32.2062 38.9293 32.2062H40.9967L40.3583 31.2613C39.2041 29.5445 38.4304 27.7645 38.0626 25.976C37.6652 24.0315 36.7013 22.2472 35.2808 20.8257C32.5158 18.0755 28.5629 17.156 24.703 18.3708C20.6655 19.6489 17.8455 23.6223 17.8455 28.0345Z" fill="#191919" stroke="#191919" stroke-width="0.5"/>
<path d="M20.5977 29.3672V26.6592L22.4367 26.288C22.5551 25.8789 22.72 25.4866 22.9229 25.1112L21.8913 23.5505L23.8107 21.6312L25.375 22.6647C25.7513 22.4622 26.1445 22.2977 26.5503 22.1796L26.9224 20.3447H29.6366L30.0086 22.1796C30.4229 22.3019 30.8161 22.4622 31.1882 22.6647L32.7524 21.6312L34.6718 23.5463L33.6402 25.107C33.8432 25.4824 34.0081 25.8789 34.1264 26.2838L35.9655 26.655V29.363L34.1264 29.7342C34.0081 30.1434 33.8432 30.5357 33.6402 30.9111L34.6718 32.4718L32.7524 34.3868L31.1882 33.3533C30.8161 33.5516 30.4229 33.7161 30.0086 33.8384L29.6366 35.6733L26.9224 35.6691L26.5503 33.8384C26.1445 33.7203 25.7513 33.5558 25.375 33.3533L23.8107 34.3868L21.8913 32.4718L22.9229 30.9153C22.72 30.5357 22.5551 30.1434 22.4367 29.7384L20.5977 29.3672ZM21.4474 28.667L23.1259 29.0087L23.1893 29.2702C23.3161 29.7722 23.5148 30.2573 23.7854 30.7086L23.9207 30.9364L22.9779 32.3579L23.9207 33.2985L25.3454 32.3537L25.5737 32.4886C26.0261 32.7628 26.5123 32.9611 27.0112 33.0834L27.2733 33.1467L27.6157 34.8213H28.9475L29.2899 33.1509L29.5478 33.0876C30.0636 32.9611 30.5498 32.7586 30.9895 32.4929L31.2178 32.3537L32.6467 33.2985L33.5895 32.3579L32.6467 30.9364L32.782 30.7086C33.0526 30.2573 33.2555 29.7722 33.3781 29.2702L33.4416 29.0129L35.12 28.6713V27.3426L33.4416 27.0009L33.3781 26.7436C33.2513 26.2416 33.0526 25.7565 32.782 25.3052L32.6467 25.0774L33.5895 23.6559L32.6467 22.7153L31.2178 23.6602L30.9895 23.521C30.5498 23.2552 30.0636 23.057 29.5478 22.9262L29.2899 22.8629L28.9475 21.1883H27.6157L27.2733 22.8672L27.0112 22.9304C26.5123 23.057 26.0261 23.2552 25.5737 23.5252L25.3454 23.6602L23.9207 22.7153L22.9779 23.6559L23.9207 25.0774L23.7854 25.3052C23.5106 25.7566 23.3119 26.2416 23.1893 26.7436L23.1259 27.0051L21.4474 27.3468L21.4474 28.667Z" fill="#191919" stroke="#191919" stroke-width="0.5"/>
<path d="M25.1553 28.0093C25.1553 26.2925 26.5589 24.8921 28.2796 24.8921C30.0003 24.8921 31.4039 26.2925 31.4039 28.0093C31.4039 29.726 30.0045 31.1264 28.2796 31.1264C26.5589 31.1264 25.1553 29.726 25.1553 28.0093ZM26.0008 28.0093C26.0008 29.262 27.0239 30.2828 28.2796 30.2828C29.5352 30.2828 30.5583 29.2621 30.5583 28.0093C30.5583 26.7565 29.5352 25.7357 28.2796 25.7357C27.0239 25.7357 26.0008 26.7565 26.0008 28.0093Z" fill="#191919" stroke="#191919" stroke-width="0.5"/>
</svg>
